<ttFont>
          <CharString index="0">
            rmoveto
            60 -18 48 -37 37 vhcurveto
            37 -37 -48 18 -61 hhcurveto
            -60 -49 -19 -38 -38 hvcurveto
            -37 -37 -19 -47 -1 -57 -1 -58 18 -48 37 -38 rrcurveto
            -40 39 50 -20 61 59 callgsubr
            -41 -34 14 29 -29 hvcurveto
            -28 29 -14 35 40 vvcurveto
            42 14 35 27 28 vhcurveto
            28 28 35 14 42 hhcurveto
            -20 callsubr
            return
          </CharString>
          <CharString index="1">
            rmoveto
            41 -32 25 -39 -31 -33 -19 -28 -8 vhcurveto
            16 -10 9 -5 1 -1 9 17 11 9 13 1 rrcurveto
            28 3 14 -11 -25 vvcurveto
            -10 -8 -15 -17 -20 vhcurveto
            -16 -19 -8 -16 -1 -11 -1 -13 6 -11 12 -9 rrcurveto
            4 23 16 3 hvcurveto
            -5 5 -2 5 5 vvcurveto
            1 9 12 18 22 vhcurveto
            19 22 9 19 17 vvcurveto
            return
          </CharString>
          <CharString index="2">
            -5 6 -2 10 -1 14 rrcurveto
            -50 hlineto
            5 -40 1 -35 -4 -29 rrcurveto
            261 hlineto
            29 0 16 -1 1 vhcurveto
            -7 29 -27 41 -45 55 -22 27 -19 30 -17 34 -21 44 -10 39 1 35 rrcurveto
            121 3 78 75 127 hhcurveto
            127 77 -75 -121 3 hvcurveto
            1 -35 -10 -39 -21 -44 -16 -34 -19 -30 -23 -27 -41 -49 -26 -41 -12 -35 1 -1 0 -16 -1 -29 rrcurveto
            260 hlineto
            -5 24 1 35 6 45 rrcurveto
            return
          </CharString>
          <CharString index="3">
            36 5 36 -18 -36 vvcurveto
            -15 -56 callsubr
            -16 -10 -17 -4 -19 3 rrcurveto
            -28 vlineto
            44 -3 32 10 19 23 rrcurveto
            13 15 7 18 14 callsubr
            15 vhcurveto
            return
          </CharString>
          <CharString index="4">
            -33 8 21 -16 35 hhcurveto
            17 19 12 23 22 hvcurveto
            54 vlineto
            -20 -27 -15 -10 -5 hhcurveto
            -11 -6 8 15 hvcurveto
            206 vlineto
            43 -14 31 -27 21 vhcurveto
            -23 18 -31 9 -38 -1 -65 callgsubr
            49 3 24 -21 1 -45 rrcurveto
            3 -198 rmoveto
            -12 -11 -18 -10 -25 -11 rrcurveto
            return
          </CharString>
          <CharString index="5">
            -1 callsubr
            -97 callsubr
            -39 -2 -82 -5 -127 vhcurveto
            65 304 hlineto
            33 30 25 18 30 9 34 -1 rlinecurve
            -61 callgsubr
            -1 -377 rcurveline
            68 hlineto
            return
          </CharString>
          <CharString index="6">
            447 388 rmoveto
            -33 3 -21 0 -11 -3 -12 -4 -7 -12 -2 -19 rrcurveto
            -89 vlineto
            -1 -60 -4 -45 -9 -29 -15 -51 -34 -27 -53 -2 -43 -1 -39 28 -13 41 -19 57 -5 77 7 95 3 39 rcurveline
            -91 -45 hlineto
            9 -2 8 -2 6 -1 3 -3 1 -30 1 -57 1 -64 5 -45 7 -26 rrcurveto
            -79 23 52 -40 83 hhcurveto
            82 54 40 79 25 hvcurveto
            5 17 5 41 3 65 5 102 rcurveline
            2 5 8 2 14 -1 rrcurveto
            return
          </CharString>
          <CharString index="7">
            197 rmoveto
            -5 52 -21 45 -35 38 -33 36 -41 23 -48 11 -19 -50 rcurveline
            89 -17 57 -72 -92 vvcurveto
            -37 -8 -29 -16 -22 vhcurveto
            -25 -17 -26 -12 -33 hhcurveto
            -21 callgsubr
            -33 -26 12 25 -18 hvcurveto
            -17 22 -8 29 37 vvcurveto
            45 13 40 27 33 vhcurveto
            27 33 36 21 45 9 -19 50 rcurveline
            -48 -11 -41 -23 -33 -36 -35 -38 -21 -45 -5 -52 rrcurveto
            -1 -11 -1 -10 -10 -79 callgsubr
            9 0 10 -1 10 vhcurveto
            return
          </CharString>
          <CharString index="8">
            rmoveto
            -59 41 -60 42 -60 41 -177 -124 rcurveline
            37 -39 rlineto
            69 91 46 35 1 hhcurveto
            138 -106 rlineto
            return
          </CharString>
          <CharString index="9">
            623 rmoveto
            -1 -17 -11 -26 -23 -37 -109 -176 rcurveline
            -111 177 -22 35 -10 27 1 17 rlinecurve
            -116 hlineto
            17 -12 37 -47 55 -83 37 -57 38 -57 37 -57 rrcurveto
            -183 vlineto
            -1 -60 -4 -42 -7 -25 rrcurveto
            88 hlineto
            -6 25 -3 42 -1 61 -1 61 0 60 -1 61 33 51 34 50 33 51 57 83 39 54 22 24 rrcurveto
            return
          </CharString>
          <CharString index="10">
            29 -21 -33 14 -46 hhcurveto
            -54 -44 -18 -36 -35 hvcurveto
            36 -7 -19 18 -30 hhcurveto
            -18 -22 -11 -21 -26 hvcurveto
            -19 -15 -12 -13 -6 -9 26 -43 rcurveline
            35 30 20 18 10 hhcurveto
            4 3 -1 -3 2 hvcurveto
            5 -7 3 -34 -59 vvcurveto
            return
          </CharString>
          <CharString index="11">
            -1 callgsubr
            -1 9 9 0 9 hhcurveto
            39 29 10 21 19 hvcurveto
            13 15 6 17 14 callsubr
            16 vhcurveto
            return
          </CharString>
          <CharString index="12">
            rmoveto
            23 -30 -37 12 -45 hhcurveto
            -38 -32 -11 -22 -27 hvcurveto
            -26 -21 -13 -26 -29 vvcurveto
            -47 24 -31 48 -17 vhcurveto
            -23 -5 -19 -12 -15 -17 -19 -22 -8 -27 3 -33 3 -34 18 -26 31 -19 27 -16 29 -7 31 1 51 3 39 12 27 21 -14 45 rcurveline
            -30 -19 -31 -10 -31 -3 -62 -5 -33 22 -3 47 -3 34 18 23 39 13 33 11 43 2 55 -7 rrcurveto
            59 vlineto
            -54 -9 -38 -2 -23 6 rrcurveto
            -39 11 -20 21 33 vvcurveto
            29 16 19 33 9 vhcurveto
            3 13 13 2 13 hhcurveto
            36 28 -10 -20 19 hvcurveto
            return
          </CharString>
          <CharString index="13">
            41 -35 -47 21 -61 hhcurveto
            -60 -48 -21 -43 -35 hvcurveto
            -32 92 callgsubr
            -57 17 -47 34 -38 vhcurveto
            -40 36 47 -20 57 151 callsubr
            -65 hmoveto
            158 callsubr
            -38 -31 15 29 -23 hvcurveto
            -23 27 -11 32 39 vvcurveto
            40 11 34 21 29 vhcurveto
            31 23 30 16 39 hhcurveto
            41 32 -14 -29 23 hvcurveto
            21 -26 10 -36 -45 vvcurveto
            return
          </CharString>
          <CharString index="14">
            388 rmoveto
            1 -23 0 -20 -17 vvcurveto
            44 -27 -45 22 -64 hhcurveto
            -60 -49 -19 -38 -38 hvcurveto
            -37 -37 -19 -47 -1 -57 -1 -58 18 -48 37 -38 rrcurveto
            -40 39 54 callsubr
            62 46 24 48 31 hvcurveto
            -1 -63 -1 -43 -1 -21 rrcurveto
            -59 -4 -54 -44 -65 hhcurveto
            -6 -6 0 1 -6 hvcurveto
            -45 5 -38 17 -29 27 -37 -61 rcurveline
            23 -8 16 -6 9 -5 rrcurveto
            -15 33 40 -8 48 hhcurveto
            41 37 11 21 33 hvcurveto
            33 21 21 28 9 35 rrcurveto
            6 24 3 72 119 vvcurveto
            122 1 92 3 62 vhcurveto
            -200 -47 rmoveto
            73 53 -50 -71 11 hvcurveto
            -45 vlineto
            -76 -9 -53 -52 -75 hhcurveto
            -41 -34 14 29 -29 hvcurveto
            -28 29 -14 35 40 vvcurveto
            42 14 35 27 28 vhcurveto
            28 28 35 14 42 hhcurveto
            return
          </CharString>
          <CharString index="15">
            -27 -27 -32 -14 -39 hhcurveto
            -77 -53 60 87 39 13 33 26 27 hvcurveto
            28 27 29 14 33 hhcurveto
            37 33 -14 -29 28 hvcurveto
            29 -29 14 -33 -37 vvcurveto
            return
          </CharString>
          <CharString index="16">
            rmoveto
            -5 -5 -9 -6 -11 -6 -13 -8 -9 -3 -4 2 rrcurveto
            return
          </CharString>
          <CharString index="17">
            rmoveto
            6 -24 3 -68 -1 -112 rrcurveto
            -107 -33 -31 -64 -67 -34 36 73 51 1 46 1 41 vhcurveto
            1 51 2 31 3 13 rrcurveto
            -77 hlineto
            3 -10 2 -15 1 -19 rrcurveto
            1 -83 1 -62 -41 vvcurveto
            -51 14 -40 28 -31 vhcurveto
            -33 29 40 -16 50 hhcurveto
            50 40 17 33 29 hvcurveto
            29 31 14 41 -1 50 -1 82 1 59 1 36 1 25 2 17 3 10 rrcurveto
            return
          </CharString>
          <CharString index="18">
            623 rmoveto
            7 -25 4 -42 1 -61 rrcurveto
            -1 24 0 -61 -147 vvcurveto
            -210 vlineto
            -17 41 -62 100 -109 158 -48 69 -53 74 -58 80 1 -1 -31 0 -64 1 10 -19 6 -41 3 -63 rrcurveto
            1 -24 0 -63 -101 vvcurveto
            141 callgsubr
            -3 -42 -7 -25 rrcurveto
            83 hlineto
            50 callgsubr
            233 vlineto
            22 -40 68 -102 113 -165 47 -69 55 -79 61 -88 rrcurveto
            58 310 hlineto
            159 0 62 -1 -36 vhcurveto
            1 61 142 callsubr
            return
          </CharString>
          <CharString index="19">
            rmoveto
            47 21 23 34 47 vvcurveto
            33 -13 29 -27 23 vhcurveto
            -21 19 -28 14 -33 9 -57 15 -28 19 1 23 1 15 7 12 14 10 rrcurveto
            8 13 13 4 15 hhcurveto
            35 -1 33 -9 31 -19 rrcurveto
            67 vlineto
            -5 1 -16 3 -25 6 rrcurveto
            5 -20 -15 2 -9 hhcurveto
            -37 -31 -10 -19 -23 hvcurveto
            -25 -21 -13 -26 -33 vvcurveto
            -35 12 -25 25 -16 vhcurveto
            47 -21 37 -15 27 -8 39 -17 18 -21 -2 -25 rrcurveto
            -40 -4 -38 -22 -44 hhcurveto
            -7 -6 1 1 -7 hvcurveto
            -51 15 -32 11 -13 9 rrcurveto
            -68 vlineto
            39 -12 30 -7 23 -1 39 -3 33 5 28 13 rrcurveto
            return
          </CharString>
          <CharString index="20">
            -10 -25 -19 -5 -15 hhcurveto
            -37 -26 28 37 31 32 26 44 7 hvcurveto
            47 7 34 4 20 3 rrcurveto
            return
          </CharString>
          <CharString index="21">
            rmoveto
            -3 -35 -24 -27 -19 1 -13 1 -22 10 -33 19 -37 22 -27 11 -15 -1 -27 -1 -24 -27 -19 -51 37 -33 rcurveline
            9 35 13 18 15 1 rrcurveto
            9 19 -9 -17 29 hvcurveto
            return
          </CharString>
          <CharString index="22">
            8 81 -54 34 -83 20 -63 15 -32 19 -1 23 rrcurveto
            47 -4 43 18 43 hhcurveto
            30 24 -6 -13 18 hvcurveto
            5 -3 4 -8 2 -13 rrcurveto
            33 80 hlineto
            -7 -1 -12 1 -19 5 rrcurveto
            9 -31 -27 4 -23 hhcurveto
            -75 -2 -74 -35 -81 vvcurveto
            -35 14 -26 27 -19 vhcurveto
            30 -20 52 -14 38 -10 51 -17 17 -13 1 -31 rrcurveto
            -40 2 -45 -18 -44 hhcurveto
            -43 -30 11 21 -29 hvcurveto
            -7 5 -5 12 -1 2 rrcurveto
            -33 hlineto
            -1 -43 -1 -28 -11 vvcurveto
            7 1 9 -1 13 -5 return
          </CharString>
          <CharString index="23">
            vvcurveto
            -50 12 -40 25 -31 vhcurveto
            27 -33 39 -18 53 -1 31 -1 30 12 27 23 27 24 17 27 6 30 return
          </CharString>
          <CharString index="24">
            -23 61 -167 51 16 rlineto
            return
          </CharString>
          <CharString index="25">
            -57 144 -51 132 -44 120 rrcurveto
            -57 hlineto
            -83 -223 -51 -132 -19 -41 rrcurveto
            67 hlineto
            15 45 14 38 12 32 rrcurveto
            141 hlineto
            25 -71 13 -38 1 -6 rrcurveto
            -161 171 rmoveto
            25 62 18 49 12 37 20 -60 17 -49 13 -39 rrcurveto
            return
          </CharString>
          <CharString index="26">
            -174 51 -16 61 167 rlineto
            return
          </CharString>
          <CharString index="27">
            447 342 rmoveto
            -14 1 -8 -2 -2 -5 -5 -102 rcurveline
            -3 -65 -5 -41 -5 -17 rrcurveto
            -79 -25 -54 -40 -82 hhcurveto
            -83 -52 40 79 -23 hvcurveto
            -7 26 -5 45 -1 64 -1 57 -1 30 -3 3 -6 1 -8 2 -9 2 rrcurveto
            45 91 vlineto
            -3 -39 -7 -95 5 -77 19 -57 rlinecurve
            13 -41 39 -28 43 1 53 2 34 27 15 51 9 29 4 45 1 60 rrcurveto
            89 vlineto
            2 19 7 12 12 4 11 3 21 0 33 -3 rrcurveto
            return
          </CharString>
          <CharString index="28">
            205 169 rmoveto
            4 -16 0 -21 -5 -26 rrcurveto
            38 hlineto
            17 1 1 32 vhcurveto
            1 -36 0 -22 -3 -8 -3 -8 -15 -4 -28 -1 -35 -1 -31 14 -25 28 rrcurveto
            -25 29 -12 35 41 vvcurveto
            43 12 35 23 29 vhcurveto
            23 29 29 16 34 1 28 1 20 -5 12 -11 4 -9 3 -8 1 -6 rrcurveto
            39 hlineto
            -5 41 -2 27 11 vvcurveto
            -6 -1 -14 2 -23 5 rrcurveto
            7 -28 -19 3 -9 hhcurveto
            -59 -46 -21 -41 -34 49 callgsubr
            47 -7 29 -4 29 2 31 9 22 5 16 3 10 -1 rrcurveto
            return
          </CharString>
          <CharString index="29">
            215 19 rmoveto
            -12 -10 -17 -9 -21 -8 -21 -9 -23 -3 -15 1 rrcurveto
            -8 1 -4 20 40 vvcurveto
            19 1 26 2 33 vhcurveto
            1 19 2 19 1 19 3 109 1 55 -3 3 rrcurveto
            1 -1 -2 1 -3 -9 -30 -12 -1 hhcurveto
            -6 53 18 5 32 6 35 6 rlinecurve
            17 3 10 -6 2 -15 1 -23 -1 -52 -4 -79 rrcurveto
            -5 -88 -2 -53 -19 vvcurveto
            -17 1 -9 2 -1 vhcurveto
            6 -3 20 8 33 18 rrcurveto
            return
          </CharString>
          <CharString index="30">
            -3 15 -2 59 101 vvcurveto
            107 0 60 1 13 vhcurveto
            -23 hlineto
            -11 -15 -12 -9 -14 -5 rrcurveto
            -15 vlineto
            9 1 7 0 5 -1 rrcurveto
            1 -8 0 -44 -81 vvcurveto
            -102 -2 -59 -5 -17 vhcurveto
            return
          </CharString>
          <CharString index="31">
            rmoveto
            31 -22 22 -31 -29 -24 -24 -29 -29 24 -24 29 29 24 24 29 vhcurveto
            return
          </CharString>
          <CharString index="32">
            -36 5 -36 -18 -36 vvcurveto
            -35 40 -12 29 4 vhcurveto
            -28 vlineto
            -64 -5 -51 28 61 vvcurveto
            return
          </CharString>
          <CharString index="33">
            rmoveto
            -67 -83 callsubr
            -140 163 rmoveto
            -71 8 -47 -35 -61 vvcurveto
            -61 51 -28 64 5 vhcurveto
            28 vlineto
            return
          </CharString>
          <CharString index="34">
            -52 callsubr
            -32 84 -37 98 -41 113 rrcurveto
            -71 hlineto
            -133 -357 -83 -211 -33 -65 rrcurveto
            80 hlineto
            6 27 24 68 43 110 rrcurveto
            251 hlineto
            41 -115 23 -68 5 -22 rrcurveto
            -299 266 rmoveto
            55 144 37 100 18 57 29 -95 33 -101 37 -105 rrcurveto
            endchar
          </CharString>
          <CharString index="35">
            520 rmoveto
            -13 7 -12 8 -13 7 rrcurveto
            -19 -1 -8 -9 -13 hhcurveto
            -13 -20 5 10 -28 hvcurveto
            -28 11 -21 5 -14 -1 -29 -1 -19 -20 -7 -41 37 -13 rcurveline
            19 9 9 10 10 hhcurveto
            9 -1 18 -5 27 -11 25 -11 22 -5 20 1 17 1 13 9 11 17 5 8 4 9 3 10 rrcurveto
            return
          </CharString>
          <CharString index="36">
            -3 -32 -2 -25 -19 vvcurveto
            -16 1 -9 3 -1 vhcurveto
            4 -2 9 3 13 8 11 6 9 6 5 5 rrcurveto
            return
          </CharString>
          <CharString index="37">
            625 197 rmoveto
            1 -10 0 -10 -9 vvcurveto
            -55 callgsubr
            10 1 10 1 11 vhcurveto
            5 52 21 45 35 38 33 36 41 23 48 11 19 -50 rcurveline
            -45 -9 -36 -21 -27 -33 rrcurveto
            -27 -33 -13 -40 -45 vvcurveto
            -37 8 -29 17 -22 vhcurveto
            -25 18 26 -12 33 hhcurveto
            69 39 73 123 -5 hvcurveto
            65 hlineto
            -123 -5 39 -73 69 hhcurveto
            33 26 12 25 17 hvcurveto
            16 22 8 29 37 vvcurveto
            92 -57 72 -89 17 vhcurveto
            19 50 48 -11 41 -23 33 -36 rlinecurve
            35 -38 21 -45 5 -52 rrcurveto
            return
          </CharString>
          <CharString index="38">
            -4 15 -2 27 -1 40 rrcurveto
            37 0 38 -1 37 vhcurveto
            -1 107 3 65 6 23 rrcurveto
            -74 hlineto
            5 -18 3 -65 -111 vvcurveto
            -112 -3 -65 -5 -18 vhcurveto
            return
          </CharString>
          <CharString index="39">
            -17 30 -41 13 -65 -53 callsubr
            return
          </CharString>
          <CharString index="40">
            -8 callgsubr
            94 73 -33 -66 53 hvcurveto
            47 -60 24 -77 -94 vvcurveto
            -72 hmoveto
            79 -18 63 -35 47 vhcurveto
            51 -39 -55 25 -73 hhcurveto
            -68 -54 -28 -56 -41 hvcurveto
            -37 -50 -19 -61 -71 vvcurveto
            -67 20 -57 39 -47 vhcurveto
            -51 42 54 -26 65 hhcurveto
            66 54 25 51 41 hvcurveto
            39 47 19 58 68 vvcurveto
            return
          </CharString>
          <CharString index="41">
            9 -39 31 -34 53 -27 rrcurveto
            -119 206 rmoveto
            -43 -14 -35 -27 -27 vhcurveto
            return
          </CharString>
          <CharString index="42">
            rmoveto
            57 1 -39 45 -65 hhcurveto
            -29 -25 -10 -21 -20 hvcurveto
            13 31 22 33 32 34 19 21 21 18 23 17 9 7 10 6 10 5 -23 27 rcurveline
            -47 -31 -38 -33 -28 -35 -42 -51 -23 -50 -3 -48 rrcurveto
            -75 -5 45 -49 76 hhcurveto
            33 26 11 21 19 hvcurveto
            19 19 9 24 27 vvcurveto
            -34 hmoveto
            -41 -1 -29 -31 -40 hhcurveto
            -53 -32 33 48 6 1 6 1 7 hvcurveto
            29 21 28 14 33 hhcurveto
            45 27 -31 -40 -1 hvcurveto
            endchar
          </CharString>
          <CharString index="43">
            -6 -13 -53 -3 -91 hhcurveto
            112 113 vlineto
            25 13 -2 -3 3 hvcurveto
            3 -7 1 -5 -3 vvcurveto
            40 hlineto
            -2 31 0 24 2 17 -57 -3 -45 -1 -33 1 -61 1 -42 2 -25 1 rrcurveto
            4 -15 2 -64 -113 vvcurveto
            -122 -2 -69 -4 -15 vhcurveto
            64 2 48 1 32 62 callgsubr
            return
          </CharString>
          <CharString index="44">
            56 callsubr
            -71 callsubr
            return
          </CharString>
          <CharString index="45">
            rmoveto
            -43 -14 -35 -27 -27 vhcurveto
            -27 -27 -32 -14 -39 hhcurveto
            -77 -53 60 87 39 13 33 26 27 hvcurveto
            28 27 29 14 33 hhcurveto
            37 33 -14 -29 28 hvcurveto
            29 return
          </CharString>
          <CharString index="46">
            317 -2 rmoveto
            -2 17 0 26 2 37 rrcurveto
            -40 hlineto
            -1 -9 -2 -7 -3 -3 rrcurveto
            -5 -3 -13 -3 -23 hhcurveto
            -126 hlineto
            1 143 rlineto
            112 2 65 5 18 vhcurveto
            -73 hlineto
            4 -15 2 -62 -109 vvcurveto
            -122 -2 -69 -4 -15 vhcurveto
            3 64 48 1 32 hhcurveto
            33 1 44 -1 55 -3 rrcurveto
            return
          </CharString>
          <CharString index="47">
            -102 callgsubr
            endchar
          </CharString>
          <CharString index="48">
            -3 23 0 36 3 49 19 callsubr
            return
          </CharString>
          <CharString index="49">
            -13 -1 1 -9 -37 hhcurveto
            -99 hlineto
            77 81 rlineto
            55 57 27 53 47 vvcurveto
            7 -1 6 -1 6 vhcurveto
            53 -9 -34 26 -57 hhcurveto
            -35 -26 -10 -21 -17 hvcurveto
            -11 -15 -8 -16 -5 -17 -2 -7 -1 -8 -1 -7 rrcurveto
            34 hlineto
            2 17 5 14 7 11 rrcurveto
            19 12 18 10 25 hhcurveto
            37 30 -25 -43 -15 -3 -16 -7 -17 hvcurveto
            -8 -21 -14 -23 -20 -25 -11 -13 -16 -18 -23 -22 return
          </CharString>
          <CharString index="50">
            rmoveto
            -37 41 -24 -17 -31 -23 -38 -29 rlinecurve
            -24 16 -34 23 -45 31 -31 -41 rcurveline
            128 -89 12 -1 41 29 42 30 41 30 rlinecurve
            endchar
          </CharString>
          <CharString index="51">
            -6 -10 -11 -7 vhcurveto
            return
          </CharString>
          <CharString index="52">
            335 hmoveto
            -21 105 -37 60 -53 15 25 3 20 9 17 16 rrcurveto
            21 19 9 27 34 vvcurveto
            67 -59 36 -63 vhcurveto
            -155 130 callgsubr
            155 callsubr
            73 hlineto
            -5 17 -2 55 93 vvcurveto
            1 7 8 0 7 hhcurveto
            17 13 -2 -3 11 hvcurveto
            31 -10 25 -25 19 -41 17 -35 6 -29 -4 -21 rrcurveto
            -9 281 rmoveto
            -29 -10 -19 -21 -9 vhcurveto
            -7 -3 -14 -3 -20 -1 rrcurveto
            -1 -9 -25 0 -41 hhcurveto
            1 87 0 28 11 vvcurveto
            33 1 52 -3 11 -2 rrcurveto
            35 -7 15 -12 -38 vvcurveto
            return
          </CharString>
          <CharString index="53">
            623 rmoveto
            -22 -24 -39 -54 -57 -83 -33 -51 -34 -50 -33 -51 1 -61 0 -60 1 -61 1 -61 3 -42 6 -25 rrcurveto
            -88 hlineto
            7 25 4 42 1 60 rrcurveto
            183 vlineto
            -37 57 -38 57 -37 57 -55 83 -37 47 -17 12 rrcurveto
            116 hlineto
            -1 -17 10 -27 22 -35 111 -177 rcurveline
            109 176 23 37 11 26 1 17 rlinecurve
            return
          </CharString>
          <CharString index="54">
            48 callgsubr
            -81 callgsubr
            return
          </CharString>
          <CharString index="55">
            -14 24 -45 113 -75 201 return
          </CharString>
          <CharString index="56">
            93 3 68 2 41 1 53 1 68 -2 85 -4 rrcurveto
            return
          </CharString>
          <CharString index="57">
            82 -5 66 218 58 239 60 hstem
            320 349 rmoveto
            -9 -5 -48 -4 -88 -3 -29 49 -16 37 -2 25 -4 40 15 32 33 25 31 23 36 10 43 -2 49 -2 37 -10 27 -18 7 -5 5 -13 4 -21 rrcurveto
            38 hlineto
            -1 49 0 33 18 vvcurveto
            -5 -1 -18 4 -31 7 rrcurveto
            13 -52 -34 6 -15 hhcurveto
            -69 -55 -15 -31 -42 hvcurveto
            -48 -35 -22 -49 4 -65 2 -29 13 -34 25 -39 -52 2 -29 3 -5 4 rrcurveto
            -78 vlineto
            7 4 41 3 75 2 rrcurveto
            13 -25 6 -23 -22 vvcurveto
            -56 -37 -49 -75 -43 vhcurveto
            39 -66 47 14 37 9 27 4 rlinecurve
            1 6 6 0 7 hhcurveto
            19 27 -4 -8 35 hvcurveto
            39 -9 26 -6 14 -1 40 -3 42 9 45 21 -36 76 rcurveline
            -25 -27 -28 -12 -29 hhcurveto
            -12 -15 2 4 -19 hvcurveto
            -29 6 -16 3 -5 1 rrcurveto
            3 -16 -16 1 -17 hhcurveto
            -37 -35 -5 -10 -33 hvcurveto
            55 35 31 42 6 49 3 27 -5 29 -14 31 67 -1 38 -3 8 -4 rrcurveto
            endchar
          </CharString>
          <CharString index="58">
            263 163 callsubr
            -15 -23 vhcurveto
            -62 -97 -63 98 -14 22 -7 17 1 12 rlinecurve
            -88 hlineto
            11 -8 24 -31 35 -54 23 -35 22 -34 23 -35 rrcurveto
            -111 -2 -65 -5 -18 vhcurveto
            73 hlineto
            -4 15 -2 27 -1 38 rrcurveto
            114 vlineto
            21 32 20 32 21 31 35 53 25 34 14 15 rrcurveto
            return
          </CharString>
          <CharString index="59">
            -108 38 -54 76 73 39 54 109 3 vhcurveto
            -55 -5 rmoveto
            -72 -19 -36 -39 vhcurveto
            -24 -1 -17 13 -9 27 rrcurveto
            -6 17 -3 22 29 vvcurveto
            1 74 19 38 38 1 25 1 17 -13 9 -28 6 -17 3 -24 -1 -31 rrcurveto
            return
          </CharString>
          <CharString index="60">
            -18 30 -35 14 -51 -3 rrcurveto
            return
          </CharString>
          <CharString index="61">
            -1 -27 0 -54 vhcurveto
            8 -16 4 -65 -115 vvcurveto
            166 callsubr
            -4 -17 vhcurveto
            68 hlineto
            -5 16 -2 65 113 vvcurveto
            125 vlineto
            89 -125 79 -106 67 -88 rrcurveto
            56 194 hlineto
            115 2 66 5 16 vhcurveto
            return
          </CharString>
          <CharString index="62">
            -85 -270 rmoveto
            166 callgsubr
            -41 -34 14 29 -29 hvcurveto
            -28 29 -14 35 40 vvcurveto
            42 14 35 27 28 vhcurveto
            28 28 35 14 42 hhcurveto
            -20 callsubr
            return
          </CharString>
          <CharString index="63">
            -13 10 15 -6 19 hhcurveto
            21 25 8 16 29 hvcurveto
            24 13 19 13 13 14 rrcurveto
            2 3 1 2 3 vvcurveto
            6 -3 3 -7 -3 -4 -1 -1 -4 vhcurveto
            -11 -7 -12 -6 -11 -6 rrcurveto
            -10 -19 -15 -5 -11 hhcurveto
            return
          </CharString>
          <CharString index="64">
            438 194 rmoveto
            -60 -19 -49 -39 -37 vhcurveto
            -37 -39 -47 -19 -57 hhcurveto
            -61 -50 20 40 -39 hvcurveto
            -37 38 -18 48 1 58 1 57 19 47 37 37 rrcurveto
            38 38 49 19 60 hhcurveto
            61 48 -18 -37 37 hvcurveto
            37 -37 18 -48 -60 vvcurveto
            -61 hmoveto
            84 1 -56 63 -83 hhcurveto
            -42 -35 -14 -28 -28 hvcurveto
            -27 -28 -14 -35 -42 vvcurveto
            -40 14 -35 28 -29 vhcurveto
            -29 29 34 -14 41 hhcurveto
            79 58 58 89 1 hvcurveto
            return
          </CharString>
          <CharString index="65">
            rmoveto
            -39 hlineto
            -449 -700 3 -5 rlineto
            38 hlineto
            450 700 rlineto
            return
          </CharString>
          <CharString index="66">
            rmoveto
            -56 -170 51 -16 80 161 rlineto
            endchar
          </CharString>
          <CharString index="67">
            448 rmoveto
            63 -25 47 -49 32 vhcurveto
            22 -35 -36 11 -39 33 callgsubr
            34 -1 45 rrcurveto
            132 2 -8 37 vvcurveto
            39 77 1 1 23 hvcurveto
            41 3 38 13 34 23 rrcurveto
            48 33 24 48 61 vvcurveto
            -70 hmoveto
            1 -70 -39 -40 -77 140 callgsubr
            return
          </CharString>
          <CharString index="68">
            -23 20 -19 23 24 18 21 21 vhcurveto
            return
          </CharString>
          <CharString index="69">
            514 386 rmoveto
            -32 -115 -29 -100 -25 -87 -44 160 -28 100 -12 40 rrcurveto
            1 vlineto
            1 -1 vlineto
            1 1 rlineto
            -71 -2 hlineto
            -5 -23 -13 -44 -21 -66 -21 -69 -19 -54 -15 -41 -21 83 -29 100 -35 116 rrcurveto
            -77 hlineto
            138 -387 rlineto
            42 hlineto
            111 292 45 -136 32 -97 19 -59 rlinecurve
            43 hlineto
            75 212 46 129 17 45 rrcurveto
            return
          </CharString>
          <CharString index="70">
            8 8 21 4 33 hhcurveto
            126 -270 hlineto
            -179 vlineto
            -1 -57 -4 -40 -7 -25 rrcurveto
            87 hlineto
            -7 24 -3 41 -1 57 rrcurveto
            1 -34 0 60 153 vvcurveto
            269 128 vlineto
            34 21 -4 -8 8 hvcurveto
            4 -7 3 -12 1 -18 rrcurveto
            return
          </CharString>
          <CharString index="71">
            389 rmoveto
            -1 -1 -33 0 -64 hhcurveto
            130 vlineto
            -60 -26 rlineto
            -104 -58 -21 vlineto
            -14 0 -7 -1 -1 vhcurveto
            58 hlineto
            -1 -93 -1 -57 -1 -21 rrcurveto
            -2 -59 -1 -32 -5 vvcurveto
            -57 8 -29 15 49 callsubr
            -20 -17 -8 hhcurveto
            -8 -4 18 37 -23 1 22 1 69 hvcurveto
            4 170 rlineto
            98 return
          </CharString>
          <CharString index="72">
            rmoveto
            -29 26 rlineto
            -39 -29 -29 -20 -30 hhcurveto
            -23 -30 21 41 -35 hvcurveto
            -29 -27 rlineto
            -49 37 39 -25 41 hhcurveto
            45 1 39 24 33 47 rrcurveto
            endchar
          </CharString>
          <CharString index="73">
            21 -31 callsubr
            return
          </CharString>
          <CharString index="74">
            216 rmoveto
            64 -21 53 -43 42 vhcurveto
            48 -50 -72 24 -93 hhcurveto
            -14 -15 -1 -1 -15 hvcurveto
            -1 41 0 42 2 43 rrcurveto
            162 hlineto
            39 21 -3 -5 4 hvcurveto
            4 -4 3 1 1 -15 rrcurveto
            50 hlineto
            -3 34 0 27 3 21 18 callsubr
            rrcurveto
            hintmask 11011100
            -42 1 -47 2 -52 3 rrcurveto
            5 -20 2 -89 -159 vvcurveto
            42 hlineto
            3 13 6 7 11 3 rrcurveto
            1 13 13 1 13 hhcurveto
            67 53 -17 -33 39 hvcurveto
            37 -32 18 -41 -1 -51 -1 -50 -18 -41 -35 -31 rrcurveto
            -31 -35 -43 -16 -50 hhcurveto
            -37 -40 8 15 -43 hvcurveto
            -21 -63 rlineto
            -13 43 47 -7 49 hhcurveto
            33 29 3 7 25 hvcurveto
            51 13 40 29 29 43 rrcurveto
            28 41 14 47 51 vvcurveto
            endchar
          </CharString>
          <CharString index="75">
            -4 rmoveto
            -3 27 0 32 3 38 rrcurveto
            -46 hlineto
            -1 -13 -3 -9 -5 -7 rrcurveto
            hintmask 10110000
            -7 -5 -18 -3 -33 hhcurveto
            -173 hlineto
            135 142 rlineto
            92 97 46 88 79 vvcurveto
            11 -1 12 -2 11 vhcurveto
            -7 37 -15 32 -25 25 -32 32 -43 15 -53 -2 -61 -3 -46 -18 -30 -34 -19 -21 -13 -27 -9 -32 -4 -13 -3 -14 -1 -15 rrcurveto
            59 hlineto
            3 29 8 24 13 21 22 35 33 17 45 -1 rrcurveto
            31 27 -10 -20 21 hvcurveto
            25 -23 12 -30 -37 vvcurveto
            -26 -6 -28 -12 -30 vhcurveto
            -14 -37 -24 -39 -34 -40 -13 -15 -29 -30 -43 -43 -71 -73 -45 -46 -18 -19 rrcurveto
            -35 vlineto
            83 2 59 0 35 -1 rrcurveto
            hintmask 01110000
            48 1 69 -2 91 -4 rrcurveto
            endchar
          </CharString>
          <CharString index="76">
            -21 205 61 367 -20 return
          </CharString>
          <CharString index="77">
            rmoveto
            -9 99 -76 86 -98 20 -19 -50 rcurveline
            89 -17 57 -72 -92 vvcurveto
            -67 -29 -58 -71 return
          </CharString>
          <CharString index="78">
            150 -1 63 -44 -21 566 60 5 -20 hstemhm
            hintmask 10100000
            488 104 -4 callgsubr
            -8 -6 -18 -4 -30 hhcurveto
            -283 hlineto
            284 251 -277 250 rlineto
            253 hlineto
            39 21 -2 -5 4 hvcurveto
            4 -5 152 callgsubr
            hintmask 10010000
            -3 49 0 32 3 17 rrcurveto
            hintmask 10100000
            -67 -5 -155 -2 -244 2 rrcurveto
            -61 vlineto
            -168 184 91 -84 -1 hhcurveto
            -1 -46 -42 -83 -91 hvcurveto
            -87 -81 -45 -41 -3 -3 1 1 0 -21 -1 -41 rrcurveto
            100 72 0 1 44 hvcurveto
            hintmask 01100000
            53 1 86 -1 120 -3 -5 24 1 36 7 47 rrcurveto
            endchar
          </CharString>
          <CharString index="79">
            53 callsubr
            52 1 118 callgsubr
            hintmask 11101000
            322 -3 rmoveto
            -47 callgsubr
            hintmask 11100100
            50 callsubr
            hintmask 11101000
            -6 -13 -53 -3 -91 hhcurveto
            112 113 vlineto
            25 13 -2 -3 3 hvcurveto
            3 -7 1 -5 -3 vvcurveto
            40 hlineto
            -2 31 0 24 2 17 -57 -3 -45 -1 -33 1 rrcurveto
            hintmask 11011000
            -61 1 -42 2 -25 1 rrcurveto
            4 -15 2 -64 -113 vvcurveto
            -122 -2 -69 -4 -15 vhcurveto
            64 2 48 1 32 62 callgsubr
            endchar
          </CharString>
          <CharString index="80">
            621 rmoveto
            -7 -25 -3 -42 -1 -60 rrcurveto
            -184 vlineto
            -181 vlineto
            1 -61 3 -43 6 -25 rrcurveto
            -87 hlineto
            7 25 4 42 1 61 rrcurveto
            244 0 137 -1 30 vhcurveto
            -1 30 -3 27 -7 25 rrcurveto
            return
          </CharString>
          <CharString index="81">
            322 -3 rmoveto
            3 -57 -45 1 -33 hhcurveto
            -32 -1 -48 -1 -64 -2 rrcurveto
            4 15 2 69 122 vvcurveto
            113 -2 64 -4 15 vhcurveto
            25 -1 42 -2 61 -1 33 -1 45 1 57 3 -2 -17 0 -24 2 -31 rrcurveto
            -40 hlineto
            3 -1 5 -3 7 vhcurveto
            3 -3 -13 2 -25 hhcurveto
            -113 -112 hlineto
            return
          </CharString>
          <CharString index="82">
            -4 callsubr
            vhcurveto
            return
          </CharString>
          <CharString index="83">
            360 96 callgsubr
            101 59 469 62 vstem
            612 623 rmoveto
            -219 -411 -215 411 rlineto
            -98 hlineto
            11 -20 6 -42 3 -63 rrcurveto
            1 -25 0 -63 -101 vvcurveto
            -183 vlineto
            -1 -59 -3 -42 -7 -25 rrcurveto
            81 hlineto
            -7 24 -3 42 -1 61 rrcurveto
            180 vlineto
            241 vlineto
            11 -41 42 -89 73 -137 31 -57 36 -64 41 -71 141 248 79 155 15 61 rrcurveto
            -246 vlineto
            -180 vlineto
            -1 -60 -3 -42 -7 -25 rrcurveto
            84 hlineto
            -7 25 -3 42 -1 59 rrcurveto
            183 vlineto
            101 1 63 1 25 vhcurveto
            3 63 6 42 11 20 rrcurveto
            endchar
          </CharString>
          <CharString index="84">
            201 20 -21 570 57 7 -20 hstemhm
            35 133 -66 66 309 66 -66 133 hintmask 11010100
            326 569 rmoveto
            151 -268 hlineto
            -168 -4 -101 -9 -33 vhcurveto
            91 hlineto
            -7 25 -3 27 -1 28 rrcurveto
            -1 29 0 74 119 vvcurveto
            266 vlineto
            hintmask 10110010
            27 -1 22 -3 18 -5 rrcurveto
            75 vlineto
            hintmask 11010100
            -5 -31 -90 -2 -163 hhcurveto
            hintmask 10110100
            -163 -97 2 5 -31 hvcurveto
            -75 vlineto
            hintmask 11001100
            18 5 22 3 27 1 rrcurveto
            -266 vlineto
            -119 0 -74 -1 -29 vhcurveto
            -1 -28 -3 -27 -7 -25 rrcurveto
            91 hlineto
            -9 33 -4 101 168 vvcurveto
            268 vlineto
            endchar
          </CharString>
          <CharString index="85">
            rmoveto
            -4 112 callsubr
            4 132 rrcurveto
            -66 hlineto
            7 -119 0 -130 -7 -141 rrcurveto
            return
          </CharString>
          <CharString index="86">
            16 -5 16 -9 return
          </CharString>
          <CharString index="87">
            83 56 -63 -84 -1 hvcurveto
            return
          </CharString>
          <CharString index="88">
            16 0 53 125 43 113 55 hstem
            99 59 200 66 vstem
            43 221 rmoveto
            -43 56 vlineto
            -67 -1 -43 -1 -21 vhcurveto
            -1 -20 -1 -16 -3 -11 rrcurveto
            133 hlineto
            61 48 18 35 36 hvcurveto
            36 36 18 45 55 vvcurveto
            59 -15 48 -31 35 vhcurveto
            39 -34 -49 19 -65 hhcurveto
            -138 hlineto
            4 -15 3 -18 1 -21 rrcurveto
            1 -16 -2 -89 -9 vvcurveto
            168 hmoveto
            -109 hlineto
            1 39 0 38 36 vvcurveto
            67 hlineto
            42 32 -12 -23 21 hvcurveto
            25 -27 12 -36 -47 vvcurveto
            -80 -54 -56 -80 vhcurveto
            -64 hlineto
            -1 63 -1 42 20 vvcurveto
            109 hlineto
            endchar
          </CharString>
          <CharString index="89">
            -1 -74 0 -79 1 -85 rrcurveto
            211 hlineto
            36 21 4 8 6 hvcurveto
            4 6 3 10 2 15 rrcurveto
            49 hlineto
            -3 -49 0 -36 3 -23 rrcurveto
            return
          </CharString>
          <CharString index="90">
            21 -19 21 -23 71 callgsubr
            -23 20 -19 23 24 18 19 23 vhcurveto
            return
          </CharString>
          <CharString index="91">
            rmoveto
            -38 -148 43 -14 53 142 rlineto
            return
          </CharString>
          <CharString index="92">
            503 51 rmoveto
            -51 29 -26 48 68 vvcurveto
            55 25 51 49 45 -37 callgsubr
            66 -37 -55 33 -75 hhcurveto
            -59 -48 -21 -43 -37 hvcurveto
            -33 -39 -17 -46 -51 vvcurveto
            -58 16 -48 33 -38 vhcurveto
            -41 36 48 -20 61 hhcurveto
            68 69 38 60 28 hvcurveto
            return
          </CharString>
          <CharString index="93">
            rmoveto
            -14 8 -14 8 -14 7 -4 -43 -30 -34 -24 1 -15 1 -29 12 -41 25 -47 27 -33 14 -19 -1 -34 -2 -29 -33 -24 -64 46 -19 rcurveline
            12 43 15 23 19 1 11 1 24 -11 37 -22 rrcurveto
            -28 47 36 -14 23 hhcurveto
            47 33 33 67 21 hvcurveto
            endchar
          </CharString>
          <CharString index="94">
            115 -6 63 -46 -21 569 62 3 -20 hstemhm
            hintmask 10100000
            520 621 rmoveto
            -113 -2 -88 -1 -62 1 rrcurveto
            hintmask 10010000
            6 callsubr
            hintmask 10100000
            20 callgsubr
            hintmask 01100000
            31 callsubr
            hintmask 10100000
            -9 113 callgsubr
            -263 hlineto
            398 564 rlineto
            endchar
          </CharString>
          <CharString index="95">
            575 -105 callgsubr
            -29 -397 -91 callsubr
            -100 callgsubr
            return
          </CharString>
          <CharString index="96">
            225 rmoveto
            hintmask 01110000
            -27 -5 -22 -3 -15 1 rrcurveto
            107 vlineto
            198 vlineto
            106 vlineto
            1 -1 -6 0 -13 hhcurveto
            -12 1 -6 0 -1 -1 -21 -39 -52 -81 -85 -125 -36 -52 -41 -59 -45 -65 rrcurveto
            -47 vlineto
            107 1 85 0 63 -1 rrcurveto
            -109 vlineto
            hintmask 10110000
            -1 -7 -4 -18 -8 -28 rrcurveto
            87 hlineto
            -6 26 -3 19 -1 13 rrcurveto
            103 vlineto
            hintmask 10101000
            23 -1 21 -2 20 -5 rrcurveto
            -129 62 rmoveto
            -33 -1 -60 1 -87 1 76 114 60 87 45 61 rrcurveto
            -1 -46 0 -88 -129 vvcurveto
            endchar
          </CharString>
          <CharString index="97">
            hmoveto
            -4 -1 34 -1 48 vhcurveto
            118 vlineto
            78 -11 55 -23 32 vhcurveto
            29 -21 -33 14 -46 hhcurveto
            -49 -45 -18 -37 -41 hvcurveto
            124 callgsubr
            -68 hlineto
            4 -33 2 -71 -109 vvcurveto
            -47 vlineto
            25 callsubr
            return
          </CharString>
          <CharString index="98">
            92 21 -21 296 62 209 64 -5 -20 26 -20 hstemhm
            87 64 hintmask 11100100
            460 535 rmoveto
            12 -3 32 13 vvcurveto
            9 1 13 2 17 vhcurveto
            hintmask 11010100
            -69 -5 -69 -1 -69 1 rrcurveto
            -17 -29 1 2 -42 hvcurveto
            hintmask 11001100
            2 -37 -30 1 -21 hhcurveto
            7 -23 3 -63 -104 vvcurveto
            -118 vlineto
            -19 0 -29 1 -39 vhcurveto
            1 -38 0 -29 -19 vvcurveto
            -74 -4 -50 -7 -27 vhcurveto
            87 hlineto
            -9 33 -4 46 -1 59 rrcurveto
            -1 59 0 53 45 vvcurveto
            1 11 12 0 14 hhcurveto
            return
          </CharString>
          <CharString index="99">
            rmoveto
            -5 -41 -26 -3 -12 hhcurveto
            -147 hlineto
            223 315 rlineto
            20 -285 -62 vlineto
            7 22 33 3 43 hhcurveto
            95 hlineto
            -217 -310 rlineto
            -25 312 vlineto
            return
          </CharString>
          <CharString index="100">
            -25 0 225 -56 56 -56 220 hstemhm
            47 59 205 58 hintmask 10011000
            377 hmoveto
            -5 19 -3 65 110 vvcurveto
            hintmask 00111000
            113 2 65 5 17 vhcurveto
            -72 hlineto
            hintmask 10011000
            5 -19 3 -55 -1 -90 rrcurveto
            -206 hlineto
            hintmask 00111000
            -1 84 2 55 7 25 rrcurveto
            -74 hlineto
            5 -18 3 -65 -111 vvcurveto
            hintmask 10011000
            110 callsubr
            hintmask 01011000
            -5 18 -2 56 95 vvcurveto
            205 hlineto
            hintmask 10011000
            1 -92 -3 -56 -5 -21 rrcurveto
            73 hlineto
            endchar
          </CharString>
          <CharString index="101">
            12 -131 rmoveto
            -35 -1 -19 -18 -35 hhcurveto
            -37 -21 24 31 1 hvcurveto
            32 22 26 36 35 20 -28 -32 -1 vhcurveto
            99 267 23 callsubr
            return
          </CharString>
          <CharString index="102">
            rmoveto
            31 -24 24 -31 -31 -24 -24 -31 -31 24 -24 31 31 24 24 31 vhcurveto
            endchar
          </CharString>
          <CharString index="103">
            74 callsubr
            71 callgsubr
            return
          </CharString>
          <CharString index="104">
            rmoveto
            36 -12 30 -24 23 vhcurveto
            27 -28 -40 14 -53 hhcurveto
            -8 -8 0 -1 -9 hvcurveto
            -1 23 1 23 1 24 rrcurveto
            91 hlineto
            22 12 -1 -3 2 hvcurveto
            3 -5 1 -3 -2 vvcurveto
            29 hlineto
            -2 19 0 16 2 11 -48 -3 -39 -1 -30 1 -23 1 -27 1 -29 2 rrcurveto
            3 -11 1 -51 -89 vvcurveto
            24 hlineto
            13 3 15 1 15 hhcurveto
            75 45 -42 -56 hvcurveto
            -1 -45 -32 -41 -52 -8 -25 -3 -28 4 -32 11 -12 -36 rcurveline
            return
          </CharString>
          <CharString index="105">
            rmoveto
            -2 -53 -39 -1 -23 hhcurveto
            -30 -1 -39 1 -48 2 1 -13 0 -21 -1 -28 rrcurveto
            28 hlineto
            20 1 0 8 39 hhcurveto
            114 hlineto
            -44 -57 -32 -57 -20 -57 -14 -39 -11 -51 -7 -61 rrcurveto
            -1 14 0 29 return
          </CharString>
          <CharString index="106">
            rmoveto
            -1 78 -11 55 -22 32 rrcurveto
            return
          </CharString>
          <CharString index="107">
            rrcurveto
            -49 -3 40 -38 57 hhcurveto
            43 -1 32 9 21 17 rrcurveto
            return
          </CharString>
          <CharString index="108">
            -72 callgsubr
            endchar
          </CharString>
          <CharString index="109">
            -13 1 -4 52 5 101 rrcurveto
            44 hlineto
            return
          </CharString>
          <CharString index="110">
            112 callgsubr
            244 209 rmoveto
            73 99 47 61 19 22 rrcurveto
            -86 hlineto
            -8 -24 -10 -20 -12 -17 -58 -82 rcurveline
            -59 84 -19 31 -11 19 -4 9 rlinecurve
            -92 hlineto
            11 -7 28 -33 45 -59 19 -25 22 -28 25 -33 -73 -87 -57 -68 -42 -51 rrcurveto
            88 hlineto
            8 21 11 20 13 17 85 110 rcurveline
            77 -108 15 -27 11 -20 5 -13 rlinecurve
            87 hlineto
            endchar
          </CharString>
          <CharString index="111">
            rmoveto
            24 -22 23 -24 -25 -23 -23 -24 -24 23 -22 25 25 21 23 23 vhcurveto
            endchar
          </CharString>
          <CharString index="112">
            521 rmoveto
            -2 46 0 34 2 22 rrcurveto
            -561 hlineto
            3 -25 0 -34 -3 -42 rrcurveto
            51 hlineto
            1 18 3 12 4 7 rrcurveto
            return
          </CharString>
          <CharString index="113">
            -53 -1 -69 2 -85 4 3 -24 0 -32 -3 -41 rrcurveto
            51 hlineto
            1 12 2 8 4 5 rrcurveto
            return
          </CharString>
          <CharString index="114">
            -14 24 -44 113 -74 201 -31 84 -36 98 -41 113 rrcurveto
            -71 hlineto
            -129 -357 -81 -211 -33 -65 rrcurveto
            return
          </CharString>
          <CharString index="115">
            7 -25 3 -27 1 return
          </CharString>
          <CharString index="116">
            628 rmoveto
            -4 -94 -68 -2 -41 hhcurveto
            -53 -68 2 3 -85 hvcurveto
            3 -23 0 -37 -3 -49 rrcurveto
            50 hlineto
            1 18 3 12 5 6 rrcurveto
            9 7 20 4 35 hhcurveto
            200 hlineto
            -77 -100 -57 -100 -35 -101 -24 -69 -19 -89 -13 -108 rrcurveto
            -1 25 0 50 1 vhcurveto
            5 110 21 102 39 94 37 89 57 94 79 101 rrcurveto
            endchar
          </CharString>
          <CharString index="117">
            29 21 26 29 16 -5 14 -11 11 hvcurveto
            13 -13 -17 6 -22 hhcurveto
            -45 -27 -30 -33 hvcurveto
            -28 1 20 -24 29 hhcurveto
            return
          </CharString>
          <CharString index="118">
            rmoveto
            -3 66 -1 65 65 vvcurveto
            65 1 63 3 64 vhcurveto
            -66 hlineto
            3 -61 1 -62 -65 vvcurveto
            -65 -1 -67 -3 -68 vhcurveto
            return
          </CharString>
          <CharString index="119">
            622 rmoveto
            5 -18 2 -64 -111 vvcurveto
            -209 -1 -120 -3 -32 vhcurveto
            -17 -1 -11 -9 -19 hhcurveto
            -10 -9 2 5 -9 hvcurveto
            -11 6 -6 7 -1 9 -36 1 rcurveline
            -1 1 0 -24 1 -49 rrcurveto
            5 25 20 -17 39 hhcurveto
            48 29 15 30 11 hvcurveto
            7 19 3 131 245 vvcurveto
            111 2 65 5 18 vhcurveto
            return
          </CharString>
          <CharString index="120">
            2 -9 56 150 53 90 54 return
          </CharString>
          <CharString index="121">
            21 vvcurveto
            -21 callsubr
            return
          </CharString>
          <CharString index="122">
            rmoveto
            111 4 -38 56 -81 hhcurveto
            -40 -30 -17 -35 -19 hvcurveto
            -17 -29 -8 -39 -48 vvcurveto
            return
          </CharString>
          <CharString index="123">
            3 -60 1 -92 -124 vvcurveto
            -146 -1 -78 -2 -10 vhcurveto
            35 callsubr
            15 -6 9 -5 rrcurveto
            -2 6 8 -1 9 hhcurveto
            45 30 19 37 17 hvcurveto
            8 18 5 35 2 53 rrcurveto
            169 vlineto
            161 1 91 3 23 vhcurveto
            endchar
          </CharString>
          <CharString index="124">
            -28 -3 -41 12 34 vvcurveto
            return
          </CharString>
          <CharString index="125">
            -85 -4 103 callsubr
            return
          </CharString>
          <CharString index="126">
            rrcurveto
            -49 hlineto
            -2 -15 -3 -10 -4 -6 rrcurveto
            -8 113 callgsubr
            -211 hlineto
            return
          </CharString>
          <CharString index="127">
            -157 -1 -114 -3 -69 vhcurveto
            65 hlineto
            return
          </CharString>
          <CharString index="128">
            721 337 rmoveto
            99 -35 83 -70 69 vhcurveto
            69 -69 -84 35 -99 hhcurveto
            -97 -83 -35 -70 -69 hvcurveto
            -69 -70 -35 -84 -97 vvcurveto
            -97 35 -83 69 -69 vhcurveto
            -69 69 84 -35 97 hhcurveto
            98 84 34 69 69 hvcurveto
            70 69 35 84 98 vvcurveto
            -43 hmoveto
            -86 -31 -74 -61 -61 vhcurveto
            -61 -61 -74 return
          </CharString>
          <CharString index="129">
            -4 -17 -5 -11 -7 -7 rrcurveto
            -15 -15 -27 -7 -40 hhcurveto
            return
          </CharString>
          <CharString index="130">
            rmoveto
            -314 -25 314 hlineto
            return
          </CharString>
          <CharString index="131">
            61 50 32 68 -5 vhcurveto
            return
          </CharString>
          <CharString index="132">
            20 callsubr
            -1 -1 20 -1 42 vhcurveto
            -1 45 0 40 -1 35 rrcurveto
            50 0 38 1 26 vhcurveto
            11 10 12 10 11 11 27 19 30 9 34 -1 -61 callgsubr
            rrcurveto
            -80 vlineto
            -1 -41 0 -39 -37 vvcurveto
            return
          </CharString>
          <CharString index="133">
            hmoveto
            -6 25 -3 42 -1 60 rrcurveto
            179 vlineto
            189 0 99 1 11 vhcurveto
            11 1 -13 6 -27 hhcurveto
            -18 -25 -22 -17 -25 -8 rrcurveto
            -26 vlineto
            15 1 13 0 9 -1 rrcurveto
            1 -14 0 -78 -142 vvcurveto
            -185 vlineto
            -1 -60 -4 -42 -7 -25 rrcurveto
            87 hlineto
            endchar
          </CharString>
          <CharString index="134">
            1 -42 -13 -36 -26 -29 rrcurveto
            -29 -26 -33 -15 -41 hhcurveto
            -45 -37 16 32 -28 hvcurveto
            -1 45 1 67 2 90 rrcurveto
            32 29 36 16 43 hhcurveto
            return
          </CharString>
          <CharString index="135">
            rmoveto
            -307 hlineto
            -1 -48 rlineto
            308 hlineto
            endchar
          </CharString>
          <CharString index="136">
            62 23 callgsubr
            return
          </CharString>
          <CharString index="137">
            66 238 60 203 64 return
          </CharString>
          <CharString index="138">
            53 1 74 -2 94 -5 -3 27 0 37 3 46 rrcurveto
            -51 hlineto
            -14 -3 -10 -5 -6 vhcurveto
            return
          </CharString>
          <CharString index="139">
            516 rmoveto
            21 -19 22 -23 -23 -18 -22 -21 -23 18 -19 23 23 19 19 23 116 callgsubr
            20 -21 22 171 callsubr
            19 23 vhcurveto
            return
          </CharString>
          <CharString index="140">
            -8 58 -39 -21 348 59 return
          </CharString>
          <CharString index="141">
            44 callsubr
            -160 139 rmoveto
            -68 -23 35 callgsubr
          </CharString>
          <CharString index="142">
            -6 -29 -15 -16 -24 -2 -14 -1 -14 8 -15 17 -13 -25 -9 -17 -5 -10 23 -7 return
          </CharString>
          <CharString index="143">
            70 callgsubr
            -62 rrcurveto
            -184 vlineto
            -184 vlineto
            -1 -59 -3 -41 -7 -25 rrcurveto
            88 hlineto
            -7 25 -3 return
          </CharString>
          <CharString index="144">
            -3 7 callgsubr
            return
          </CharString>
          <CharString index="145">
            -10 2 -17 6 -23 11 rrcurveto
            9 -19 -19 4 -18 hhcurveto
            -52 1 -35 -19 -17 -38 -10 -21 -5 -54 1 -85 -33 -1 -22 2 -10 4 107 callsubr
            return
          </CharString>
          <CharString index="146">
            -20 6 -52 2 -85 -1 rrcurveto
            -129 129 vlineto
            23 12 2 4 3 hvcurveto
            3 5 3 7 1 9 rrcurveto
            40 hlineto
            return
          </CharString>
          <CharString index="147">
            -23 1 -17 -20 -27 hhcurveto
            -31 -16 13 27 27 16 14 31 29 14 -13 -25 hvcurveto
            return
          </CharString>
          <CharString index="148">
            325 391 rmoveto
            5 -17 2 -65 -115 vvcurveto
            -108 vlineto
            return
          </CharString>
          <CharString index="149">
            rmoveto
            -49 24 -33 51 57 vvcurveto
            79 41 56 75 11 vhcurveto
            112 -271 rmoveto
            -14 -31 -28 -7 -25 hhcurveto
            -10 -10 1 2 -9 hvcurveto
            34 291 23 -1 23 -3 25 -7 rlinecurve
            9 53 rlineto
            7 -27 -24 4 -23 hhcurveto
            return
          </CharString>
          <CharString index="150">
            30 153 69 callsubr
            hstemhm
            70 37 -19 34 122 33 -18 37 hintmask 1001010010000000
            296 return
          </CharString>
          <CharString index="151">
            rmoveto
            23 -19 20 -23 -21 64 callsubr
            21 24 18 21 21 vhcurveto
            return
          </CharString>
          <CharString index="152">
            -1 callgsubr
            -1 9 9 0 9 hhcurveto
            40 29 10 21 17 hvcurveto
            13 17 7 18 20 vvcurveto
            16 -4 15 -9 15 vhcurveto
            endchar
          </CharString>
          <CharString index="153">
            -5 20 14 -2 7 hhcurveto
            36 24 12 24 11 hvcurveto
            9 17 4 57 96 vvcurveto
            113 2 66 5 18 vhcurveto
            return
          </CharString>
          <CharString index="154">
            21 21 vhcurveto
            144 callgsubr
            return
          </CharString>
          <CharString index="155">
            -20 hstem
            47 58 vstem
            113 hmoveto
            -74 hlineto
            5 18 3 65 112 vvcurveto
            111 -3 65 -5 18 vhcurveto
            74 hlineto
            -6 -23 -3 -65 1 -107 rrcurveto
            1 -37 0 -38 -37 vvcurveto
            1 -40 2 -27 4 -15 rrcurveto
            return
          </CharString>
          <CharString index="156">
            -1 vhcurveto
            27 -1 33 13 39 26 -9 24 -5 14 -3 4 rrcurveto
            -1 -4 return
          </CharString>
          <CharString index="157">
            85 1 52 -2 20 -6 rrcurveto
            66 vlineto
            return
          </CharString>
          <CharString index="158">
            23 18 47 callsubr
            return
          </CharString>
          <CharString index="159">
            20 38 35 vvcurveto
            43 -31 29 -43 -26 -19 -8 -15 -13 vhcurveto
            -9 -11 -6 -11 -3 -13 rrcurveto
            -1 -5 -1 -6 -5 vvcurveto
            24 hlineto
            1 12 4 10 5 9 rrcurveto
            14 9 14 7 18 hhcurveto
            27 23 return
          </CharString>
          <CharString index="160">
            -86 -3 88 callsubr
            return
          </CharString>
          <CharString index="161">
            50 -20 61 hhcurveto
            return
          </CharString>
          <CharString index="162">
            hintmask 11100100
            209 211 vlineto
            17 12 -1 -3 5 hvcurveto
            8 -4 4 -9 -15 vvcurveto
            50 hlineto
            endchar
          </CharString>
          <CharString index="163">
            30 callgsubr
            2 callsubr
            return
          </CharString>
          <CharString index="164">
            23 18 21 21 vhcurveto
            return
          </CharString>
          <CharString index="165">
            -34 -68 -55 hvcurveto
            -50 -63 -25 -79 -96 vvcurveto
            -91 27 -78 53 -63 vhcurveto
            -67 57 73 -34 90 hhcurveto
            87 72 34 67 58 hvcurveto
            55 65 28 77 90 vvcurveto
            -74 hmoveto
            -71 -20 -62 return
          </CharString>
          <CharString index="166">
            -78 19 -62 37 -47 vhcurveto
            -58 47 66 -29 85 hhcurveto
            return
          </CharString>
          <CharString index="167">
            83 -153 51 16 -56 170 rlineto
            return
          </CharString>
          <CharString index="168">
            90 33 callsubr
            return
          </CharString>
          <CharString index="169">
            -80 -244 rmoveto
            41 1 -28 33 -47 hhcurveto
            -21 -18 -7 -15 -15 hvcurveto
            9 23 16 23 23 25 33 29 23 18 11 6 -17 19 rcurveline
            -34 -23 -27 -23 -20 -25 return
          </CharString>
          <CharString index="170">
            -8 6 18 -4 30 hhcurveto
            65 hlineto
            -1 15 -17 25 -33 36 return
          </CharString>
          <CharString index="171">
            -20 -20 -23 -23 20 -19 return
          </CharString>
          <CharString index="172">
            11 -2 12 -2 12 -2 22 -6 17 -10 13 -14 rrcurveto
            19 -19 9 -27 -33 vvcurveto
            return
          </CharString>
          <CharString index="173">
            76 182 39 194 74 return
          </CharString>
          <CharString index="174">
            rmoveto
            -274 -39 274 hlineto
            endchar
          </CharString>
          <CharString index="175">
            -21 227 35 69 32 1 -20 hstemhm
            63 32 145 36 hintmask 11101100
            276 return
          </CharString>
          <CharString index="176">
            21 -21 39 -18 156 -29 29 return
          </CharString>
          <CharString index="177">
            113 -1 -44 -56 -32 -56 -19 -56 rlinecurve
            -14 -39 -11 -50 -7 -61 rrcurveto
            -1 14 0 28 1 vhcurveto
            5 113 44 111 85 107 rrcurveto
            return
          </CharString>
          <CharString index="178">
            hhcurveto
            -211 hlineto
            return
          </CharString>
          <CharString index="179">
            vlineto
            -173 118 callsubr
            -1 30 -1 104 178 vvcurveto
            return
          </CharString>
          <CharString index="180">
            rmoveto
            -45 -81 callsubr
            return
          </CharString>
          <CharString index="181">
            21 -21 21 -21 return
          </CharString>
          <CharString index="182">
            -185 vlineto
            -1 -61 -4 -42 -7 -24 rrcurveto
            87 hlineto
            -6 24 -3 43 -1 61 rrcurveto
            182 vlineto
            213 1 126 3 39 vhcurveto
            return
          </CharString>
          <CharString index="183">
            -20 -16 -16 -20 -20 16 -16 20 19 17 16 20 return
          </CharString>
          <CharString index="184">
            62 -62 104 472 67 return
          </CharString>
          <CharString index="185">
            vvcurveto
            81 0 45 1 9 vhcurveto
            -17 hlineto
            -8 -11 -9 -7 -11 -3 rrcurveto
            return
          </CharString>
          <CharString index="186">
            rmoveto
            -316 -50 316 hlineto
            endchar
          </CharString>
          <CharString index="187">
            86 vlineto
            -9 -21 return
          </CharString>
          <CharString index="188">
            101 callsubr
            vstem
            return
          </CharString>
          <CharString index="189">
            -35 -49 23 37 -31 hvcurveto
            endchar
          </CharString>
          <CharString index="190">
            -2 -53 -38 -1 -23 hhcurveto
            -30 -1 -39 1 -47 2 1 -13 0 -20 -1 -28 rrcurveto
            28 hlineto
            20 1 0 8 39 hhcurveto
            return
          </CharString>
          <CharString index="191">
            195 rmoveto
            60 -19 49 -39 37 vhcurveto
            37 -39 -47 19 -57 hhcurveto
            return
          </CharString>
          <CharString index="192">
            hstem
            141 callsubr
            vstem
            407 return
          </CharString>
          <CharString index="193">
            -17 30 -41 13 -65 48 callgsubr
            return
          </CharString>
          <CharString index="194">
            rcurveline
            73 1 46 -1 19 -3 return
          </CharString>
          <CharString index="195">
            54 129 50 112 return
          </CharString>
          <CharString index="196">
            -99 callsubr
            19 return
          </CharString>
          <CharString index="197">
            -20 hstem
            375 hmoveto
            -57 144 -50 132 -43 120 rrcurveto
            -57 hlineto
            -81 -223 -51 -132 -19 -41 rrcurveto
            return
          </CharString>
          <CharString index="198">
            rmoveto
            -66 -67 hlineto
            return
          </CharString>
          <CharString index="199">
            65 203 57 return
          </CharString>
          <CharString index="200">
            1 -6 0 -33 -61 vvcurveto
            -77 -2 -44 -4 return
          </CharString>
          <CharString index="201">
            -20 85 callsubr
            return
          </CharString>
          <CharString index="202">
            -13 -2 -47 -1 -79 1 return
          </CharString>
          <CharString index="203">
            -40 21 -21 115 56 return
          </CharString>
          <CharString index="204">
            23 -21 19 -17 15 -18 8 -21 3 17 2 16 8 15 13 rrcurveto
            19 17 9 21 27 vvcurveto
            67 return
          </CharString>
          <CharString index="205">
            -109 rmoveto
            -21 -11 9 19 20 18 28 37 33 hvcurveto
            return
          </CharString>
          <CharString index="206">
            36 301 35 hstem
            61 40 176 42 vstem
            319 return
          </CharString>
          <CharString index="207">
            7 25 rrcurveto
            -88 hlineto
            7 -25 3 return
          </CharString>
          <CharString index="208">
            56 205 92 callsubr
            return
          </CharString>
          <CharString index="209">
            -8 150 callgsubr
            return
          </CharString>
          <CharString index="210">
            -69 -2 -53 1 return
          </CharString>
          <CharString index="211">
            rmoveto
            25 -24 23 -25 -25 -22 -23 -25 -25 23 -22 24 25 24 23 24 vhcurveto
            -83 -122 rmoveto
            return
          </CharString>
          <CharString index="212">
            rcurveline
            11 -1 11 -1 12 1 134 callgsubr
          </CharString>
          <CharString index="213">
            85 -1 -20 hstemhm
            return
          </CharString>
          <CharString index="214">
            109 callgsubr
            -173 118 callsubr
            return
          </CharString>
          <CharString index="215">
            rlineto
            -7 hlineto
            -53 -5 -42 -22 -33 -37 -32 -37 -16 -44 -1 -52 -1 -93 51 -80 87 -24 return
          </CharString>
          <CharString index="216">
            hhcurveto
            57 47 14 callgsubr
            37 return
          </CharString>
          <CharString index="217">
            -112 -3 -65 -5 -18 vhcurveto
            74 hlineto
            return
          </CharString>
          <CharString index="218">
            -40 -35 -37 -20 -41 hhcurveto
            return
          </CharString>
          <CharString index="219">
            128 0 130 return
          </CharString>
          <CharString index="220">
            -23 19 -19 24 23 return
          </CharString>
          <CharString index="221">
            hhcurveto
            37 28 -12 -23 19 hvcurveto
            17 -21 8 -26 -32 vvcurveto
            -14 -2 -14 -3 -14 vhcurveto
            -11 return
          </CharString>
          <CharString index="222">
            7 -39 23 -29 41 rrcurveto
            -28 39 -14 44 51 vvcurveto
            59 16 49 32 39 vhcurveto
            41 return
          </CharString>
          <CharString index="223">
            -120 183 54 hstem
            271 237 rmoveto
            -228 -54 228 hlineto
            endchar
          </CharString>
          <CharString index="224">
            33 300 32 hstem
            214 39 vstem
            253 return
          </CharString>
          <CharString index="225">
            -2 -104 155 callgsubr
            return
          </CharString>
          <CharString index="226">
            14 -21 360 51 return
          </CharString>
          <CharString index="227">
            -7 53 597 -20 return
          </CharString>
          <CharString index="228">
            -30 -37 -16 -36 -3 -35 rrcurveto
            -53 -4 32 -36 55 hhcurveto
            47 30 33 40 hvcurveto
            return
          </CharString>
          <CharString index="229">
            -28 hlineto
            46 14 26 27 6 vhcurveto
            35 vlineto
            -53 -13 -26 -40 -66 vvcurveto
            endchar
          </CharString>
          <CharString index="230">
            -8 7 callgsubr
            return
          </CharString>
          <CharString index="231">
            -45 -21 304 60 203 59 return
          </CharString>
          <CharString index="232">
            -289 -39 289 hlineto
            return
          </CharString>
          <CharString index="233">
            212 192 rmoveto
            -236 -735 rlineto
            44 hlineto
            238 735 rlineto
            return
          </CharString>
          <CharString index="234">
            59 63 32 callgsubr
            38 64 79 40 -40 103 return
          </CharString>
          <CharString index="235">
            rmoveto
            125 callsubr
            -49 vmoveto
            125 callsubr
            endchar
          </CharString>
          <CharString index="236">
            -2 -181 rlineto
            49 hlineto
            18 177 rlineto
            return
          </CharString>
          <CharString index="237">
            49 34 callgsubr
            249 153 callsubr
            return
          </CharString>
          <CharString index="238">
            -21 623 -20 return
          </CharString>
          <CharString index="239">
            -33 147 callgsubr
            return
          </CharString>
          <CharString index="240">
            -35 -12 -23 -5 -11 3 rrcurveto
            -18 1 -34 2 -49 vhcurveto
            40 -1 return
          </CharString>
          <CharString index="241">
            152 callsubr
            hstem
            return
          </CharString>
          <CharString index="242">
            -159 -21 172 58 287 57 return
          </CharString>
          <CharString index="243">
            -1 84 0 56 1 28 rrcurveto
            return
          </CharString>
          <CharString index="244">
            27 1 40 -1 51 -3 rrcurveto
            return
          </CharString>
          <CharString index="245">
            hstem
            72 63 203 63 vstem
            return
          </CharString>
          <CharString index="246">
            5 6 2 10 1 14 rrcurveto
            return
          </CharString>
          <CharString index="247">
            -7 -3 hvcurveto
            20 hlineto
            -1 return
          </CharString>
          <CharString index="248">
            26 65 251 65 return
          </CharString>
          <CharString index="249">
            3 42 7 25 rrcurveto
            return
          </CharString>
          <CharString index="250">
            -21 391 -20 return
          </CharString>
          <CharString index="251">
            58 174 61 return
          </CharString>
          <CharString index="252">
            474 -21 190 -20 hstemhm
            12 118 -46 46 hintmask 11100000
            return
          </CharString>
          <CharString index="253">
            vlineto
            66 1 38 0 10 -1 18 -1 20 -4 22 -7 rrcurveto
            return
          </CharString>
          <CharString index="254">
            -51 vhcurveto
            -55 -43 -56 -27 -67 hhcurveto
            -67 -56 28 55 -43 hvcurveto
            return
          </CharString>
          <CharString index="255">
            -21 124 39 124 -20 hstem
            174 41 vstem
            339 return
          </CharString>
          <CharString index="256">
            66 352 64 return
          </CharString>
          <CharString index="257">
            hstemhm
            56 66 callgsubr
            return
          </CharString>
          <CharString index="258">
            hhcurveto
            55 45 20 41 37 hvcurveto
            35 39 18 47 56 vvcurveto
            return
          </CharString>
          <CharString index="259">
            52 callgsubr
            293 -20 return
          </CharString>
          <CharString index="260">
            -20 119 callgsubr
            return
          </CharString>
          <CharString index="261">
            -265 -21 180 return
          </CharString>
          <CharString index="262">
            -2 -65 -5 -17 vhcurveto
            return
          </CharString>
          <CharString index="263">
            71 439 72 return
          </CharString>
          <CharString index="264">
            653 73 callsubr
            return
          </CharString>
          <CharString index="265">
            -39 -12 -33 -23 -28 vhcurveto
            -28 -23 -30 -14 -37 hhcurveto
            return
          </CharString>
          <CharString index="266">
            63 1 39 3 14 vhcurveto
            6 30 15 16 25 2 return
          </CharString>
          <CharString index="267">
            0 60 -44 -21 210 61 29 60 207 64 return
          </CharString>
          <CharString index="268">
            67 hlineto
            -1 30 -1 105 179 vvcurveto
            26 vlineto
            -1 return
          </CharString>
          <CharString index="269">
            hstem
            50 60 199 66 vstem
            375 189 rmoveto
            return
          </CharString>
          <CharString index="270">
            391 rmoveto
            -11 -7 -18 return
          </CharString>
          <CharString index="271">
            119 183 callgsubr
            return
          </CharString>
          <CharString index="272">
            -70 -16 57 306 55 return
          </CharString>
          <CharString index="273">
            -113 -2 -65 return
          </CharString>
          <CharString index="274">
            61 callsubr
            63 172 return
          </CharString>
          <CharString index="275">
            rrcurveto
            67 hlineto
            -1 31 -1 113 196 vvcurveto
            return
          </CharString>
          <CharString index="276">
            -7 53 273 36 0 33 195 50 hstemhm
            return
          </CharString>
          <CharString index="277">
            -18 60 343 62 124 56 1 -20 hstemhm
            return
          </CharString>
          <CharString index="278">
            -21 -24 -19 -21 -21 113 callsubr
            19 return
          </CharString>
          <CharString index="279">
            hstem
            188 36 vstem
            260 return
          </CharString>
          <CharString index="280">
            -80 169 175 0 57 return
          </CharString>
          <CharString index="281">
            rmoveto
            -138 -43 138 hlineto
            return
          </CharString>
          <CharString index="282">
            233 120 callsubr
            return
          </CharString>
          <CharString index="283">
            33 3 38 -19 43 -43 rrcurveto
            return
          </CharString>
          <CharString index="284">
            -186 643 -20 return
          </CharString>
          <CharString index="285">
            -9 58 528 57 return
          </CharString>
          <CharString index="286">
            hlineto
            -4 15 -2 31 return
          </CharString>
          <CharString index="287">
            149 callsubr
            vstem
            return
          </CharString>
          <CharString index="288">
            21 -21 344 51 return
          </CharString>
          <CharString index="289">
            -20 59 -20 hstemhm
            return
          </CharString>
          <CharString index="290">
            hstemhm
            49 59 -59 return
          </CharString>
          <CharString index="291">
            66 -34 60 217 60 -32 65 hintmask 11011001
            return
          </CharString>
          <CharString index="292">
            -8 113 callgsubr
            -211 hlineto
            -1 return
          </CharString>
          <CharString index="293">
            -1 -3 3 hvcurveto
            3 -5 1 -4 -2 vvcurveto
            return
          </CharString>
          <CharString index="294">
            229 126 callgsubr
            38 56 return
          </CharString>
          <CharString index="295">
            202 -12 67 return
          </CharString>
          <CharString index="296">
            0 130 4 return
          </CharString>
        <CharString name=".notdef">
          0 63 575 62 hstem
          63 62 250 63 vstem
          438 hmoveto
          700 -375 -700 vlineto
          62 638 rmoveto
          250 -575 -250 hlineto
          endchar
        </CharString>
        <CharString name="A">
          -15 callgsubr
          hstem
          592 hmoveto
          -73 callsubr
        </CharString>
        <CharString name="AE">
          494 160 callsubr
          hstemhm
          478 75 hintmask 01111100
          885 -5 rmoveto
          -60 callgsubr
          hintmask 10111100
          -12 callgsubr
          hintmask 01111100
          53 1 68 -2 85 -4 rrcurveto
          -407 271 rmoveto
          -190 hlineto
          190 270 rlineto
          endchar
        </CharString>
        <CharString name="AEacute">
          447 160 callsubr
          247 -20 hstemhm
          492 75 hintmask 01111110
          899 -5 rmoveto
          -60 callgsubr
          hintmask 10111110
          -12 callgsubr
          hintmask 01111110
          53 1 68 -2 85 -4 rrcurveto
          -407 271 rmoveto
          -190 hlineto
          190 270 rlineto
          67 337 -41 callsubr
        </CharString>
        <CharString name="AEsmall">
          148 callgsubr
          1 -20 hstemhm
          309 60 -60 216 hintmask 10111010
          304 -3 rmoveto
          65 2 48 1 31 62 callgsubr
          -47 callgsubr
          hintmask 10111001
          85 1 52 -2 19 -6 rrcurveto
          66 vlineto
          hintmask 10111010
          -6 -13 -52 -3 -91 hhcurveto
          112 113 vlineto
          24 13 -2 -3 3 hvcurveto
          3 -7 2 -5 -3 vvcurveto
          40 hlineto
          -2 31 0 24 2 17 -57 -3 -45 -1 -33 1 rrcurveto
          hintmask 01110110
          81 callgsubr
          hintmask 10111010
          159 callgsubr
          endchar
        </CharString>
        <CharString name="Aacute">
          180 -34 callsubr
          260 -20 hstem
          587 -105 callgsubr
          -74 607 -41 callsubr
        </CharString>
        <CharString name="Aacutesmall">
          -45 21 -21 115 56 448 131 callgsubr
          93 -599 rmoveto
          -82 callsubr
          endchar
        </CharString>
        <CharString name="Abreve">
          -15 callgsubr
          74 36 86 -20 hstem
          592 -105 callgsubr
          32 543 -89 callgsubr
          endchar
        </CharString>
        <CharString name="Abreveacute">
          -15 callgsubr
          77 36 236 -20 hstem
          592 -105 callgsubr
          31 546 -89 callgsubr
          -153 169 -41 callsubr
        </CharString>
        <CharString name="Abrevedotbelow">
          187 -213 106 128 -31 callsubr
          74 36 86 -20 hstem
          261 106 vstem
          592 -105 callgsubr
          -44 -426 -76 callsubr
          75 969 -89 callgsubr
          endchar
        </CharString>
        <CharString name="Abrevegrave">
          -15 callgsubr
          54 36 234 -20 hstem
          592 -105 callgsubr
          -113 671 rmoveto
          -68 -83 callsubr
          100 26 -89 callgsubr
          endchar
        </CharString>
        <CharString name="Abrevehookabove">
          -15 callgsubr
          72 36 225 -20 hstem
          346 42 vstem
          592 -105 callgsubr
          -23 614 -106 callsubr
          54 -73 -89 callgsubr
          endchar
        </CharString>
        <CharString name="Abrevetilde">
          -15 callgsubr
          74 36 104 53 79 -20 hstem
          592 -105 callgsubr
          54 664 -103 callgsubr
          -23 -116 -89 callgsubr
          endchar
        </CharString>
        <CharString name="Acircumflex">
          180 -34 callsubr
          240 -20 hstem
          491 729 -99 callsubr
          139 -688 rmoveto
          -73 callsubr
        </CharString>
        <CharString name="Acircumflexacute">
          -15 callgsubr
          260 -20 hstem
          494 728 -99 callsubr
          112 186 rmoveto
          -56 -170 51 -16 80 161 rlineto
          -46 -848 rmoveto
          -73 callsubr
        </CharString>
        <CharString name="Acircumflexdotbelow">
          187 -222 106 137 -31 callsubr
          240 -20 hstem
          258 106 vstem
          491 729 -99 callsubr
          -84 -857 -76 callsubr
          228 169 rmoveto
          -73 callsubr
        </CharString>
        <CharString name="Acircumflexgrave">
          -15 callgsubr
          259 -20 hstem
          500 727 44 callgsubr
          12 112 rmoveto
          60 callsubr
          2 -872 rmoveto
          -62 callgsubr
          endchar
        </CharString>
        <CharString name="Acircumflexhookabove">
          -15 callgsubr
          239 -20 hstem
          591 42 vstem
          488 728 -99 callsubr
          188 87 -106 callsubr
          -41 -774 rmoveto
          -73 callsubr
        </CharString>
        <CharString name="Acircumflexsmall">
          96 callsubr
          427 -20 26 callgsubr
          85 333 -63 callgsubr
        </CharString>
        <CharString name="Acircumflextilde">
          -15 callgsubr
          243 53 79 -20 hstem
          486 726 89 callsubr
          274 -103 callgsubr
          130 -954 rmoveto
          -73 callsubr
        </CharString>
        <CharString name="Acute">
          -100 708 -21 186 -20 hstem
          167 873 -41 callsubr
        </CharString>
        <CharString name="Acutesmall">
          -45 478 -21 162 131 callgsubr
          endchar
        </CharString>
        <CharString name="Adieresis">
          -15 callgsubr
          75 106 callsubr
          177 85 92 84 hintmask 11110110
          592 -105 callgsubr
          27 464 -82 callgsubr
          hmoveto
          hintmask 11101110
          -25 callsubr
          hintmask 11110110
          -39 callsubr
          endchar
        </CharString>
        <CharString name="Adieresissmall">
          96 callsubr
          297 106 callsubr
          64 85 92 84 hintmask 11101100
          -41 callgsubr
          78 339 -82 callgsubr
          hmoveto
          hintmask 11011100
          -25 callsubr
          hintmask 11101100
          -39 callsubr
          endchar
        </CharString>
        <CharString name="Adotbelow">
          187 -220 106 135 -31 callsubr
          hstem
          250 106 vstem
          592 -105 callgsubr
          -55 -433 -76 callsubr
          endchar
        </CharString>
        <CharString name="Agrave">
          -15 callgsubr
          245 -20 hstem
          592 -105 callgsubr
          -118 592 -23 callgsubr
        </CharString>
        <CharString name="Agravesmall">
          96 callsubr
          448 21 callgsubr
          -24 428 29 callgsubr
        </CharString>
        <CharString name="Ahookabove">
          -15 callgsubr
          264 -20 hstem
          341 42 vstem
          592 -105 callgsubr
          -28 545 -106 callsubr
          endchar
        </CharString>
        <CharString name="Alpha">
          -15 callgsubr
          hstem
          592 hmoveto
          -73 callsubr
        </CharString>
        <CharString name="Alphatonos">
          180 102 callgsubr
          387 -20 hstem
          63 157 callsubr
          453 -630 rmoveto
          7 callsubr
          73 hlineto
          7 31 24 68 41 106 rrcurveto
          255 hlineto
          39 -109 23 -69 6 -27 rrcurveto
          -301 266 rmoveto
          59 154 37 100 15 47 27 -89 34 -101 40 -111 rrcurveto
          endchar
        </CharString>
        <CharString name="Amacron">
          -15 callgsubr
          68 50 hstem
          592 -105 callgsubr
          60 465 79 callsubr
        </CharString>
        <CharString name="Aogonek">
          219 -221 63 179 -31 callsubr
          hstem
          434 57 vstem
          602 -136 -5 callgsubr
          22 40 22 32 21 25 rrcurveto
          30 hlineto
          -52 callsubr
          -32 84 -37 98 -41 113 rrcurveto
          -71 hlineto
          -133 -357 -83 -211 -33 -65 rrcurveto
          80 hlineto
          6 27 24 68 43 110 rrcurveto
          251 hlineto
          39 -107 22 -66 6 -25 -41 -45 -22 -47 -2 -49 0 callsubr
          -422 462 rmoveto
          55 144 37 100 18 57 29 -95 33 -101 37 -105 rrcurveto
          endchar
        </CharString>
        <CharString name="Aring">
          -15 callgsubr
          75 34 116 34 hstem
          213 34 116 34 vstem
          397 780 15 callgsubr
          229 -780 rmoveto
          -73 callsubr
        </CharString>
        <CharString name="Aringacute">
          180 882 61 callgsubr
          344 1051 73 callsubr
          endchar
        </CharString>
        <CharString name="Aringsmall">
          96 callsubr
          291 31 74 31 hstem
          130 31 73 31 vstem
          -41 callgsubr
          18 359 12 callgsubr
        </CharString>
        <CharString name="Asmall">
          96 callsubr
          225 -20 26 callgsubr
          endchar
        </CharString>
        <CharString name="Atilde">
          -15 callgsubr
          72 53 79 -20 hstem
          592 -105 callgsubr
          43 522 -103 callgsubr
          endchar
        </CharString>
        <CharString name="Atildesmall">
          96 callsubr
          hstem
          316 -72 callsubr
          61 -520 rmoveto
          -82 callsubr
          endchar
        </CharString>
        <CharString name="B">
          -38 callgsubr
        </CharString>
        <CharString name="Beta">
          -38 callgsubr
        </CharString>
        <CharString name="Breve">
          -100 759 64 94 -20 hstem
          312 917 rmoveto
          -26 hlineto
          -63 -12 -38 -31 -65 hhcurveto
          -70 -41 31 63 -13 hvcurveto
          -26 hlineto
          -2 -3 rlineto
          -93 58 -62 92 51 39 19 39 26 vhcurveto
          19 29 10 33 35 vvcurveto
          endchar
        </CharString>
        <CharString name="Brevesmall">
          466 39 62 -20 hstem
          371 538 -35 callsubr
        </CharString>
        <CharString name="Bsmall">
          -65 0 49 129 48 119 46 hstem
          61 57 160 60 vstem
          349 106 rmoveto
          1 29 -11 97 callsubr
          -40 33 -81 vhcurveto
          -164 hlineto
          5 -17 3 -66 -115 vvcurveto
          -111 -3 -64 -5 -18 vhcurveto
          165 hlineto
          32 28 7 13 23 hvcurveto
          31 19 16 28 1 39 rrcurveto
          -71 181 rmoveto
          -41 -22 -20 -44 vhcurveto
          -94 119 94 hlineto
          13 12 -3 -5 11 162 callgsubr
          1 -24 -21 -48 hhcurveto
          -97 129 91 hlineto
          40 37 -28 -39 hvcurveto
          endchar
        </CharString>
        <CharString name="C">
          80 -10 59 526 59 hstem
          40 69 vstem
          428 106 rmoveto
          22 callsubr
          -65 -54 27 54 -43 hvcurveto
          -39 50 -20 59 68 -76 callgsubr
          endchar
        </CharString>
        <CharString name="Cacute">
          100 -10 59 526 59 239 -20 hstem
          44 69 vstem
          432 106 rmoveto
          22 callsubr
          -65 -54 27 54 -43 hvcurveto
          -39 50 -20 59 68 -76 callgsubr
          -150 767 -41 callsubr
        </CharString>
        <CharString name="Caron">
          -100 709 -21 165 -20 hstem
          354 812 -48 callgsubr
        </CharString>
        <CharString name="Caronsmall">
          485 -21 131 -20 hstem
          317 553 -57 callsubr
        </CharString>
        <CharString name="Ccaron">
          100 -10 59 526 59 219 -20 hstem
          44 69 vstem
          479 106 rmoveto
          -5 -45 -2 -31 -17 vvcurveto
          -5 1 -18 -4 -29 -7 rrcurveto
          -9 -33 -32 -4 -31 hhcurveto
          -83 -68 33 66 -53 hvcurveto
          -51 62 -25 73 84 vvcurveto
          92 24 76 48 60 vhcurveto
          65 52 70 33 89 hhcurveto
          29 29 -4 -7 29 hvcurveto
          30 -7 17 -3 5 1 rrcurveto
          -17 3 -32 5 -46 vhcurveto
          -47 hlineto
          -1 9 -4 12 -7 14 -17 15 -30 7 -44 -1 -67 -2 -52 -28 -39 -54 rrcurveto
          -35 -50 -18 -61 -73 vvcurveto
          -68 20 -59 39 -50 vhcurveto
          -54 43 54 -27 65 hhcurveto
          40 27 7 15 15 hvcurveto
          7 7 5 11 4 17 rrcurveto
          49 706 -48 callgsubr
        </CharString>
        <CharString name="Ccedilla">
          88 -12 59 -35 -21 595 58 hstemhm
          40 70 hintmask 10110000
          357 -133 rmoveto
          6 13 3 12 13 vvcurveto
          29 -14 22 -28 15 vhcurveto
          10 17 54 4 21 5 14 3 rlinecurve
          30 8 18 4 6 -1 rrcurveto
          17 2 32 4 46 vhcurveto
          -48 hlineto
          -4 -17 -5 -12 -7 -7 rrcurveto
          -15 -15 -28 -8 -40 hhcurveto
          -67 -56 28 55 -43 hvcurveto
          -40 51 177 callgsubr
          37 52 vhcurveto
          41 55 53 29 66 3 44 2 31 -7 17 -16 7 -15 5 -13 1 -9 rrcurveto
          48 hlineto
          -6 45 -3 31 18 vvcurveto
          -5 -1 -17 3 -31 8 rrcurveto
          8 -35 -30 4 -23 hhcurveto
          -91 -72 -33 -67 -53 hvcurveto
          -49 -61 -24 -78 -93 vvcurveto
          -79 21 -70 43 -59 vhcurveto
          hintmask 01110000
          45 -62 60 -38 73 -13 rrcurveto
          1 hlineto
          -14 -27 -6 -13 2 1 35 -10 15 -17 -3 -23 rrcurveto
          -19 -3 -11 -9 -19 hhcurveto
          -9 -9 2 4 -9 hvcurveto
          -25 -40 8 -7 15 -5 23 -2 rlinecurve
          41 -3 28 14 15 30 rrcurveto
          endchar
        </CharString>
        <CharString name="Ccedillasmall">
          -90 -191 236 299 57 hstem
          19 65 142 44 vstem
          276 83 rmoveto
          -3 -11 -3 -7 -5 -5 -9 -9 -18 -5 -26 -1 -35 -1 -31 14 -25 28 rrcurveto
          -25 29 -12 35 41 vvcurveto
          43 12 35 23 29 vhcurveto
          23 29 29 16 34 1 28 1 20 -5 12 -11 4 -9 3 -8 1 -6 rrcurveto
          39 hlineto
          -5 41 -2 27 11 vvcurveto
          -6 -1 -14 2 -23 5 rrcurveto
          7 -28 -19 3 -9 hhcurveto
          -59 -46 -21 -41 -34 182 callgsubr
          -49 -59 vvcurveto
          -45 11 -40 22 -36 vhcurveto
          24 -39 33 -26 41 -13 -7 -11 -5 -7 -2 -5 rrcurveto
          -37 vlineto
          31 3 23 -3 16 -9 rrcurveto
          13 -8 7 -13 -18 vvcurveto
          -17 180 callgsubr
          -17 -10 -23 -4 -31 2 rrcurveto
          -27 vlineto
          -1 9 9 0 9 hhcurveto
          40 29 10 21 17 hvcurveto
          13 17 7 18 21 vvcurveto
          15 -4 15 -9 15 vhcurveto
          -12 21 -23 11 -33 3 -1 3 0 3 3 4 25 -1 25 2 24 7 21 5 15 3 8 -1 rrcurveto
          11 2 27 5 44 vhcurveto
          endchar
        </CharString>
        <CharString name="Ccircumflex">
          80 -10 59 526 59 219 -20 hstem
          40 69 vstem
          496 729 -99 callsubr
          -25 -582 rmoveto
          22 callsubr
          -65 -54 27 54 -43 hvcurveto
          -39 50 -20 59 68 -76 callgsubr
          endchar
        </CharString>
        <CharString name="Cdotaccent">
          100 -8 59 526 59 52 110 hstem
          43 69 151 110 vstem
          431 108 rmoveto
          22 callsubr
          -65 -54 27 54 -43 hvcurveto
          -39 50 -20 59 68 -76 callgsubr
          -105 635 -5 callsubr
        </CharString>
        <CharString name="Cedilla">
          -25 callgsubr
        </CharString>
        <CharString name="Cedillasmall">
          106 -196 167 hstemhm
          282 136 -45 45 hintmask 11000000
          282 -29 rmoveto
          -46 vlineto
          hintmask 10100000
          -1 callgsubr
          -1 9 9 0 9 hhcurveto
          41 28 10 21 17 hvcurveto
          13 17 7 18 20 vvcurveto
          32 -14 35 -51 13 vhcurveto
          endchar
        </CharString>
        <CharString name="Chi">
          -9 callgsubr
        </CharString>
        <CharString name="Circumflexsmall">
          485 -21 134 -20 hstem
          381 504 rmoveto
          0 -43 31 -87 63 vhcurveto
          -133 -93 32 -41 27 19 33 23 41 28 rlinecurve
          37 -28 31 -22 24 -17 38 37 rcurveline
          endchar
        </CharString>
        <CharString name="Commaaccentsmall">
          -242 154 callgsubr
          -20 hstemhm
          26 66 vstemhm
          92 -102 91 callsubr
          hintmask 11100000
          -75 callgsubr
        </CharString>
        <CharString name="Csmall">
          -100 344 57 hstem
          19 65 vstem
          276 83 rmoveto
          -3 -11 -3 -7 -4 -5 -10 -9 -18 -5 -25 -1 -36 -1 -31 14 -25 28 rrcurveto
          -25 29 -12 35 41 vvcurveto
          43 12 35 23 29 vhcurveto
          23 29 29 16 35 1 28 1 20 -5 11 -11 5 -9 2 -8 1 -6 rrcurveto
          40 hlineto
          -5 41 -3 27 11 vvcurveto
          -5 -1 -14 2 -23 5 rrcurveto
          7 -28 -19 3 -10 hhcurveto
          -58 -46 -21 -41 -35 49 callgsubr
          48 -7 29 -4 29 2 31 9 21 5 15 3 8 -1 rrcurveto
          11 2 27 4 44 vhcurveto
          endchar
        </CharString>
        <CharString name="D">
          177 0 65 486 70 hstem
          92 68 336 74 vstem
          570 303 rmoveto
          97 -25 77 -50 56 vhcurveto
          59 -53 -74 29 -97 hhcurveto
          -191 hlineto
          7 -25 3 -31 1 -37 rrcurveto
          1 -37 0 -72 -107 vvcurveto
          -126 -1 -79 -2 -32 vhcurveto
          -1 -32 -3 -25 -5 -18 rrcurveto
          184 hlineto
          89 73 28 57 57 hvcurveto
          58 57 29 72 89 vvcurveto
          -74 hmoveto
          -69 -22 -57 -43 -45 vhcurveto
          -45 -43 -56 -22 -69 hhcurveto
          -103 hlineto
          -2 117 -1 86 53 vvcurveto
          25 0 39 1 51 vhcurveto
          115 107 vlineto
          154 77 -83 -165 hvcurveto
          endchar
        </CharString>
        <CharString name="Dcaron">
          177 0 65 486 70 232 -20 hstem
          51 66 338 74 vstem
          529 303 rmoveto
          -89 -29 -72 -58 -57 vhcurveto
          -57 -57 -73 -28 -89 hhcurveto
          -184 hlineto
          5 18 3 25 1 32 rrcurveto
          2 32 1 79 126 vvcurveto
          107 0 72 -1 37 vhcurveto
          -1 37 -3 31 -7 25 rrcurveto
          191 hlineto
          97 74 -29 -59 53 hvcurveto
          50 -56 25 -77 -97 vvcurveto
          -74 hmoveto
          165 -77 83 -154 vhcurveto
          -107 -115 hlineto
          -1 -51 0 -39 -25 vvcurveto
          -53 1 -86 2 -117 vhcurveto
          103 hlineto
          69 56 22 45 43 hvcurveto
          43 45 22 57 69 vvcurveto
          -52 509 -48 callgsubr
        </CharString>
        <CharString name="Delta">
          19 callgsubr
        </CharString>
        <CharString name="Dieresis">
          -148 688 106 callsubr
          12 85 92 84 hintmask 10110000
          273 730 -82 callgsubr
          hmoveto
          hintmask 01110000
          -25 callsubr
          hintmask 10110000
          -39 callsubr
          endchar
        </CharString>
        <CharString name="Dieresissmall">
          468 106 callsubr
          113 85 92 84 hintmask 10110000
          374 510 -82 callgsubr
          hmoveto
          hintmask 01110000
          -25 callsubr
          hintmask 10110000
          -39 callsubr
          endchar
        </CharString>
        <CharString name="Dmacron">
          -22 callgsubr
        </CharString>
        <CharString name="Dotaccent">
          -100 688 110 hstem
          112 110 vstem
          222 743 -5 callsubr
        </CharString>
        <CharString name="Dotaccentsmall">
          463 93 hstem
          93 94 vstem
          187 509 4 callsubr
        </CharString>
        <CharString name="Dsmall">
          -33 0 53 281 55 162 callsubr
          59 -15 48 -31 35 vhcurveto
          39 -34 -49 19 -65 hhcurveto
          -138 hlineto
          5 -17 2 -41 -66 vvcurveto
          -140 vlineto
          -64 -2 -42 -5 -19 vhcurveto
          133 hlineto
          61 48 18 35 36 hvcurveto
          36 36 18 45 55 vvcurveto
          -66 hmoveto
          -80 -54 -56 -80 vhcurveto
          -64 hlineto
          -1 67 rlineto
          -1 25 0 25 24 vvcurveto
          1 52 rlineto
          16 vlineto
          20 vlineto
          24 vlineto
          28 67 vlineto
          42 32 -12 -23 21 hvcurveto
          25 -27 12 -36 -47 vvcurveto
          endchar
        </CharString>
        <CharString name="E">
          95 -6 30 callsubr
          1 -20 hstemhm
          90 66 hintmask 11101000
          488 -5 rmoveto
          -59 callsubr
          -1 85 0 79 1 74 135 2 84 -4 31 -10 rrcurveto
          80 callsubr
          -83 -5 -146 hhcurveto
          -1 73 0 68 1 62 rrcurveto
          185 hlineto
          39 22 -2 -5 3 hvcurveto
          4 -4 152 callgsubr
          -3 41 0 32 3 23 18 callsubr
          rrcurveto
          hintmask 11011000
          -72 1 -59 2 -45 3 rrcurveto
          7 -23 3 -101 -178 vvcurveto
          -197 -3 -110 78 callgsubr
          endchar
        </CharString>
        <CharString name="Eacute">
          95 -6 30 callsubr
          248 -20 hstem
          90 66 vstem
          488 -5 -106 callgsubr
          93 3 68 2 41 1 53 1 68 -2 85 -4 rrcurveto
          -218 878 -41 callsubr
        </CharString>
        <CharString name="Eacutesmall">
          53 callsubr
          52 225 118 callgsubr
          hintmask 11111000
          322 -3 rmoveto
          -47 callgsubr
          hintmask 11110100
          50 callsubr
          hintmask 11111000
          -64 callsubr
          -131 622 -14 callgsubr
        </CharString>
        <CharString name="Ebreve">
          92 -6 30 callsubr
          64 36 86 -20 hstem
          87 66 vstem
          485 -5 -106 callgsubr
          93 3 68 2 41 1 53 1 68 -2 85 -4 rrcurveto
          -80 816 -89 callgsubr
          endchar
        </CharString>
        <CharString name="Ecaron">
          92 -5 65 124 callsubr
          233 -20 hstemhm
          87 66 hintmask 10111100
          485 -5 rmoveto
          -85 4 -68 2 -53 -1 rrcurveto
          hintmask 01111100
          -41 -1 -68 -2 -93 -3 rrcurveto
          -70 callgsubr
          hintmask 10111100
          -18 callsubr
          -42 817 -48 callgsubr
        </CharString>
        <CharString name="Ecircumflex">
          92 -1 30 callsubr
          223 -20 hstem
          87 66 vstem
          456 729 rmoveto
          -59 42 -60 41 -60 41 -177 -124 rcurveline
          37 -39 rlineto
          69 91 46 35 1 hhcurveto
          138 -106 rlineto
          72 -688 rmoveto
          -2 23 0 36 2 49 rrcurveto
          -49 hlineto
          -1 -15 -3 106 callgsubr
          -8 -5 -21 -4 -37 71 callsubr
          -1 84 0 79 1 75 135 2 84 -4 31 -10 rrcurveto
          80 callsubr
          -83 -5 -146 hhcurveto
          -1 73 0 67 1 63 rrcurveto
          185 hlineto
          39 22 -2 -5 3 hvcurveto
          4 -4 2 -3 -2 vvcurveto
          1 -2 0 -5 1 -9 rrcurveto
          50 hlineto
          -3 40 0 32 3 24 -85 -5 -69 -1 -53 1 -72 1 -59 2 -45 3 rrcurveto
          7 -24 3 -101 -177 vvcurveto
          -197 -3 -110 78 callgsubr
          endchar
        </CharString>
        <CharString name="Ecircumflexacute">
          95 -6 30 callsubr
          259 -20 hstem
          90 66 vstem
          452 725 -99 callsubr
          123 200 73 callsubr
          -111 -866 -106 callgsubr
          93 3 68 2 41 1 53 1 68 -2 85 -4 rrcurveto
          endchar
        </CharString>
        <CharString name="Ecircumflexdotbelow">
          95 -221 106 109 30 callsubr
          226 -20 hstem
          90 66 85 106 vstem
          456 11 callgsubr
          -66 -854 -76 callsubr
          141 163 -106 callgsubr
          93 3 68 2 41 1 53 1 68 -2 85 -4 rrcurveto
          endchar
        </CharString>
        <CharString name="Ecircumflexgrave">
          95 -5 65 124 callsubr
          250 -20 hstemhm
          90 66 hintmask 10111100
          441 728 44 callgsubr
          -17 109 rmoveto
          60 callsubr
          -14 -875 rmoveto
          -85 4 -68 2 -53 -1 rrcurveto
          hintmask 01111100
          -41 -1 -68 -2 -93 -3 rrcurveto
          -70 callgsubr
          hintmask 10111100
          -18 callsubr
          endchar
        </CharString>
        <CharString name="Ecircumflexhookabove">
          95 -6 30 callsubr
          253 -20 hstem
          90 66 413 42 vstem
          452 11 callgsubr
          202 126 -106 callsubr
          -123 -817 -106 callgsubr
          93 3 68 2 41 1 53 1 68 -2 85 -4 rrcurveto
          endchar
        </CharString>
        <CharString name="Ecircumflexsmall">
          53 callsubr
          52 204 118 callgsubr
          hintmask 11111000
          322 -3 rmoveto
          -47 callgsubr
          hintmask 11110100
          50 callsubr
          hintmask 11111000
          -64 callsubr
          -13 507 -63 callgsubr
        </CharString>
        <CharString name="Ecircumflextilde">
          95 -6 30 callsubr
          236 53 79 -20 hstem
          90 66 vstem
          448 728 89 callsubr
          277 -103 callgsubr
          64 -964 -106 callgsubr
          93 3 68 2 41 1 53 1 68 -2 85 -4 rrcurveto
          endchar
        </CharString>
        <CharString name="Edieresis">
          92 1 30 callsubr
          56 106 callsubr
          88 66 -7 85 92 80 hintmask 11110101
          486 2 -106 callgsubr
          93 3 68 2 41 1 53 1 68 -2 85 -4 rrcurveto
          -78 728 rmoveto
          23 -20 20 -21 -24 -19 -20 -23 -23 19 -19 24 57 callsubr
          hintmask 11101011
          -176 hmoveto
          -25 callsubr
          hintmask 11110011
          -39 callsubr
          endchar
        </CharString>
        <CharString name="Edieresissmall">
          53 callsubr
          52 74 85 -1 -20 183 callsubr
          82 -82 216 -42 83 hintmask 1111010010000000
          322 -3 rmoveto
          -47 callgsubr
          hintmask 1111000100000000
          50 callsubr
          hintmask 1111010010000000
          -64 callsubr
          -15 513 rmoveto
          23 -20 20 -21 -24 -19 -20 -23 -23 19 -19 24 57 callsubr
          hintmask 1110101010000000
          -176 hmoveto
          -25 callsubr
          hintmask 1111001010000000
          -39 callsubr
          endchar
        </CharString>
        <CharString name="Edotaccent">
          92 -3 30 callsubr
          60 110 hstem
          87 66 60 110 vstem
          485 -2 -106 callgsubr
          93 3 68 2 41 1 53 1 68 -2 85 -4 rrcurveto
          -162 745 -5 callsubr
        </CharString>
        <CharString name="Edotbelow">
          92 -220 106 114 30 callsubr
          1 -20 hstemhm
          89 66 78 106 hintmask 11110110
          487 1 rmoveto
          -59 callsubr
          -1 85 0 79 1 74 135 2 84 -4 31 -10 rrcurveto
          80 callsubr
          -83 -5 -146 hhcurveto
          -1 73 0 68 1 62 rrcurveto
          185 hlineto
          39 22 -2 -5 3 hvcurveto
          4 -4 152 callgsubr
          -3 41 0 32 3 23 18 callsubr
          rrcurveto
          hintmask 11101110
          -72 1 -59 2 -45 3 rrcurveto
          7 -23 3 -101 -178 vvcurveto
          -197 -3 -110 78 callgsubr
          -148 -168 -76 callsubr
          endchar
        </CharString>
        <CharString name="Egrave">
          92 -6 30 callsubr
          232 -20 hstem
          87 66 vstem
          485 -5 -106 callgsubr
          93 3 68 2 41 1 53 1 68 -2 85 -4 rrcurveto
          -222 862 -23 callgsubr
        </CharString>
        <CharString name="Egravesmall">
          53 callsubr
          49 228 118 callgsubr
          hintmask 11111000
          -26 callsubr
          hintmask 11110100
          91 53 3 6 13 hvcurveto
          -66 vlineto
          hintmask 11111000
          39 callsubr
          -2 -37 0 -27 2 -17 rrcurveto
          -204 602 29 callgsubr
        </CharString>
        <CharString name="Ehookabove">
          92 -2 30 callsubr
          250 -20 hstem
          89 66 156 42 vstem
          487 -1 -106 callgsubr
          93 3 68 2 41 1 53 1 68 -2 85 -4 rrcurveto
          -134 814 -106 callsubr
          endchar
        </CharString>
        <CharString name="Emacron">
          92 -6 30 callsubr
          59 50 hstem
          87 66 vstem
          485 -5 -106 callgsubr
          93 3 68 2 41 1 53 1 68 -2 85 -4 rrcurveto
          -60 739 79 callsubr
        </CharString>
        <CharString name="Eng">
          194 -179 53 147 -21 626 -20 21 -20 hstemhm
          83 52 375 58 hintmask 11101100
          499 626 rmoveto
          7 -25 4 -43 1 -62 rrcurveto
          -1 25 0 -62 -148 vvcurveto
          -227 vlineto
          -17 41 -63 103 -111 165 rrcurveto
          hintmask 11011100
          -49 73 -54 78 -59 83 rrcurveto
          hintmask 11101100
          -1 -31 0 -63 vhcurveto
          10 -19 6 -42 3 -63 rrcurveto
          1 -25 0 -63 -102 vvcurveto
          141 callgsubr
          -3 -42 -7 -25 rrcurveto
          74 hlineto
          -7 24 -3 43 -1 62 rrcurveto
          181 vlineto
          259 vlineto
          22 -40 69 -107 116 -173 49 -73 56 -83 63 -93 rrcurveto
          -63 -30 -41 -61 -19 vhcurveto
          -2 -7 -8 -1 -8 hhcurveto
          -26 -29 15 29 -32 hvcurveto
          -20 -67 rlineto
          -20 23 33 -10 42 hhcurveto
          22 22 3 7 22 hvcurveto
          39 12 29 24 20 36 rrcurveto
          18 31 9 38 43 vvcurveto
          295 vlineto
          161 0 62 -1 -37 vhcurveto
          1 62 3 43 7 25 rrcurveto
          endchar
        </CharString>
        <CharString name="Engalt">
          110 -201 -21 243 -21 559 54 hstem
          52 59 316 59 vstem
          46 602 rmoveto
          6 -47 2 -97 -2 -146 rrcurveto
          -139 -1 -104 -3 -69 vhcurveto
          65 hlineto
          -4 -1 42 -1 89 vhcurveto
          -1 89 -1 65 40 vvcurveto
          99 0 57 1 17 vhcurveto
          43 39 47 22 55 hhcurveto
          59 45 -20 -39 31 hvcurveto
          28 -36 14 -49 -61 vvcurveto
          -1 -287 -1 -120 -1 -65 -2 -9 rlinecurve
          35 callsubr
          16 -6 8 -5 rrcurveto
          -1 6 8 -1 9 hhcurveto
          45 30 18 37 17 hvcurveto
          9 19 5 28 1 39 rrcurveto
          1 15 0 49 85 vvcurveto
          1 274 rlineto
          181 -79 90 -159 -49 -45 -16 -32 -43 vhcurveto
          1 23 1 12 2 vvcurveto
          endchar
        </CharString>
        <CharString name="Eogonek">
          95 -221 63 158 60 238 60 209 64 1 -20 hstemhm
          90 66 56 57 hintmask 11110110
          380 -136 -5 callgsubr
          22 40 22 32 21 25 74 -2 49 -2 25 -1 -59 callsubr
          -1 85 0 79 1 74 135 2 84 -4 31 -10 rrcurveto
          80 callsubr
          -83 -5 -146 hhcurveto
          -1 73 0 70 1 66 rrcurveto
          185 hlineto
          39 22 -2 -5 3 hvcurveto
          4 -4 152 callgsubr
          -3 41 0 32 3 23 18 callsubr
          rrcurveto
          hintmask 11101110
          -72 1 -59 2 -45 3 rrcurveto
          7 -23 3 -103 -182 vvcurveto
          -197 -3 -110 -7 -23 vhcurveto
          88 3 64 2 39 1 -37 -44 -20 -45 -2 -45 0 callsubr
          endchar
        </CharString>
        <CharString name="Epsilon">
          95 -6 110 callgsubr
          1 -20 hstemhm
          90 66 hintmask 10110100
          488 -5 rmoveto
          -59 callsubr
          -1 85 0 79 1 74 135 2 84 -4 31 -10 rrcurveto
          80 callsubr
          -83 -5 -146 hhcurveto
          -1 73 0 68 1 62 rrcurveto
          185 hlineto
          39 22 -2 -5 3 hvcurveto
          4 -4 152 callgsubr
          -3 41 0 32 3 23 18 callsubr
          rrcurveto
          hintmask 10101100
          -72 1 -59 2 -45 3 rrcurveto
          7 -23 3 -101 -178 vvcurveto
          -197 -3 -110 -7 -23 vhcurveto
          hintmask 01110100
          4 93 68 2 41 hhcurveto
          53 68 -1 -4 85 hvcurveto
          endchar
        </CharString>
        <CharString name="Epsilon.alt">
          97 -10 59 229 60 237 59 hstem
          55 70 vstem
          125 338 rmoveto
          5 66 20 55 35 43 39 47 50 24 61 2 44 1 30 -7 17 -15 7 -14 4 -12 1 -9 rrcurveto
          47 hlineto
          -5 46 -3 32 17 vvcurveto
          -5 -1 -17 3 -30 7 rrcurveto
          7 -29 -29 4 -29 hhcurveto
          -89 -70 -33 -65 -52 hvcurveto
          -48 -60 -24 -76 -92 vvcurveto
          -85 25 -73 51 -61 vhcurveto
          -66 53 68 -33 83 hhcurveto
          31 32 4 9 33 hvcurveto
          29 7 18 4 5 -1 rrcurveto
          17 2 31 5 45 vhcurveto
          -47 hlineto
          22 callsubr
          -61 -51 23 47 -41 hvcurveto
          -38 43 -22 53 -6 63 rrcurveto
          54 hlineto
          144 hlineto
          40 -1 30 -4 20 -7 rrcurveto
          80 callsubr
          -78 -5 -134 hhcurveto
          -56 hlineto
          endchar
        </CharString>
        <CharString name="Epsilontonos">
          210 1 62 245 58 211 61 15 -20 hstemhm
          202 66 hintmask 11101000
          600 2 rmoveto
          -2 22 0 35 2 47 rrcurveto
          -49 hlineto
          -2 -15 -3 -10 -4 -6 rrcurveto
          -8 -7 -21 -4 -35 71 callsubr
          -1 89 0 81 1 75 135 2 84 -4 31 -10 rrcurveto
          84 vlineto
          -16 -8 -31 -5 -47 -1 rrcurveto
          -156 hlineto
          -1 72 0 70 1 69 rrcurveto
          185 hlineto
          39 22 -2 -5 3 hvcurveto
          4 -4 2 -3 -2 vvcurveto
          1 -2 0 -5 1 -9 rrcurveto
          50 hlineto
          -3 39 0 31 3 23 rrcurveto
          hintmask 11011000
          18 callsubr
          rrcurveto
          -73 -58 2 4 -45 hvcurveto
          7 -24 3 -102 -179 vvcurveto
          -199 -3 -111 -7 -23 vhcurveto
          4 93 68 2 41 hhcurveto
          53 68 -2 -3 85 hvcurveto
          -537 651 73 callsubr
          endchar
        </CharString>
        <CharString name="Esmall">
          -28 callsubr
        </CharString>
        <CharString name="Eta">
          233 52 callgsubr
          271 -20 hstem
          92 180 callsubr
          586 hmoveto
          -8 31 -4 103 176 vvcurveto
          -16 callgsubr
          -86 hlineto
          9 -32 3 -90 -1 -149 rrcurveto
          -353 hlineto
          -3 139 4 91 11 41 rrcurveto
          -89 hlineto
          -67 callgsubr
          -137 -244 vvcurveto
          -1 -61 -4 -42 -7 -25 rrcurveto
          89 hlineto
          -7 28 -4 95 162 vvcurveto
          352 hlineto
          1 -157 -3 -95 -9 -33 rrcurveto
          87 hlineto
          endchar
        </CharString>
        <CharString name="Etatonos">
          320 21 -21 288 61 304 -20 hstem
          196 66 348 69 vstem
          690 hmoveto
          50 callgsubr
          184 vlineto
          1 60 3 42 6 25 rrcurveto
          -90 hlineto
          9 -30 3 -91 -1 -151 rrcurveto
          -349 hlineto
          -1 142 4 91 10 39 rrcurveto
          -89 hlineto
          7 -25 4 -42 1 -60 rrcurveto
          -1 24 0 -61 -145 vvcurveto
          -147 0 -62 1 25 vhcurveto
          -1 -61 -4 -43 -7 -24 rrcurveto
          89 hlineto
          -8 31 -4 96 161 vvcurveto
          348 hlineto
          1 -161 -3 -96 -9 -31 rrcurveto
          -536 157 callsubr
          endchar
        </CharString>
        <CharString name="Eth">
          -22 callgsubr
        </CharString>
        <CharString name="Ethsmall">
          -19 callsubr
        </CharString>
        <CharString name="Etilde">
          92 -2 30 callsubr
          56 53 79 -20 hstem
          87 66 vstem
          485 -1 -106 callgsubr
          93 3 68 2 41 1 53 1 68 -2 85 -4 rrcurveto
          -73 789 -103 callgsubr
          endchar
        </CharString>
        <CharString name="Euro">
          311 0 54 188 53 54 54 188 54 hstem
          145 242 rmoveto
          13 -57 28 -50 42 -43 rrcurveto
          -61 61 77 -31 92 hhcurveto
          83 70 24 49 56 hvcurveto
          79 vlineto
          -65 -58 -70 -33 -81 hhcurveto
          -75 -64 26 51 -52 hvcurveto
          -32 32 -23 38 -12 41 rrcurveto
          360 hlineto
          23 53 rlineto
          -393 hlineto
          -1 8 0 10 9 vvcurveto
          8 0 11 1 8 vhcurveto
          416 hlineto
          22 54 rlineto
          -427 hlineto
          12 40 22 38 32 32 rrcurveto
          52 52 64 26 75 hhcurveto
          80 70 -32 -64 59 hvcurveto
          23 54 rlineto
          64 -63 -78 32 -91 hhcurveto
          -92 -77 -31 -62 -61 hvcurveto
          -42 -42 -28 -51 -13 -56 rrcurveto
          -73 hlineto
          -23 -54 rlineto
          88 hlineto
          -1 -8 0 -10 -9 vvcurveto
          -9 0 -10 1 -8 vhcurveto
          -65 hlineto
          -23 -53 rlineto
          endchar
        </CharString>
        <CharString name="Ezh">
          56 -8 55 513 62 3 -20 hstemhm
          368 63 hintmask 11010000
          434 622 rmoveto
          -83 -2 -57 -1 -31 1 rrcurveto
          hintmask 10110000
          6 callsubr
          hintmask 11010000
          5 4 21 2 39 hhcurveto
          172 hlineto
          -149 -219 rlineto
          29 hlineto
          -20 callsubr
          166 callgsubr
          -60 -43 27 54 -27 hvcurveto
          -55 -28 rlineto
          -72 35 61 -36 87 109 callsubr
          20 49 1 60 1 99 -46 63 -93 27 141 198 rcurveline
          endchar
        </CharString>
        <CharString name="F">
          72 21 -21 297 61 209 64 -5 -20 26 -20 hstemhm
          90 64 hintmask 11100100
          463 631 rmoveto
          hintmask 11010100
          -69 -5 -69 -1 -69 1 rrcurveto
          -17 -29 1 2 -42 hvcurveto
          hintmask 11001100
          2 -37 -30 1 -21 hhcurveto
          6 -21 3 -29 1 -38 rrcurveto
          -220 vlineto
          6 1 -44 1 -95 vhcurveto
          1 -53 -1 -45 -2 -35 -2 -24 -3 -19 -4 -15 rrcurveto
          87 hlineto
          -9 33 -4 46 -1 59 rrcurveto
          -1 59 0 54 47 vvcurveto
          51 3 63 0 76 -4 30 -2 21 -3 12 -3 rrcurveto
          83 vlineto
          -13 -6 -19 -4 -24 -2 rrcurveto
          -1 -24 -65 -1 -105 hhcurveto
          55 callsubr
        </CharString>
        <CharString name="Fsmall">
          -90 0 227 -51 51 115 48 4 -20 hstemhm
          53 58 -58 216 hintmask 10101000
          311 322 rmoveto
          8 -2 19 8 vvcurveto
          15 0 12 1 9 vhcurveto
          -38 -3 -45 -1 -52 1 rrcurveto
          -13 -21 1 1 -29 hvcurveto
          hintmask 10011000
          1 -29 -22 1 -15 hhcurveto
          3 -10 2 -14 1 -17 rrcurveto
          1 -54 0 -41 -27 vvcurveto
          1 -110 -1 -65 -1 -20 -1 -17 -2 -12 -2 -7 rrcurveto
          73 hlineto
          -5 21 -3 28 -1 37 rrcurveto
          91 vlineto
          hintmask 01100100
          31 2 40 0 47 -3 19 -1 14 -1 7 -2 rrcurveto
          64 vlineto
          -8 -4 -12 -3 -15 -1 rrcurveto
          -1 -15 -40 0 -66 hhcurveto
          115 129 vlineto
          21 7 -1 -19 hvcurveto
          41 hlineto
          endchar
        </CharString>
        <CharString name="G">
          122 178 callsubr
          hstem
          40 70 313 66 vstem
          497 16 rmoveto
          -5 37 -3 46 -1 53 rrcurveto
          1 -83 0 46 173 vvcurveto
          -53 -1 -62 1 -73 1 3 -23 0 -31 -3 -39 rrcurveto
          49 hlineto
          1 15 6 10 11 3 rrcurveto
          2 5 13 1 22 hhcurveto
          15 hlineto
          1 -121 1 -25 -11 -16 -21 -8 rlinecurve
          -5 -13 -21 -3 -29 hhcurveto
          -65 -53 27 53 -43 hvcurveto
          -39 50 -20 58 67 vvcurveto
          71 18 62 37 53 vhcurveto
          58 41 55 29 69 hhcurveto
          27 20 -3 -6 13 hvcurveto
          17 -9 12 -16 5 -24 rrcurveto
          47 hlineto
          -5 33 -3 32 -1 29 -4 -1 -7 1 -10 3 -15 5 -10 3 -7 1 rrcurveto
          6 -27 -28 3 -30 hhcurveto
          -89 -70 -33 -66 -52 hvcurveto
          -49 -61 -24 -75 -91 vvcurveto
          -87 25 -73 49 -60 vhcurveto
          -65 52 69 -32 85 hhcurveto
          35 27 3 6 21 hvcurveto
          41 12 32 5 21 -1 rrcurveto
          endchar
        </CharString>
        <CharString name="Gamma">
          62 20 -21 566 60 1 -20 hstemhm
          72 66 hintmask 11010000
          470 517 rmoveto
          -3 45 0 36 3 27 -85 -3 103 callsubr
          rrcurveto
          hintmask 10110000
          -99 1 -67 2 -35 2 rrcurveto
          7 -23 3 -109 -193 vvcurveto
          -179 vlineto
          -1 -57 -3 -41 -7 -25 rrcurveto
          89 hlineto
          -7 25 -3 27 -1 28 rrcurveto
          -1 29 0 74 119 vvcurveto
          hintmask 11010000
          264 211 vlineto
          35 21 -4 -7 5 hvcurveto
          5 -7 4 -12 1 -18 rrcurveto
          50 hlineto
          endchar
        </CharString>
        <CharString name="Gbreve">
          94 178 callsubr
          52 36 86 -20 hstem
          44 70 313 66 vstem
          501 16 rmoveto
          -5 37 -3 46 -1 53 rrcurveto
          1 -83 0 46 173 vvcurveto
          -53 -1 -62 1 -73 1 3 -23 0 -31 -3 -39 rrcurveto
          49 hlineto
          1 15 6 10 11 3 rrcurveto
          2 5 13 1 22 hhcurveto
          15 hlineto
          1 -121 1 -25 -11 -16 -21 -8 rlinecurve
          -5 -13 -21 -3 -29 hhcurveto
          -65 -53 27 53 -43 hvcurveto
          -39 50 -20 58 67 vvcurveto
          71 18 62 37 53 vhcurveto
          58 41 55 29 69 hhcurveto
          27 20 -3 -6 13 hvcurveto
          17 -9 12 -16 5 -24 rrcurveto
          47 hlineto
          -5 33 -3 32 -1 29 -4 -1 -7 1 -10 3 -15 5 -10 3 -7 1 rrcurveto
          6 -27 -28 3 -30 hhcurveto
          -89 -70 -33 -66 -52 hvcurveto
          -49 -61 -24 -75 -91 vvcurveto
          -87 25 -73 49 -60 vhcurveto
          -65 52 69 -32 85 hhcurveto
          35 27 3 6 21 hvcurveto
          41 12 32 5 21 -1 rrcurveto
          -56 792 -89 callgsubr
          endchar
        </CharString>
        <CharString name="Gcircumflex">
          94 178 callsubr
          217 -20 hstem
          44 70 313 66 vstem
          501 16 rmoveto
          -5 37 -3 46 -1 53 rrcurveto
          1 -83 0 46 173 vvcurveto
          -53 -1 -62 1 -73 1 3 -23 0 -31 -3 -39 rrcurveto
          49 hlineto
          1 15 6 10 11 3 rrcurveto
          2 5 13 1 22 hhcurveto
          15 hlineto
          1 -121 1 -25 -11 -16 -21 -8 rlinecurve
          -5 -13 -21 -3 -29 hhcurveto
          -65 -53 27 53 -43 hvcurveto
          -39 50 -20 58 67 vvcurveto
          71 18 62 37 53 vhcurveto
          58 41 55 29 69 hhcurveto
          27 20 -3 -6 13 hvcurveto
          17 -9 12 -16 5 -24 rrcurveto
          47 hlineto
          -5 33 -3 32 -1 29 -4 -1 -7 1 -10 3 -15 5 -10 3 -7 1 rrcurveto
          6 -27 -28 3 -30 hhcurveto
          -89 -70 -33 -66 -52 hvcurveto
          -49 -61 -24 -75 -91 vvcurveto
          -87 25 -73 49 -60 vhcurveto
          -65 52 69 -32 85 hhcurveto
          35 27 3 6 21 hvcurveto
          41 12 32 5 21 -1 rrcurveto
          -21 711 -99 callsubr
          endchar
        </CharString>
        <CharString name="Gcommaaccent">
          94 -251 -21 180 97 0 58 528 57 hstemhm
          40 70 162 66 85 66 hintmask 10111110
          497 30 rmoveto
          -5 37 -3 46 -1 53 rrcurveto
          1 -83 0 46 173 vvcurveto
          -53 -1 -62 1 -73 1 3 -23 0 -31 -3 -39 rrcurveto
          49 hlineto
          1 15 6 10 11 3 rrcurveto
          2 5 13 1 22 hhcurveto
          15 hlineto
          1 -121 1 -25 -11 -16 -21 -8 rlinecurve
          -5 -13 -21 -3 -29 hhcurveto
          -65 -53 27 53 -43 hvcurveto
          -39 50 -20 58 67 vvcurveto
          71 18 62 37 53 vhcurveto
          58 41 55 29 69 hhcurveto
          27 20 -3 -6 13 hvcurveto
          17 -9 12 -16 5 -24 rrcurveto
          47 hlineto
          -5 33 -3 32 -1 29 -4 -1 -7 1 -10 3 -15 5 -10 3 -7 1 rrcurveto
          6 -27 -28 3 -30 hhcurveto
          -89 -70 -33 -66 -52 hvcurveto
          -49 -61 -24 -75 -91 vvcurveto
          -87 25 -73 49 -60 vhcurveto
          -65 52 69 -32 85 hhcurveto
          35 27 3 6 21 hvcurveto
          41 12 32 5 21 -1 rrcurveto
          hintmask 11011110
          -159 -122 91 callsubr
          -75 callgsubr
        </CharString>
        <CharString name="Gdotaccent">
          94 178 callsubr
          53 110 hstem
          44 70 145 110 58 66 vstem
          501 16 rmoveto
          -5 37 -3 46 -1 53 rrcurveto
          1 -83 0 46 173 vvcurveto
          -53 -1 -62 1 -73 1 3 -23 0 -31 -3 -39 rrcurveto
          49 hlineto
          1 15 6 10 11 3 rrcurveto
          2 5 13 1 22 hhcurveto
          15 hlineto
          1 -121 1 -25 -11 -16 -21 -8 rlinecurve
          -5 -13 -21 -3 -29 hhcurveto
          -65 -53 27 53 -43 hvcurveto
          -39 50 -20 58 67 vvcurveto
          71 18 62 37 53 vhcurveto
          58 41 55 29 69 hhcurveto
          27 20 -3 -6 13 hvcurveto
          17 -9 12 -16 5 -24 rrcurveto
          47 hlineto
          -5 33 -3 32 -1 29 -4 -1 -7 1 -10 3 -15 5 -10 3 -7 1 rrcurveto
          6 -27 -28 3 -30 hhcurveto
          -89 -70 -33 -66 -52 hvcurveto
          -49 -61 -24 -75 -91 vvcurveto
          -87 25 -73 49 -60 vhcurveto
          -65 52 69 -32 85 hhcurveto
          35 27 3 6 21 hvcurveto
          41 12 32 5 21 -1 rrcurveto
          -132 726 -5 callsubr
        </CharString>
        <CharString name="Grave">
          -100 708 -21 186 -20 hstem
          94 840 rmoveto
          60 callsubr
          endchar
        </CharString>
        <CharString name="Gravesmall">
          478 -21 162 -20 hstem
          118 599 29 callgsubr
        </CharString>
        <CharString name="Gsmall">
          173 callsubr
          hstemhm
          34 65 hintmask 01100000
          -79 callsubr
          hintmask 10100000
          136 callsubr
          endchar
        </CharString>
        <CharString name="H">
          233 52 callgsubr
          271 -20 hstem
          92 180 callsubr
          586 hmoveto
          -8 31 -4 103 176 vvcurveto
          -16 callgsubr
          -86 hlineto
          9 -32 3 -90 -1 -149 rrcurveto
          -353 hlineto
          -3 139 4 91 11 41 rrcurveto
          -89 hlineto
          -67 callgsubr
          -137 -244 vvcurveto
          -1 -61 -4 -42 -7 -25 rrcurveto
          89 hlineto
          -7 28 -4 95 162 vvcurveto
          352 hlineto
          1 -157 -3 -95 -9 -33 rrcurveto
          87 hlineto
          endchar
        </CharString>
        <CharString name="H18533">
          -39 67 -21 284 -20 hstem
          335 188 rmoveto
          39 -14 34 -28 27 vhcurveto
          28 -27 -33 14 -39 hhcurveto
          -39 -34 -14 -28 -28 hvcurveto
          -27 -27 -14 -34 -39 vvcurveto
          -39 14 -34 27 -28 vhcurveto
          -27 27 34 -14 40 hhcurveto
          39 34 14 27 27 hvcurveto
          27 28 14 34 39 vvcurveto
          endchar
        </CharString>
        <CharString name="H18543">
          -110 92 186 hstem
          65 186 vstem
          251 278 rmoveto
          -186 -186 186 hlineto
          endchar
        </CharString>
        <CharString name="H18551">
          -110 94 30 125 31 hstem
          68 30 125 31 vstem
          254 280 rmoveto
          -186 -186 186 hlineto
          -156 30 rmoveto
          125 125 -125 vlineto
          endchar
        </CharString>
        <CharString name="H22073">
          10 -4 30 319 30 hstem
          29 30 319 30 vstem
          408 375 rmoveto
          -379 -379 379 hlineto
          -349 30 rmoveto
          319 319 -319 vlineto
          endchar
        </CharString>
        <CharString name="Hbar">
          202 52 callgsubr
          95 48 -48 176 hstemhm
          86 149 callsubr
          hintmask 11101100
          610 493 rmoveto
          -42 hlineto
          hintmask 11011100
          1 61 142 callsubr
          -86 hlineto
          hintmask 11101100
          11 -44 1 -29 -1 -55 rrcurveto
          -353 hlineto
          hintmask 11011100
          1 59 4 42 7 27 rrcurveto
          -89 hlineto
          hintmask 11101100
          7 -25 4 -43 1 -60 rrcurveto
          -51 -48 51 -133 hlineto
          -1 -245 -4 -42 -7 -25 rrcurveto
          89 hlineto
          -7 28 -4 95 162 vvcurveto
          352 hlineto
          1 -157 -3 -95 -9 -33 rrcurveto
          87 hlineto
          -8 31 -4 103 176 vvcurveto
          135 42 vlineto
          -105 hmoveto
          -13 0 -31 -1 -51 vhcurveto
          -353 hlineto
          -1 37 0 31 27 vvcurveto
          endchar
        </CharString>
        <CharString name="Hcircumflex">
          202 52 callgsubr
          501 -20 hstem
          86 180 callsubr
          580 hmoveto
          -8 31 -4 103 176 vvcurveto
          -16 callgsubr
          -86 hlineto
          9 -32 3 -90 -1 -149 rrcurveto
          -353 hlineto
          -3 139 4 91 11 41 rrcurveto
          -89 hlineto
          -67 callgsubr
          -137 -244 vvcurveto
          -1 -61 -4 -42 -7 -25 rrcurveto
          89 hlineto
          -7 28 -4 95 162 vvcurveto
          352 hlineto
          1 -157 -3 -95 -9 -33 rrcurveto
          18 11 callgsubr
          endchar
        </CharString>
        <CharString name="Hsmall">
          -7 callsubr
        </CharString>
        <CharString name="Hungarumlaut">
          465 148 hstem
          156 38 35 39 vstem
          226 613 17 callgsubr
        </CharString>
        <CharString name="Hungarumlautsmall">
          465 148 hstem
          156 38 35 39 vstem
          226 613 17 callgsubr
        </CharString>
        <CharString name="I">
          -185 21 -21 621 -20 hstem
          92 65 vstem
          80 621 -97 callgsubr
          endchar
        </CharString>
        <CharString name="IJ">
          -30 -12 54 -21 -21 621 -20 21 -20 hstemhm
          42 65 184 65 hintmask 01101100
          30 621 -97 callgsubr
          hintmask 10011100
          166 1 rmoveto
          5 -18 2 -64 -111 vvcurveto
          -209 -1 -120 -3 -32 vhcurveto
          -17 -1 -11 -9 -19 hhcurveto
          -10 -9 2 5 -9 hvcurveto
          -11 6 -6 7 -1 9 -36 1 rcurveline
          hintmask 01011100
          -1 1 0 -24 1 -49 rrcurveto
          hintmask 10011100
          5 25 20 -17 39 hhcurveto
          48 29 15 30 11 hvcurveto
          7 19 3 131 245 vvcurveto
          111 2 65 5 18 vhcurveto
          endchar
        </CharString>
        <CharString name="Iacute">
          -191 21 -21 873 -20 hstem
          89 65 vstem
          77 621 -97 callgsubr
          -16 252 -41 callsubr
        </CharString>
        <CharString name="Iacutesmall">
          184 callgsubr
          619 -20 hstem
          47 59 vstem
          113 hmoveto
          -69 callsubr
          49 619 -14 callgsubr
        </CharString>
        <CharString name="Ibreve">
          -203 21 -21 686 36 86 -20 hstem
          89 65 vstem
          77 621 -97 callgsubr
          90 187 -89 callgsubr
          endchar
        </CharString>
        <CharString name="Icircumflex">
          -191 21 -21 851 -20 hstem
          89 65 vstem
          77 621 -97 callgsubr
          143 106 -99 callsubr
          endchar
        </CharString>
        <CharString name="Icircumflexsmall">
          184 callgsubr
          598 -20 hstem
          47 59 vstem
          113 hmoveto
          -69 callsubr
          172 504 -63 callgsubr
        </CharString>
        <CharString name="Idieresis">
          -191 21 -21 688 106 callsubr
          -34 85 38 65 -11 84 hintmask 11011000
          77 621 -97 callgsubr
          hintmask 11010100
          62 109 -82 callgsubr
          hmoveto
          hintmask 10111000
          -25 callsubr
          hintmask 11011000
          -39 callsubr
          endchar
        </CharString>
        <CharString name="Idieresissmall">
          184 callgsubr
          468 106 callsubr
          -52 85 14 59 19 84 hintmask 11011100
          113 hmoveto
          -69 callsubr
          170 510 -82 callgsubr
          hmoveto
          hintmask 10111100
          -25 callsubr
          hintmask 11011100
          -39 callsubr
          endchar
        </CharString>
        <CharString name="Idotaccent">
          -203 21 -21 686 110 hstemhm
          66 110 -87 65 hintmask 11010000
          77 621 -97 callgsubr
          hintmask 11100000
          11 120 -5 callsubr
        </CharString>
        <CharString name="Idotbelow">
          -191 -219 106 134 -21 621 -20 hstemhm
          68 106 -85 65 hintmask 11101000
          77 621 -97 callgsubr
          hintmask 11110000
          9 -787 -76 callsubr
          endchar
        </CharString>
        <CharString name="Igrave">
          -191 21 -21 854 -20 hstem
          89 65 vstem
          77 621 -97 callgsubr
          -61 233 -23 callgsubr
        </CharString>
        <CharString name="Igravesmall">
          184 callgsubr
          619 48 callsubr
          -112 599 29 callgsubr
        </CharString>
        <CharString name="Ihookabove">
          -191 21 -21 879 -20 hstemhm
          89 65 -2 42 hintmask 11100000
          77 621 -97 callgsubr
          hintmask 11010000
          29 192 -106 callsubr
          endchar
        </CharString>
        <CharString name="Imacron">
          -203 19 -21 685 50 hstem
          68 65 vstem
          56 619 -97 callgsubr
          117 114 79 callsubr
        </CharString>
        <CharString name="Iogonek">
          -203 -221 63 179 -21 621 -20 hstem
          9 57 23 65 vstem
          177 -136 rmoveto
          -15 -19 -23 -7 -25 hhcurveto
          -27 -17 17 23 46 43 44 28 28 hvcurveto
          27 hlineto
          -6 25 -3 43 -1 61 rrcurveto
          181 vlineto
          -16 callgsubr
          -88 hlineto
          -67 callgsubr
          -76 -121 vvcurveto
          -170 -3 -100 -6 -29 vhcurveto
          -39 -39 -31 -61 -1 -47 0 callsubr
          endchar
        </CharString>
        <CharString name="Iota">
          -185 21 -21 621 -20 hstem
          92 65 vstem
          80 621 -97 callgsubr
          endchar
        </CharString>
        <CharString name="Iotadieresis">
          -203 21 -21 688 106 callsubr
          -5 85 22 65 5 84 hintmask 11011100
          90 621 -97 callgsubr
          78 109 -82 callgsubr
          hmoveto
          hintmask 10111100
          -25 callsubr
          hintmask 11011100
          -39 callsubr
          endchar
        </CharString>
        <CharString name="Iotatonos">
          -94 21 -21 653 -20 hstem
          187 66 vstem
          63 157 callsubr
          46 -9 rmoveto
          7 -25 4 -42 1 -60 rrcurveto
          -1 24 0 -61 -145 vvcurveto
          -147 0 -62 1 25 vhcurveto
          -1 -61 -4 -43 -7 -24 rrcurveto
          88 hlineto
          50 callgsubr
          177 4 103 8 31 vhcurveto
          endchar
        </CharString>
        <CharString name="Ismall">
          184 callgsubr
          389 -20 hstem
          47 59 vstem
          113 hmoveto
          -69 callsubr
          74 hlineto
          endchar
        </CharString>
        <CharString name="Itilde">
          -203 21 -21 685 53 79 -20 hstem
          89 65 vstem
          77 621 -97 callgsubr
          107 167 -103 callgsubr
          endchar
        </CharString>
        <CharString name="J">
          -143 -12 54 580 -20 hstem
          138 65 vstem
          131 12 callsubr
          endchar
        </CharString>
        <CharString name="Jcircumflex">
          -198 -12 54 808 -20 hstem
          131 65 vstem
          124 12 callsubr
          141 104 -99 callsubr
          endchar
        </CharString>
        <CharString name="Jsmall">
          -211 9 -21 403 -20 hstem
          125 58 vstem
          117 -3 callgsubr
          46 callsubr
          endchar
        </CharString>
        <CharString name="K">
          140 96 callgsubr
          92 65 vstem
          567 hmoveto
          -43 68 -70 79 -97 91 -27 25 -35 30 -43 35 31 31 25 24 17 17 43 44 44 44 43 45 43 45 32 30 20 15 rrcurveto
          -125 hlineto
          -1 -21 -12 -24 -24 -28 -10 -11 -35 -36 -61 -61 -123 -124 rcurveline
          39 -27 50 -43 60 -58 50 -49 35 -36 19 -23 22 -27 15 -28 9 -27 rrcurveto
          -378 623 rmoveto
          8 callsubr
          -31 rrcurveto
          1 -30 0 -137 -245 vvcurveto
          -1 -61 -4 -42 -7 -25 rrcurveto
          88 hlineto
          -7 25 -3 43 -1 63 rrcurveto
          183 vlineto
          175 4 103 8 31 vhcurveto
          endchar
        </CharString>
        <CharString name="Kappa">
          140 96 callgsubr
          92 65 vstem
          567 hmoveto
          -43 68 -70 79 -97 91 -27 25 -35 30 -43 35 31 31 25 24 17 17 43 44 44 44 43 45 43 45 32 30 20 15 rrcurveto
          -125 hlineto
          -1 -21 -12 -24 -24 -28 -10 -11 -35 -36 -61 -61 -123 -124 rcurveline
          39 -27 50 -43 60 -58 50 -49 35 -36 19 -23 22 -27 15 -28 9 -27 rrcurveto
          -378 623 rmoveto
          8 callsubr
          -31 rrcurveto
          1 -30 0 -137 -245 vvcurveto
          -1 -61 -4 -42 -7 -25 rrcurveto
          88 hlineto
          -7 25 -3 43 -1 63 rrcurveto
          183 vlineto
          175 4 103 8 31 vhcurveto
          endchar
        </CharString>
        <CharString name="Kcommaaccent">
          157 -225 -21 267 131 callsubr
          hstemhm
          77 65 73 66 vstemhm
          552 hmoveto
          -43 68 -70 79 -97 91 -27 25 -35 30 -43 35 31 31 25 24 17 17 43 44 44 44 43 45 43 45 32 30 20 15 rrcurveto
          -125 hlineto
          -1 -21 -12 -24 -24 -28 -10 -11 -35 -36 -61 -61 -123 -124 rcurveline
          39 -27 50 -43 60 -58 50 -49 35 -36 19 -23 22 -27 15 -28 9 -27 rrcurveto
          -378 623 rmoveto
          8 callsubr
          -31 rrcurveto
          1 -30 0 -137 -245 vvcurveto
          -1 -61 -4 -42 -7 -25 rrcurveto
          88 hlineto
          -7 25 -3 43 -1 63 rrcurveto
          183 vlineto
          175 4 103 8 31 vhcurveto
          127 -689 91 callsubr
          hintmask 11111000
          -75 callgsubr
        </CharString>
        <CharString name="Ksmall">
          -40 112 callgsubr
          40 59 vstem
          -44 callgsubr
          endchar
        </CharString>
        <CharString name="L">
          83 -6 63 565 -20 hstem
          90 66 vstem
          488 -5 rmoveto
          -2 22 0 35 2 48 19 callsubr
          1 254 rlineto
          179 vlineto
          1 63 3 44 100 callsubr
          -40 1 -56 rrcurveto
          -1 67 0 -58 -185 vvcurveto
          -197 -3 -111 78 callgsubr
          endchar
        </CharString>
        <CharString name="Lacute">
          97 -6 63 816 -20 hstem
          87 66 vstem
          485 -5 rmoveto
          -2 22 0 35 2 48 19 callsubr
          1 254 rlineto
          179 vlineto
          1 63 3 44 100 callsubr
          -40 1 -56 rrcurveto
          -1 67 0 -58 -185 vvcurveto
          -197 -3 -111 78 callgsubr
          -338 878 -41 callsubr
        </CharString>
        <CharString name="Lambda">
          179 21 -21 633 -20 hstem
          583 hmoveto
          7 callsubr
          78 hlineto
          5 26 29 83 51 140 62 169 38 106 14 43 37 -105 36 -106 36 -105 48 -139 27 -84 7 -28 rrcurveto
          86 hlineto
          endchar
        </CharString>
        <CharString name="Lcaron">
          97 -6 63 573 -20 hstem
          87 66 vstem
          485 -5 rmoveto
          -2 22 0 35 2 48 19 callsubr
          1 254 rlineto
          179 vlineto
          1 63 3 44 100 callsubr
          -40 1 -56 rrcurveto
          -1 67 0 -58 -185 vvcurveto
          -197 -3 -111 78 callgsubr
          -107 635 6 callgsubr
          endchar
        </CharString>
        <CharString name="Lcommaaccent">
          97 -244 -21 180 79 0 63 565 -20 hstemhm
          87 66 32 66 hintmask 10111100
          485 -5 rmoveto
          -2 22 0 35 2 48 19 callsubr
          1 254 rlineto
          179 vlineto
          1 63 3 44 100 callsubr
          -40 1 -56 rrcurveto
          -1 67 0 -58 -185 vvcurveto
          -197 -3 -111 78 callgsubr
          hintmask 11011100
          -234 -80 91 callsubr
          -75 callgsubr
        </CharString>
        <CharString name="Ldot">
          97 -6 63 390 110 65 -20 hstem
          87 66 128 110 vstem
          485 -5 rmoveto
          -2 22 0 35 2 48 19 callsubr
          1 254 rlineto
          179 vlineto
          1 63 3 44 100 callsubr
          -40 1 -56 rrcurveto
          -1 67 0 -58 -185 vvcurveto
          -197 -3 -111 78 callgsubr
          -94 507 -5 callsubr
        </CharString>
        <CharString name="Lslash">
          70 -6 66 566 -20 hstem
          78 65 vstem
          475 -5 rmoveto
          -59 callsubr
          1 260 176 99 -24 42 -152 -86 -1 136 4 84 8 31 rlinecurve
          -88 hlineto
          6 -21 4 -29 1 -39 1 -27 1 -36 -1 -44 rrcurveto
          -1 -59 -1 -31 -3 vvcurveto
          -135 -82 24 -42 111 69 1 -167 -4 -96 -7 -25 rlinecurve
          -51 callsubr
          endchar
        </CharString>
        <CharString name="Lslashsmall">
          -17 -3 54 338 -20 hstem
          120 59 vstem
          280 290 rmoveto
          -100 -55 -1 82 3 51 5 21 rlinecurve
          -73 hlineto
          4 -15 2 -62 -109 vvcurveto
          -1 vlineto
          -79 -44 21 -38 58 33 1 -88 -2 -52 -5 -16 rlinecurve
          3 64 48 1 32 hhcurveto
          33 1 44 -1 55 -3 -2 17 0 26 2 37 rrcurveto
          -40 hlineto
          -1 -9 -2 -7 -3 -3 rrcurveto
          -5 -3 -13 -3 -23 hhcurveto
          -126 hlineto
          1 135 121 66 rlineto
          endchar
        </CharString>
        <CharString name="Lsmall">
          -90 -3 54 338 -20 hstem
          47 60 vstem
          -61 callsubr
          endchar
        </CharString>
        <CharString name="M">
          -24 callsubr
        </CharString>
        <CharString name="Macron">
          -101 811 50 hstem
          324 861 79 callsubr
        </CharString>
        <CharString name="Macronsmall">
          530 39 hstem
          372 569 rmoveto
          -251 -39 251 hlineto
          endchar
        </CharString>
        <CharString name="Msmall">
          112 callgsubr
          45 57 293 58 vstem
          385 391 rmoveto
          -137 -227 -135 227 rlineto
          -81 63 callgsubr
          25 -41 82 132 49 84 16 37 rrcurveto
          -117 vlineto
          -112 155 callsubr
          72 128 callgsubr
        </CharString>
        <CharString name="Mu">
          -24 callsubr
        </CharString>
        <CharString name="N">
          242 96 callgsubr
          100 61 360 64 vstem
          510 -89 callsubr
          endchar
        </CharString>
        <CharString name="Nacute">
          207 21 -21 873 -20 hstem
          83 61 360 64 vstem
          493 -89 callsubr
          -232 250 -41 callsubr
        </CharString>
        <CharString name="Ncaron">
          207 21 -21 853 -20 hstem
          83 61 360 64 vstem
          578 623 rmoveto
          -7 -25 -3 -42 -1 -61 rrcurveto
          1 36 0 -62 -159 vvcurveto
          -310 -58 vlineto
          -61 88 -55 79 -47 69 -113 165 -68 102 -22 40 rrcurveto
          -233 vlineto
          -181 vlineto
          1 -61 3 -43 7 -25 rrcurveto
          -83 hlineto
          7 25 3 42 1 61 rrcurveto
          184 vlineto
          101 0 63 -1 24 vhcurveto
          -3 63 -6 41 -10 19 64 -1 31 0 -1 1 58 -80 53 -74 48 -69 109 -158 62 -100 17 -41 rrcurveto
          210 vlineto
          147 0 61 1 -24 vhcurveto
          -1 61 -4 42 -7 25 rrcurveto
          9 189 -48 callgsubr
        </CharString>
        <CharString name="Ncommaaccent">
          242 -244 -21 286 131 callsubr
          hstemhm
          100 61 133 66 161 64 vstemhm
          510 -89 callsubr
          -235 -708 91 callsubr
          hintmask 11111100
          -75 callgsubr
        </CharString>
        <CharString name="Nsmall">
          -5 120 callgsubr
          21 -20 hstemhm
          42 55 235 56 hintmask 11011000
          41 callsubr
          hintmask 10111000
          69 callgsubr
          hintmask 11011000
          -46 callsubr
          endchar
        </CharString>
        <CharString name="Ntilde">
          207 21 -21 688 53 79 -20 hstem
          83 61 360 64 vstem
          493 -89 callsubr
          -96 168 -103 callgsubr
          endchar
        </CharString>
        <CharString name="Ntildesmall">
          -5 21 -21 hstem
          42 55 235 56 vstem
          345 -72 callsubr
          -20 -129 rmoveto
          5 -17 2 -65 -115 vvcurveto
          -108 vlineto
          69 callgsubr
          -46 callsubr
          endchar
        </CharString>
        <CharString name="Nu">
          242 96 callgsubr
          100 61 360 64 vstem
          510 -89 callsubr
          endchar
        </CharString>
        <CharString name="Numero">
          569 0 46 103 55 214 53 152 -20 hstem
          72 61 360 64 66 60 206 60 vstem
          482 -89 callsubr
          382 -312 rmoveto
          96 -65 64 -96 -92 -72 -66 -93 -1 vhcurveto
          -95 -2 73 -68 94 hhcurveto
          93 68 68 94 hvcurveto
          -160 107 rmoveto
          59 41 -45 -62 -60 -36 -47 -64 -51 -55 36 71 64 50 43 56 hvcurveto
          -166 -418 rmoveto
          119 109 0 99 hhcurveto
          15 0 15 16 vvcurveto
          -101 -109 0 -117 hhcurveto
          endchar
        </CharString>
        <CharString name="O">
          229 38 callgsubr
          139 callgsubr
          622 304 rmoveto
          94 -24 77 -47 60 vhcurveto
          66 -53 -73 33 -94 -107 callgsubr
          endchar
        </CharString>
        <CharString name="OE">
          418 -1 64 -53 -21 312 60 200 64 10 -20 hstemhm
          15 73 334 66 hintmask 10110110
          413 -1 rmoveto
          93 2 67 1 41 1 53 1 68 -2 85 -4 -59 callsubr
          -1 84 0 79 1 75 135 2 84 -4 31 -10 rrcurveto
          80 callsubr
          -83 -5 -146 hhcurveto
          -1 73 0 66 1 61 rrcurveto
          185 hlineto
          39 21 -3 -5 5 hvcurveto
          5 -11 2 -8 -5 vvcurveto
          50 hlineto
          -3 40 0 32 3 24 18 callsubr
          -91 1 -59 2 -26 3 rrcurveto
          hintmask 01101110
          6 -44 -32 3 -20 hhcurveto
          -96 -75 -32 -64 -54 hvcurveto
          -51 -60 -25 -77 -95 vvcurveto
          -92 25 -75 50 -57 vhcurveto
          -63 54 75 -31 97 hhcurveto
          hintmask 10110110
          27 33 3 7 37 hvcurveto
          8 549 rmoveto
          1 -21 0 -74 -126 vvcurveto
          -142 -1 -83 -1 -25 vhcurveto
          -14 -24 -35 -7 -45 hhcurveto
          -74 1 -57 25 -41 50 rrcurveto
          -37 46 -19 58 70 vvcurveto
          72 19 61 39 49 vhcurveto
          53 43 56 27 70 hhcurveto
          44 35 -7 -13 27 hvcurveto
          endchar
        </CharString>
        <CharString name="OEsmall">
          144 -3 54 -42 -21 192 50 112 52 8 -20 hstemhm
          26 65 188 60 -60 216 hintmask 10110110
          274 -3 rmoveto
          64 2 48 1 31 62 callgsubr
          -1 17 0 27 1 37 rrcurveto
          -39 hlineto
          -19 -3 2 -8 -44 hhcurveto
          -129 hlineto
          -1 39 0 43 1 47 rrcurveto
          hintmask 10110101
          85 1 52 -2 19 -6 rrcurveto
          66 vlineto
          hintmask 10110110
          -6 -13 -52 -3 -91 hhcurveto
          -1 45 0 38 1 29 rrcurveto
          113 hlineto
          24 13 -2 -3 3 hvcurveto
          3 -7 2 -5 -3 vvcurveto
          40 hlineto
          -2 31 0 24 2 17 -57 -3 -45 -1 -33 1 -61 1 -43 2 -25 1 rrcurveto
          1 hlineto
          hintmask 01101110
          5 -19 -19 2 -19 hhcurveto
          -60 -48 -21 -43 -35 hvcurveto
          -32 92 callgsubr
          -57 17 -47 34 -38 vhcurveto
          -40 36 47 -20 57 hhcurveto
          hintmask 10110110
          20 19 3 6 18 hvcurveto
          6 206 rmoveto
          -77 0 -46 -1 -14 vhcurveto
          -11 -19 -20 -6 -23 hhcurveto
          -38 -31 15 29 -23 hvcurveto
          -23 27 -11 32 39 vvcurveto
          40 11 34 21 29 vhcurveto
          31 23 30 16 39 hhcurveto
          25 20 -5 -9 16 hvcurveto
          3 -1 rlineto
          endchar
        </CharString>
        <CharString name="Oacute">
          277 38 callgsubr
          239 -20 hstem
          61 178 callgsubr
          156 callgsubr
          94 -24 77 -47 60 vhcurveto
          66 -53 -73 33 -94 -107 callgsubr
          -196 569 -41 callsubr
        </CharString>
        <CharString name="Oacutesmall">
          89 callgsubr
          214 151 callgsubr
          1 61 -16 49 -32 39 rrcurveto
          -94 callsubr
          -111 425 -14 callgsubr
        </CharString>
        <CharString name="Obreve">
          277 38 callgsubr
          53 36 86 -20 hstem
          61 178 callgsubr
          156 callgsubr
          94 -24 77 -47 60 vhcurveto
          66 -53 -73 33 -94 -107 callgsubr
          -79 505 -89 callgsubr
          endchar
        </CharString>
        <CharString name="Ocircumflex">
          277 38 callgsubr
          217 -20 hstem
          61 178 callgsubr
          156 callgsubr
          94 -24 77 -47 60 vhcurveto
          66 -53 -73 33 -94 -107 callgsubr
          -26 423 -99 callsubr
          endchar
        </CharString>
        <CharString name="Ocircumflexacute">
          229 38 callgsubr
          238 -20 139 callgsubr
          516 11 callgsubr
          116 186 rmoveto
          -56 -170 51 -16 80 161 rlineto
          -42 -543 rmoveto
          94 -24 77 -47 60 vhcurveto
          66 -53 -73 33 -94 -107 callgsubr
          endchar
        </CharString>
        <CharString name="Ocircumflexdotbelow">
          229 -225 106 109 65 514 65 216 -20 hstem
          40 71 164 106 169 72 vstem
          530 726 -99 callsubr
          -106 -857 -76 callsubr
          241 476 rmoveto
          94 -24 77 -47 60 vhcurveto
          66 -53 -73 33 -94 -107 callgsubr
          endchar
        </CharString>
        <CharString name="Ocircumflexgrave">
          229 38 callgsubr
          239 -20 139 callgsubr
          507 727 44 callgsubr
          113 vmoveto
          60 callsubr
          37 -569 -67 callsubr
          endchar
        </CharString>
        <CharString name="Ocircumflexhookabove">
          229 38 callgsubr
          249 -20 hstem
          40 156 callsubr
          8 42 vstem
          512 11 callgsubr
          203 131 -106 callsubr
          -50 -513 rmoveto
          94 -24 77 -47 60 vhcurveto
          66 -53 -73 33 -94 -107 callgsubr
          endchar
        </CharString>
        <CharString name="Ocircumflexsmall">
          89 callgsubr
          193 151 callgsubr
          1 61 -16 49 -32 39 rrcurveto
          -94 callsubr
          5 310 -63 callgsubr
        </CharString>
        <CharString name="Ocircumflextilde">
          229 38 callgsubr
          224 53 79 -20 139 callgsubr
          529 729 -99 callsubr
          14 273 -103 callgsubr
          122 -652 rmoveto
          94 -24 77 -47 60 vhcurveto
          66 -53 -73 33 -94 -107 callgsubr
          endchar
        </CharString>
        <CharString name="Odieresis">
          277 38 callgsubr
          54 106 callsubr
          61 71 86 85 92 84 92 72 hintmask 11101111
          156 callgsubr
          94 -24 77 -47 60 vhcurveto
          66 -53 -73 33 -94 -107 callgsubr
          -92 426 -82 callgsubr
          hmoveto
          hintmask 11011111
          -25 callsubr
          hintmask 11101111
          -39 callsubr
          endchar
        </CharString>
        <CharString name="Odieresiscyrillic">
          264 38 callgsubr
          54 106 callsubr
          61 71 93 85 92 84 85 72 hintmask 11101111
          156 callgsubr
          94 -24 77 -47 60 vhcurveto
          66 -53 -73 33 -94 -107 callgsubr
          -85 426 -82 callgsubr
          hmoveto
          hintmask 11011111
          -25 callsubr
          hintmask 11101111
          -39 callsubr
          endchar
        </CharString>
        <CharString name="Odieresissmall">
          89 callgsubr
          63 106 callsubr
          26 65 -7 85 92 84 -3 65 hintmask 11101001
          407 194 54 callgsubr
          -94 callsubr
          hintmask 11100110
          3 316 -82 callgsubr
          hmoveto
          hintmask 11010110
          -25 callsubr
          hintmask 11100110
          -39 callsubr
          endchar
        </CharString>
        <CharString name="Odotbelow">
          274 -229 106 113 65 514 65 hstem
          61 71 178 106 155 72 vstem
          156 callgsubr
          94 -24 77 -47 60 vhcurveto
          66 -53 -73 33 -94 -107 callgsubr
          -155 -480 -76 callsubr
          endchar
        </CharString>
        <CharString name="Ogonek">
          -100 -193 49 144 -20 hstem
          59 59 vstem
          274 -123 rmoveto
          -10 15 rlineto
          -8 hlineto
          -24 -30 -29 -12 -28 hhcurveto
          -34 -17 16 32 25 20 32 41 39 hvcurveto
          -36 hlineto
          -56 -37 -28 -38 -38 vvcurveto
          -45 34 -35 47 42 45 21 43 47 vhcurveto
          endchar
        </CharString>
        <CharString name="Ogoneksmall">
          -133 -21 162 -20 hstem
          73 56 vstem
          161 -109 rmoveto
          -21 -11 9 19 21 20 29 40 35 hvcurveto
          -30 4 rlineto
          -57 -41 -29 -38 -37 vvcurveto
          -11 3 -9 7 -7 vhcurveto
          -44 callsubr
          endchar
        </CharString>
        <CharString name="Ograve">
          277 38 callgsubr
          230 -20 hstem
          61 178 callgsubr
          156 callgsubr
          94 -24 77 -47 60 vhcurveto
          66 -53 -73 33 -94 -107 callgsubr
          -216 560 -23 callgsubr
        </CharString>
        <CharString name="Ogravesmall">
          89 callgsubr
          214 -10 callgsubr
          -194 405 29 callgsubr
        </CharString>
        <CharString name="Ohookabove">
          277 38 callgsubr
          245 -20 hstem
          61 71 263 42 134 72 vstem
          156 callgsubr
          94 -24 77 -47 60 vhcurveto
          66 -53 -73 33 -94 -107 callgsubr
          -134 509 -106 callsubr
          endchar
        </CharString>
        <CharString name="Ohorn">
          268 38 callgsubr
          -65 177 hstemhm
          61 71 439 49 -49 72 hintmask 11010100
          60 callgsubr
          hintmask 10111000
          47 8 28 34 43 vvcurveto
          19 -6 19 -11 19 vhcurveto
          -68 callsubr
          -15 -9 -20 -4 -26 1 rrcurveto
          hintmask 11010100
          21 -41 -47 11 -53 -107 callgsubr
          endchar
        </CharString>
        <CharString name="Ohornacute">
          107 callgsubr
          hintmask 11011010
          60 callgsubr
          hintmask 10111100
          47 8 28 34 43 vvcurveto
          19 -6 19 -11 19 vhcurveto
          -68 callsubr
          -15 -9 -20 -4 -26 1 rrcurveto
          hintmask 11011010
          21 -41 -47 11 -53 -107 callgsubr
          -224 569 -41 callsubr
        </CharString>
        <CharString name="Ohorndotbelow">
          287 -230 106 114 65 514 65 -65 177 hstemhm
          61 71 151 106 182 49 -49 72 hintmask 11101101
          60 callgsubr
          hintmask 11011110
          47 8 28 34 43 vvcurveto
          19 -6 19 -11 19 vhcurveto
          -68 callsubr
          -15 -9 -20 -4 -26 1 rrcurveto
          hintmask 11101101
          21 -41 -47 11 -53 -107 callgsubr
          -182 -481 -76 callsubr
          endchar
        </CharString>
        <CharString name="Ohorntilde">
          287 38 callgsubr
          59 53 79 -20 hstemhm
          61 71 439 49 -49 72 hintmask 11111010
          60 callgsubr
          hintmask 11111100
          47 8 28 34 43 vvcurveto
          19 -6 19 -11 19 vhcurveto
          -68 callsubr
          -15 -9 -20 -4 -26 1 rrcurveto
          21 -41 -47 11 -53 hhcurveto
          -93 -72 -33 -66 -53 hvcurveto
          -49 -61 -24 -77 -93 vvcurveto
          -88 26 -73 52 -59 vhcurveto
          -63 54 71 -31 88 hhcurveto
          85 70 31 63 56 hvcurveto
          hintmask 11111010
          53 60 27 73 87 vvcurveto
          -72 hmoveto
          -68 -19 -58 -39 -47 vhcurveto
          -51 -41 -54 -25 -66 hhcurveto
          -65 -54 26 51 -42 hvcurveto
          -39 47 -20 57 67 vvcurveto
          71 19 61 37 50 vhcurveto
          56 41 54 28 68 hhcurveto
          73 55 -25 -51 39 hvcurveto
          35 -47 18 -63 -79 vvcurveto
          -111 492 -103 callgsubr
          endchar
        </CharString>
        <CharString name="Ohungarumlaut">
          277 38 callgsubr
          242 -20 hstem
          61 178 callgsubr
          156 callgsubr
          94 -24 77 -47 60 vhcurveto
          66 -53 -73 33 -94 -107 callgsubr
          -252 571 73 callsubr
          52 24 73 callsubr
          endchar
        </CharString>
        <CharString name="Omacron">
          277 38 callgsubr
          50 50 hstem
          61 178 callgsubr
          156 callgsubr
          94 -24 77 -47 60 vhcurveto
          66 -53 -73 33 -94 -107 callgsubr
          -56 430 79 callsubr
        </CharString>
        <CharString name="Omega">
          236 0 77 callsubr
          hstemhm
          51 143 callgsubr
          hintmask 01111000
          587 104 -4 callgsubr
          hintmask 10111000
          -96 callgsubr
          21 -42 22 -35 25 -27 -51 callgsubr
          hintmask 01111000
          -105 callsubr
          endchar
        </CharString>
        <CharString name="Omega.alt">
          376 -11 63 583 -20 hstem
          62 69 245 66 241 72 vstem
          755 244 rmoveto
          106 -26 97 -52 88 vhcurveto
          -22 37 -26 33 -30 30 -56 -55 rcurveline
          11 -6 14 -14 17 -21 17 -21 14 -19 10 -17 39 -69 19 -84 -1 -99 -1 -57 -13 -45 -25 -33 rrcurveto
          -29 -22 -25 -14 -27 hhcurveto
          -32 -25 9 17 -17 hvcurveto
          -23 23 -15 38 -9 55 rrcurveto
          -5 31 -2 30 30 vvcurveto
          38 3 32 7 27 vhcurveto
          -87 hlineto
          7 -31 4 -27 -24 vvcurveto
          -29 -3 -34 -6 -40 vhcurveto
          -8 -54 -19 -40 -30 -25 -24 -19 -26 -9 -28 3 -27 2 -23 14 -18 25 rrcurveto
          -22 31 -11 43 56 vvcurveto
          83 25 89 50 95 vhcurveto
          16 31 24 28 31 27 -54 58 rcurveline
          -103 -123 -53 -135 -5 -146 -2 -88 22 -66 47 -44 rrcurveto
          -29 31 33 -15 33 hhcurveto
          92 60 47 95 27 hvcurveto
          14 -61 26 -42 37 -21 23 -13 31 -6 39 1 39 1 37 18 35 36 rrcurveto
          46 47 23 67 86 vvcurveto
          endchar
        </CharString>
        <CharString name="Omegatonos">
          379 5 77 callsubr
          7 -20 hstemhm
          150 143 callgsubr
          hintmask 01101100
          686 109 -4 callgsubr
          hintmask 10101100
          -96 callgsubr
          21 -42 22 -35 25 -27 -51 callgsubr
          hintmask 01101100
          -105 callsubr
          hintmask 10011100
          -674 546 6 callgsubr
          endchar
        </CharString>
        <CharString name="Omicron">
          229 38 callgsubr
          139 callgsubr
          622 304 rmoveto
          94 -24 77 -47 60 vhcurveto
          66 -53 -73 33 -94 -107 callgsubr
          endchar
        </CharString>
        <CharString name="Omicrontonos">
          370 -30 67 539 67 10 -20 hstemhm
          150 73 453 74 hintmask 11011000
          750 303 rmoveto
          97 -24 170 callgsubr
          -75 58 callsubr
          -40 147 callsubr
          -41 52 177 callgsubr
          39 157 callgsubr
          40 hvcurveto
          37 -49 18 -65 -81 vvcurveto
          hintmask 10111000
          -613 350 73 callsubr
          endchar
        </CharString>
        <CharString name="Oslash">
          277 -78 -21 88 67 530 67 92 -36 callgsubr
          endchar
        </CharString>
        <CharString name="Oslashacute">
          277 -78 -21 88 67 530 67 220 -36 callgsubr
          -73 299 -41 callsubr
        </CharString>
        <CharString name="Oslashsmall">
          1 -37 -21 46 61 292 61 43 94 callsubr
          191 rmoveto
          1 93 -33 63 -67 34 24 64 rcurveline
          -48 hlineto
          -18 -48 rlineto
          3 -15 -17 2 -17 hhcurveto
          -60 -48 -21 -43 -35 hvcurveto
          -32 92 callgsubr
          -77 38 -70 61 -33 vhcurveto
          -25 -68 rlineto
          48 hlineto
          19 52 rlineto
          -4 16 17 -2 17 151 callsubr
          -260 -120 rmoveto
          -37 27 -19 40 53 vvcurveto
          40 11 34 21 29 vhcurveto
          31 23 30 16 39 hhcurveto
          11 10 -1 -1 9 hvcurveto
          97 -148 rmoveto
          158 callsubr
          -10 -9 1 2 -9 hvcurveto
          98 269 rlineto
          37 -25 18 -43 -62 vvcurveto
          endchar
        </CharString>
        <CharString name="Osmall">
          89 callgsubr
          85 callsubr
          194 54 callgsubr
          -94 callsubr
          endchar
        </CharString>
        <CharString name="Otilde">
          277 38 callgsubr
          53 53 79 -20 hstem
          61 178 callgsubr
          156 callgsubr
          94 -24 77 -47 60 vhcurveto
          66 -53 -73 33 -94 -107 callgsubr
          -60 486 -103 callgsubr
          endchar
        </CharString>
        <CharString name="Otildesmall">
          89 callgsubr
          -61 170 hstemhm
          141 callsubr
          hintmask 10111000
          335 -72 callsubr
          72 -326 54 callgsubr
          hintmask 11011000
          -94 callsubr
          endchar
        </CharString>
        <CharString name="P">
          90 21 -21 265 60 241 57 hstem
          91 66 256 70 vstem
          483 -40 callsubr
          1 241 87 callsubr
          65 callsubr
          endchar
        </CharString>
        <CharString name="Phi">
          241 0 130 -56 56 387 52 -52 104 hstemhm
          38 70 196 66 193 67 hintmask 10101110
          630 317 rmoveto
          71 -19 58 -38 44 vhcurveto
          53 -45 -66 26 -88 hhcurveto
          hintmask 10011110
          3 24 2 17 1 11 rrcurveto
          -88 hlineto
          hintmask 01101110
          5 -17 3 -17 1 -18 rrcurveto
          -85 -66 -26 -53 -48 hvcurveto
          -43 -46 -21 -58 -69 vvcurveto
          -65 22 -55 43 -45 vhcurveto
          -52 49 66 -26 84 hhcurveto
          hintmask 10101110
          -3 -39 -3 -25 -4 -10 rrcurveto
          89 hlineto
          -5 19 -3 25 -2 31 84 3 66 26 47 51 rrcurveto
          41 44 21 54 64 vvcurveto
          -67 hmoveto
          -53 -15 -43 -29 -33 vhcurveto
          -39 -34 -50 -19 -65 hhcurveto
          183 vlineto
          97 0 68 1 39 vhcurveto
          129 -2 64 -67 -1 -131 rrcurveto
          -259 -187 rmoveto
          -67 -51 19 39 -34 hvcurveto
          -29 33 -14 43 -1 54 rrcurveto
          121 -1 72 77 124 hhcurveto
          1 -19 0 -68 -117 vvcurveto
          endchar
        </CharString>
        <CharString name="Pi">
          -23 callsubr
        </CharString>
        <CharString name="Psi">
          207 21 -21 621 -20 hstem
          34 73 179 67 vstem
          524 621 rmoveto
          11 -35 -1 -36 -11 -37 -27 -91 -56 -51 -83 -11 -3 132 rcurveline
          59 3 43 7 27 vhcurveto
          -88 hlineto
          8 -29 3 -87 -1 -145 -45 5 -39 20 -32 33 -26 28 -18 32 -9 37 rrcurveto
          -7 26 -3 23 21 vvcurveto
          14 2 12 3 10 vhcurveto
          -78 hlineto
          -1 -192 91 -112 163 -19 rrcurveto
          -176 vlineto
          -1 -57 -3 -40 -7 -25 rrcurveto
          88 hlineto
          -9 35 -3 99 1 163 78 9 62 31 45 55 49 58 22 76 -3 95 rrcurveto
          endchar
        </CharString>
        <CharString name="Psmall">
          -20 callgsubr
        </CharString>
        <CharString name="Q">
          229 -123 178 -65 65 514 65 hstemhm
          40 156 callsubr
          hintmask 10111000
          514 -123 rmoveto
          -3 3 -13 18 -23 34 -23 33 -13 22 -4 9 -6 11 rcurveline
          59 21 46 38 35 54 rrcurveto
          35 55 18 61 68 vvcurveto
          94 -24 77 -47 60 vhcurveto
          66 -53 -73 33 -94 hhcurveto
          -93 -72 -33 -66 -53 hvcurveto
          -49 -61 -24 -77 -93 vvcurveto
          -88 26 -73 52 -59 vhcurveto
          hintmask 01111000
          -63 54 71 -31 88 hhcurveto
          9 10 0 1 9 hvcurveto
          28 -55 rlineto
          hintmask 10111000
          13 -32 6 -20 1 -7 rrcurveto
          143 427 rmoveto
          -68 -19 -58 -39 -47 vhcurveto
          -51 -41 -54 -25 -66 hhcurveto
          -65 -54 26 51 -42 hvcurveto
          -39 47 -20 57 67 vvcurveto
          71 19 61 37 50 vhcurveto
          56 41 54 28 68 hhcurveto
          73 55 -25 -51 39 hvcurveto
          35 -47 18 -63 -79 vvcurveto
          endchar
        </CharString>
        <CharString name="Qsmall">
          2 -79 133 -60 60 292 61 hstemhm
          141 callsubr
          hintmask 01111000
          407 196 54 callgsubr
          41 -35 -47 21 -61 hhcurveto
          -60 -48 -21 -43 -35 hvcurveto
          -32 92 callgsubr
          -53 16 -46 32 -39 vhcurveto
          32 -38 42 -21 53 -4 11 -1 11 1 11 1 11 -23 rcurveline
          hintmask 10111000
          13 -29 6 -17 1 -5 rrcurveto
          88 hlineto
          -5 3 -9 11 -15 18 -15 17 -9 13 -4 9 -8 15 rcurveline
          72 31 47 74 84 vvcurveto
          -65 hmoveto
          158 callsubr
          -38 -31 15 29 -23 hvcurveto
          -23 27 -11 32 39 vvcurveto
          40 11 34 21 29 vhcurveto
          31 23 30 16 39 hhcurveto
          41 32 -14 -29 23 hvcurveto
          21 -26 10 -36 -45 vvcurveto
          endchar
        </CharString>
        <CharString name="R">
          96 153 callgsubr
          hstem
          91 66 262 64 vstem
          505 133 callgsubr
          120 -84 45 -100 vhcurveto
          36 callsubr
          38 -1 51 rrcurveto
          170 vlineto
          13 1 13 0 13 1 31 -1 23 -3 17 -5 45 -14 38 -39 30 -64 rrcurveto
          26 -53 13 -48 -43 vvcurveto
          -6 -1 -5 -1 -5 vhcurveto
          -4 458 rmoveto
          -1 -73 -40 -27 -74 140 callgsubr
          1 221 87 callsubr
          67 -6 49 -23 -1 -76 rrcurveto
          endchar
        </CharString>
        <CharString name="Racute">
          107 153 callgsubr
          250 -20 hstem
          88 66 262 64 vstem
          502 133 callgsubr
          120 -84 45 -100 vhcurveto
          36 callsubr
          38 -1 51 rrcurveto
          170 vlineto
          13 1 13 0 13 1 31 -1 23 -3 17 -5 45 -14 38 -39 30 -64 rrcurveto
          26 -53 13 -48 -43 vvcurveto
          -6 -1 -5 -1 -5 vhcurveto
          -4 458 rmoveto
          -1 -73 -40 -27 -74 140 callgsubr
          1 221 87 callsubr
          67 -6 49 -23 -1 -76 rrcurveto
          -151 415 -41 callsubr
        </CharString>
        <CharString name="Rcaron">
          107 153 callgsubr
          230 -20 hstem
          88 66 262 64 vstem
          502 hmoveto
          -88 hlineto
          1 5 1 5 6 vvcurveto
          43 -13 48 -26 53 vhcurveto
          -30 64 -38 39 -45 14 -17 5 -23 3 -31 1 -13 -1 -13 0 -13 -1 rrcurveto
          -170 vlineto
          1 -51 3 -38 7 -25 rrcurveto
          -88 hlineto
          7 25 3 41 1 59 rrcurveto
          184 vlineto
          184 vlineto
          -1 62 -3 43 -7 25 rrcurveto
          219 hlineto
          100 84 -45 -120 -90 -50 -55 -99 -21 hvcurveto
          81 -27 57 -97 33 -168 rrcurveto
          -92 458 rmoveto
          1 76 -49 23 -67 6 -19 3 -46 1 -73 -1 -1 -221 rcurveline
          79 -1 47 1 13 2 74 11 40 27 1 73 rrcurveto
          29 354 -48 callgsubr
        </CharString>
        <CharString name="Rcommaaccent">
          107 -248 -21 290 -21 286 59 0 221 0 57 hstemhm
          88 66 90 66 106 64 hintmask 11101111
          502 133 callgsubr
          62 -25 46 -49 29 vhcurveto
          19 -33 -36 9 -41 33 callgsubr
          38 -1 51 rrcurveto
          170 vlineto
          13 1 13 0 13 1 31 -1 23 -3 17 -5 45 -14 38 -39 30 -64 rrcurveto
          26 -53 13 -48 -43 vvcurveto
          -6 -1 -5 -1 -5 vhcurveto
          -4 458 rmoveto
          1 -48 -17 -32 -33 -17 -9 -5 -22 -4 -35 -5 95 callsubr
          1 221 87 callsubr
          11 -1 12 -2 12 -1 22 -4 17 -8 13 -13 rrcurveto
          19 -17 9 -26 -33 vvcurveto
          -100 -547 91 callsubr
          hintmask 11010111
          -75 callgsubr
        </CharString>
        <CharString name="Rho">
          90 21 -21 265 60 241 57 hstem
          91 66 256 70 vstem
          483 -40 callsubr
          1 241 87 callsubr
          65 callsubr
          endchar
        </CharString>
        <CharString name="Ring">
          -100 743 22 147 22 hstem
          65 42 119 42 vstem
          268 838 rmoveto
          57 -45 39 -56 -57 -45 -40 -56 -56 45 -39 57 56 45 39 56 vhcurveto
          -42 hmoveto
          -19 -5 -16 -11 -14 vhcurveto
          -16 -11 -15 -8 -17 hhcurveto
          -36 -24 37 36 37 24 37 36 35 24 -37 -37 hvcurveto
          endchar
        </CharString>
        <CharString name="Ringsmall">
          462 31 74 31 hstem
          192 31 73 31 vstem
          327 530 12 callgsubr
        </CharString>
        <CharString name="Rsmall">
          -73 0 216 175 -20 hstem
          46 59 148 63 vstem
          -55 callsubr
          endchar
        </CharString>
        <CharString name="S">
          97 -10 58 527 59 hstem
          54 66 vstem
          491 157 -87 callgsubr
          endchar
        </CharString>
        <CharString name="Sacute">
          176 callgsubr
          239 -20 hstem
          34 66 vstem
          471 157 -87 callgsubr
          -219 716 -41 callsubr
        </CharString>
        <CharString name="Sampigreek">
          482 -186 -21 803 39 -1 -20 hstemhm
          hintmask 11000000
          875 -207 rmoveto
          -9 87 -11 73 -14 59 -21 87 -29 76 -36 64 -55 97 -79 89 -104 80 rrcurveto
          87 -113 -139 43 -167 hhcurveto
          hintmask 10100000
          -1 -48 -7 0 -1 hhcurveto
          hintmask 11000000
          -38 vlineto
          107 -4 84 -13 63 -22 54 -19 85 -45 39 -40 -179 -150 -105 -83 -30 -17 53 -53 rcurveline
          15 18 47 42 81 66 69 57 56 44 43 32 39 -29 37 -40 36 -50 -25 -25 -53 -46 -79 -65 -67 -55 -50 -40 -33 -24 50 -55 rcurveline
          109 98 98 85 87 73 31 -37 29 -61 27 -86 28 -90 15 -86 3 -82 69 -1 rcurveline
          endchar
        </CharString>
        <CharString name="Scaron">
          176 callgsubr
          219 -20 hstem
          34 66 vstem
          471 157 rmoveto
          -3 -65 -33 -46 -63 -28 -48 -22 -60 -9 -71 3 -27 1 -37 9 -47 17 -20 7 -15 3 -10 -3 rrcurveto
          18 1 34 2 49 vhcurveto
          38 hlineto
          2 -11 9 -12 17 -12 rrcurveto
          -28 38 42 -14 47 hhcurveto
          45 38 9 19 33 hvcurveto
          40 23 17 33 -5 41 -3 26 -13 21 -22 16 -17 13 -25 11 -33 10 -29 8 -30 8 -29 8 -49 15 -37 16 -24 17 rrcurveto
          -37 29 -19 38 47 vvcurveto
          59 23 46 45 32 vhcurveto
          41 29 51 13 63 -1 rrcurveto
          17 33 -6 -13 51 hvcurveto
          31 -7 18 -4 5 1 rrcurveto
          -18 0 -33 1 -49 vhcurveto
          -38 hlineto
          -4 21 -5 13 -7 5 rrcurveto
          21 -31 -37 10 -45 hhcurveto
          -101 -48 -42 -84 3 hvcurveto
          2 -50 52 -35 103 -20 147 -29 72 -62 -5 -96 rrcurveto
          -42 655 -48 callgsubr
        </CharString>
        <CharString name="Scaronsmall">
          165 callsubr
          193 -20 hstem
          332 90 rmoveto
          -81 -7 -76 -25 -82 hhcurveto
          -34 -34 6 15 -40 hvcurveto
          -13 5 -9 1 -7 -1 rrcurveto
          11 1 28 1 43 vhcurveto
          33 hlineto
          1 -2 5 -12 7 -5 rrcurveto
          -21 29 30 -11 43 hhcurveto
          44 45 18 40 -2 hvcurveto
          -1 31 -17 13 -51 17 -38 10 -52 14 -30 20 rrcurveto
          -27 19 -14 26 35 vvcurveto
          81 74 35 75 2 vhcurveto
          23 27 -4 -9 31 hvcurveto
          19 -5 12 -1 7 1 rrcurveto
          -80 -33 vlineto
          -2 13 -4 8 -5 3 rrcurveto
          13 -18 -24 6 -30 hhcurveto
          -43 -43 -18 -47 4 hvcurveto
          1 -23 32 -19 63 -15 83 -20 54 -34 -8 -81 rrcurveto
          -15 463 -57 callsubr
        </CharString>
        <CharString name="Scedilla">
          127 -164 -21 768 60 hstem
          51 70 179 45 vstem
          332 -53 rmoveto
          -7 11 -9 9 -13 7 35 5 28 7 20 10 55 28 43 55 4 57 4 46 -13 40 -31 35 -31 35 -56 28 -83 21 -48 12 -34 12 -21 13 rrcurveto
          -36 21 -18 29 36 vvcurveto
          35 14 30 27 23 vhcurveto
          24 21 34 11 43 -1 47 -1 37 -10 29 -19 7 -5 5 -13 4 -21 rrcurveto
          38 hlineto
          -1 49 0 33 18 vvcurveto
          -5 -1 -18 4 -31 7 rrcurveto
          13 -52 -34 6 -15 hhcurveto
          -65 -52 -16 -33 -40 hvcurveto
          -44 -36 -22 -46 -57 vvcurveto
          -56 22 -42 44 -29 vhcurveto
          20 -13 29 -12 37 -11 52 -16 35 -12 19 -7 41 -17 26 -13 11 -9 16 -13 10 -22 5 -29 4 -27 -9 -25 -22 -23 -15 -15 -18 -12 -20 -7 -39 -15 -39 -5 -38 4 rrcurveto
          -22 2 -21 6 -21 10 -11 5 -11 8 -13 9 -17 12 -9 12 -2 11 rrcurveto
          -38 hlineto
          -2 -49 -1 -34 -18 vvcurveto
          11 2 15 -2 19 -7 rrcurveto
          -18 50 37 -9 23 hhcurveto
          -33 vlineto
          45 callsubr
        </CharString>
        <CharString name="Scircumflex">
          176 callgsubr
          217 -20 hstem
          51 66 vstem
          488 157 -87 callgsubr
          -34 570 -99 callsubr
          endchar
        </CharString>
        <CharString name="Scommaaccent">
          107 154 callgsubr
          102 0 58 527 59 hstemhm
          41 66 108 66 hintmask 10111100
          478 167 -87 callgsubr
          hintmask 11011100
          -197 -269 91 callsubr
          -75 callgsubr
        </CharString>
        <CharString name="Sigma">
          -29 callsubr
        </CharString>
        <CharString name="Ssmall">
          165 callsubr
          hstem
          332 90 rmoveto
          -85 callsubr
          rrcurveto
          -15 40 34 -6 34 hhcurveto
          82 76 25 81 7 hvcurveto
          endchar
        </CharString>
        <CharString name="T">
          118 21 -21 522 101 -52 52 hstemhm
          242 65 hintmask 11010000
          556 5 callsubr
          hintmask 10110000
          -37 callsubr
          50 hlineto
          endchar
        </CharString>
        <CharString name="Tau">
          118 21 -21 522 101 -52 52 hstemhm
          242 65 hintmask 11010000
          556 5 callsubr
          hintmask 10110000
          -37 callsubr
          50 hlineto
          endchar
        </CharString>
        <CharString name="Tbar">
          207 21 -21 367 48 105 106 -57 57 hstemhm
          290 65 hintmask 11101000
          604 519 rmoveto
          -3 48 0 36 3 23 rrcurveto
          -561 hlineto
          3 -27 0 -35 -3 -44 rrcurveto
          51 hlineto
          1 18 3 12 4 7 rrcurveto
          hintmask 11011000
          8 8 21 4 33 hhcurveto
          126 -154 -173 -48 173 -66 hlineto
          -179 vlineto
          -1 -57 -4 -40 -7 -25 rrcurveto
          87 hlineto
          -7 24 -3 41 -1 57 rrcurveto
          1 -34 0 60 153 vvcurveto
          66 187 48 -187 153 128 vlineto
          34 21 -4 -8 8 hvcurveto
          4 -7 3 -12 1 -18 rrcurveto
          50 hlineto
          endchar
        </CharString>
        <CharString name="Tcaron">
          207 21 -21 522 101 -53 53 230 -20 hstemhm
          290 65 hintmask 10111000
          604 521 rmoveto
          -50 hlineto
          -1 18 -3 12 -4 7 rrcurveto
          8 -8 -21 4 -34 hhcurveto
          -128 -269 hlineto
          -153 0 -60 -1 34 vhcurveto
          1 -57 3 -41 7 -24 rrcurveto
          -87 hlineto
          7 25 4 40 1 57 rrcurveto
          179 vlineto
          270 -126 vlineto
          -33 -21 -4 -8 -8 hvcurveto
          hintmask 11011000
          -4 -7 -3 -12 -1 -18 rrcurveto
          -51 hlineto
          3 42 0 34 -3 25 rrcurveto
          561 hlineto
          -2 -22 0 -34 2 -46 rrcurveto
          -108 291 -48 callgsubr
        </CharString>
        <CharString name="Tcommaaccent">
          207 154 callgsubr
          102 571 52 hstemhm
          290 65 -37 37 hintmask 11110000
          604 5 callsubr
          -37 callsubr
          -198 -623 91 callsubr
          hintmask 11101000
          -75 callgsubr
        </CharString>
        <CharString name="Theta">
          278 -30 67 243 60 236 67 hstem
          61 73 453 74 vstem
          661 303 rmoveto
          97 -25 170 callgsubr
          -74 58 callsubr
          -41 147 callsubr
          -40 52 177 callgsubr
          38 157 callgsubr
          41 hvcurveto
          37 -49 18 -65 -81 vvcurveto
          -72 46 rmoveto
          -6 -4 -28 -3 -49 -2 -21 -1 -24 -1 -27 -1 -91 1 -50 4 -9 6 rrcurveto
          -78 vlineto
          55 6 50 3 45 1 93 -1 52 -3 10 -5 rrcurveto
          endchar
        </CharString>
        <CharString name="Thorn">
          61 0 214 -60 60 254 57 -57 151 hstemhm
          69 67 254 70 hintmask 10011100
          57 619 rmoveto
          7 -25 3 -28 1 -32 rrcurveto
          1 -31 0 -78 -125 vvcurveto
          -178 vlineto
          -1 -57 -4 -40 -7 -25 rrcurveto
          87 hlineto
          -7 27 -3 33 37 vvcurveto
          hintmask 01101100
          10 0 14 2 33 vhcurveto
          39 77 1 1 23 hvcurveto
          41 3 38 13 34 24 rrcurveto
          48 34 24 48 62 vvcurveto
          63 -25 49 -49 35 vhcurveto
          25 -37 -36 13 -37 hhcurveto
          -141 hlineto
          hintmask 10011100
          1 42 4 31 5 21 rrcurveto
          245 -279 rmoveto
          1 -72 -39 -41 -77 140 callgsubr
          1 254 87 callsubr
          76 -13 38 -41 1 -71 rrcurveto
          endchar
        </CharString>
        <CharString name="Thornsmall">
          -98 0 132 -50 50 138 49 -49 121 hstemhm
          47 61 147 63 hintmask 01101100
          108 55 rmoveto
          19 16 6 16 12 17 1 1 27 vhcurveto
          72 2 50 44 76 vvcurveto
          73 -52 42 -69 vhcurveto
          -89 hlineto
          hintmask 10011100
          -1 34 4 27 3 11 rrcurveto
          -74 hlineto
          5 -17 2 -70 -111 vvcurveto
          -111 155 callsubr
          74 hlineto
          -2 9 -3 18 -1 28 rrcurveto
          147 148 rmoveto
          1 -44 -24 -24 -48 -3 rrcurveto
          -1 -9 -26 0 -41 hhcurveto
          139 vlineto
          29 27 0 22 hhcurveto
          43 27 -22 -45 -1 hvcurveto
          endchar
        </CharString>
        <CharString name="Tildesmall">
          365 -72 callsubr
          endchar
        </CharString>
        <CharString name="Tquoteright">
          207 21 -21 522 101 -52 52 23 -20 hstemhm
          290 65 hintmask 11011000
          604 5 callsubr
          hintmask 10111000
          -37 callsubr
          148 125 6 callgsubr
          endchar
        </CharString>
        <CharString name="Tsmall">
          -23 0 callgsubr
        </CharString>
        <CharString name="U">
          256 -12 67 566 -20 hstem
          90 69 375 66 vstem
          521 -99 callgsubr
          endchar
        </CharString>
        <CharString name="Uacute">
          188 callsubr
          818 -20 hstem
          66 69 375 66 vstem
          497 -99 callgsubr
          -242 252 -41 callsubr
        </CharString>
        <CharString name="Uacutesmall">
          -40 -1 59 561 -20 hstem
          35 63 198 63 vstem
          288 400 -90 callsubr
          -161 219 -14 callgsubr
        </CharString>
        <CharString name="Ubreve">
          188 callsubr
          633 36 86 -20 hstem
          66 69 375 66 vstem
          497 -99 callgsubr
          -128 189 -89 callgsubr
          endchar
        </CharString>
        <CharString name="Ucircumflex">
          307 -12 67 794 -20 hstem
          66 69 375 66 vstem
          497 -99 callgsubr
          -83 104 -99 callsubr
          endchar
        </CharString>
        <CharString name="Ucircumflexsmall">
          -40 -1 59 540 -20 hstem
          35 63 198 63 vstem
          288 400 -90 callsubr
          -28 104 -63 callgsubr
        </CharString>
        <CharString name="Udieresis">
          188 callsubr
          633 106 callsubr
          66 69 65 85 92 84 49 66 hintmask 11011110
          497 -99 callgsubr
          -124 109 -82 callgsubr
          hmoveto
          hintmask 10111110
          -25 callsubr
          hintmask 11011110
          -39 callsubr
          endchar
        </CharString>
        <CharString name="Udieresissmall">
          -40 -1 59 410 106 callsubr
          35 63 -30 85 92 84 -33 63 hintmask 11010010
          288 400 -90 callsubr
          hintmask 11001100
          -37 110 -82 callgsubr
          hmoveto
          hintmask 10101100
          -25 callsubr
          hintmask 11001100
          -39 callsubr
          endchar
        </CharString>
        <CharString name="Udotbelow">
          202 -217 106 99 67 566 -20 hstem
          66 69 124 106 145 66 vstem
          497 -99 callgsubr
          -220 -785 -76 callsubr
          endchar
        </CharString>
        <CharString name="Ugrave">
          188 callsubr
          806 -20 hstem
          66 69 375 66 vstem
          497 -99 callgsubr
          -263 240 -23 callgsubr
        </CharString>
        <CharString name="Ugravesmall">
          -40 -1 59 561 -2 callgsubr
          -156 199 29 callgsubr
        </CharString>
        <CharString name="Uhookabove">
          188 callsubr
          821 -20 hstem
          66 69 223 42 110 66 vstem
          497 -99 callgsubr
          -185 189 -106 callsubr
          endchar
        </CharString>
        <CharString name="Uhorn">
          259 -12 67 hstem
          66 69 374 -92 callgsubr
          endchar
        </CharString>
        <CharString name="Uhornacute">
          287 -12 67 819 -20 hstem
          66 69 374 -92 callgsubr
          -244 298 -41 callsubr
        </CharString>
        <CharString name="Uhorndotbelow">
          287 -219 106 101 67 hstem
          66 69 123 106 145 -92 callgsubr
          -214 -742 -76 callsubr
          endchar
        </CharString>
        <CharString name="Uhorngrave">
          287 -12 67 814 -20 hstem
          66 71 372 66 52 50 vstem
          578 576 rmoveto
          -2 -25 -1 -61 -95 vvcurveto
          -15 0 -21 1 -27 vhcurveto
          1 -27 1 -21 -13 vvcurveto
          -82 -20 -64 -40 -47 vhcurveto
          -60 -52 -66 -30 -80 hhcurveto
          -85 -66 29 58 -47 hvcurveto
          -37 47 -19 62 78 vvcurveto
          288 vlineto
          -1 29 -4 24 -5 18 rrcurveto
          92 hlineto
          -5 -21 -4 -51 -2 -81 rrcurveto
          -1 -81 -1 -72 -64 vvcurveto
          -131 62 -65 125 58 45 17 35 32 vhcurveto
          35 37 17 65 92 vvcurveto
          97 0 67 -1 36 vhcurveto
          -1 29 -4 40 -6 51 rrcurveto
          85 hlineto
          11 1 9 3 7 5 rrcurveto
          12 7 6 12 16 vvcurveto
          17 -7 13 -13 8 vhcurveto
          -15 9 -23 4 -31 -3 rrcurveto
          187 callgsubr
          -18 5 -18 -18 vvcurveto
          -49 -40 -38 -59 -7 vhcurveto
          -355 260 rmoveto
          60 callsubr
          endchar
        </CharString>
        <CharString name="Uhornhookabove">
          287 -12 67 823 -20 hstem
          66 69 218 42 114 -92 callgsubr
          -183 236 -106 callsubr
          endchar
        </CharString>
        <CharString name="Uhorntilde">
          287 -12 67 631 53 79 -20 hstem
          66 69 374 -92 callgsubr
          -112 213 -103 callgsubr
          endchar
        </CharString>
        <CharString name="Uhungarumlaut">
          188 callsubr
          820 -20 hstem
          66 69 375 66 vstem
          497 -99 callgsubr
          -185 254 73 callsubr
          -188 23 73 callsubr
          endchar
        </CharString>
        <CharString name="Umacron">
          188 callsubr
          631 50 hstem
          66 69 375 66 vstem
          497 -99 callgsubr
          -106 115 79 callsubr
        </CharString>
        <CharString name="Uogonek">
          202 -221 63 146 67 566 -20 hstem
          66 69 124 57 194 66 vstem
          427 -136 -5 callgsubr
          20 37 20 31 19 23 57 11 45 28 35 45 rrcurveto
          39 50 19 68 85 vvcurveto
          12 0 19 -1 25 vhcurveto
          -1 25 0 20 13 vvcurveto
          125 4 75 7 26 vhcurveto
          -88 hlineto
          5 -21 4 -40 1 -60 rrcurveto
          2 -59 1 -67 -73 vvcurveto
          -91 -18 -64 -35 -39 vhcurveto
          -35 -32 -45 -17 -58 hhcurveto
          -125 -62 65 131 64 1 72 1 81 hvcurveto
          2 81 4 51 5 21 rrcurveto
          -92 hlineto
          5 -16 3 -24 2 -31 2 -40 1 -48 -1 -56 rrcurveto
          -1 -102 -1 -48 6 vvcurveto
          -78 19 -62 37 -47 vhcurveto
          45 -55 62 -29 80 -3 -32 -41 -17 -41 -1 -40 0 callsubr
          endchar
        </CharString>
        <CharString name="Upsilon">
          92 96 callgsubr
          235 66 vstem
          416 -98 callsubr
          endchar
        </CharString>
        <CharString name="Upsilondieresis">
          92 21 -21 688 106 callsubr
          147 85 3 66 23 84 hintmask 11011100
          416 -98 callsubr
          -109 107 -82 callgsubr
          hmoveto
          hintmask 10111100
          -25 callsubr
          hintmask 11011100
          -39 callsubr
          endchar
        </CharString>
        <CharString name="Upsilontonos">
          246 21 -21 653 -20 hstem
          389 66 vstem
          566 621 rmoveto
          3 -19 -11 -27 -23 -37 -109 -171 rcurveline
          -118 172 -23 34 -10 27 5 21 rlinecurve
          -108 hlineto
          17 -12 36 -47 54 -81 37 -57 36 -56 37 -56 rrcurveto
          141 callgsubr
          -4 -42 -7 -25 rrcurveto
          88 hlineto
          -6 25 -3 43 -1 61 -1 61 0 61 -1 61 33 50 32 50 32 50 55 82 38 53 22 24 rrcurveto
          -602 32 73 callsubr
          endchar
        </CharString>
        <CharString name="Uring">
          188 callsubr
          632 34 116 34 hstem
          66 69 103 34 116 34 88 66 vstem
          497 -99 callgsubr
          -163 158 15 callgsubr
          endchar
        </CharString>
        <CharString name="Usmall">
          -40 -1 59 342 -20 hstem
          35 63 198 63 vstem
          288 400 -90 callsubr
          endchar
        </CharString>
        <CharString name="Utilde">
          212 -12 67 631 53 79 -20 hstem
          66 69 375 66 vstem
          497 -99 callgsubr
          -110 168 -103 callgsubr
          endchar
        </CharString>
        <CharString name="V">
          127 19 103 callgsubr
          474 621 rmoveto
          -6 -27 -27 -82 -48 -137 -67 -190 -36 -104 -6 -18 -15 47 -38 104 -61 162 -51 138 -29 82 -6 25 rrcurveto
          -78 hlineto
          21 -46 46 -117 71 -189 59 -156 34 -90 8 -25 rrcurveto
          75 hlineto
          132 367 80 207 28 49 rrcurveto
          endchar
        </CharString>
        <CharString name="Vsmall">
          -43 19 -21 392 -20 21 -20 hstemhm
          hintmask 10100000
          304 391 rmoveto
          -39 -116 -36 -106 -33 -95 rrcurveto
          hintmask 11000000
          -42 122 -37 105 -31 89 rrcurveto
          -69 hlineto
          58 -147 49 -131 41 -114 rrcurveto
          57 hlineto
          hintmask 10100000
          85 229 51 131 16 33 rrcurveto
          endchar
        </CharString>
        <CharString name="W">
          500 22 103 callgsubr
          830 -71 callgsubr
          endchar
        </CharString>
        <CharString name="Wacute">
          525 22 -21 872 -20 hstem
          847 -71 callgsubr
          -433 249 -41 callsubr
        </CharString>
        <CharString name="Wcircumflex">
          517 22 -21 851 -20 hstem
          847 -71 callgsubr
          -275 104 -99 callsubr
          endchar
        </CharString>
        <CharString name="Wdieresis">
          524 22 -21 687 106 callsubr
          351 85 92 84 hintmask 11011000
          847 -71 callgsubr
          -321 106 -82 callgsubr
          hmoveto
          hintmask 10111000
          -25 callsubr
          hintmask 11011000
          -39 callsubr
          endchar
        </CharString>
        <CharString name="Wgrave">
          529 22 -21 855 -20 hstem
          847 -71 callgsubr
          -467 232 -23 callgsubr
        </CharString>
        <CharString name="Wsmall">
          162 21 -21 393 -20 hstem
          -56 callgsubr
          endchar
        </CharString>
        <CharString name="X">
          -9 callgsubr
        </CharString>
        <CharString name="Xi">
          160 -9 58 -31 -21 300 50 219 62 hstemhm
          hintmask 10110000
          491 77 rmoveto
          -5 -11 -4 -7 -5 -3 rrcurveto
          -5 -7 -29 -2 -51 hhcurveto
          -226 hlineto
          336 268 rlineto
          31 vlineto
          -303 -1 328 238 rlineto
          43 vlineto
          -111 -4 -85 -2 -59 -1 -53 -1 -69 2 -85 3 -7 -45 -7 -29 -5 -14 rrcurveto
          49 hlineto
          4 12 4 8 5 3 rrcurveto
          4 5 29 2 52 hhcurveto
          216 hlineto
          -330 -243 rlineto
          -17 1 -1 -9 -1 hhcurveto
          308 hlineto
          -328 -261 -1 1 0 -15 1 -31 rlinecurve
          hintmask 01110000
          4 113 86 2 60 hhcurveto
          53 1 69 -2 85 -4 1 8 2 15 2 21 1 14 2 14 4 13 rrcurveto
          endchar
        </CharString>
        <CharString name="Xi1.alt">
          102 0 57 -47 -21 293 55 232 57 7 -20 hstemhm
          hintmask 10101000
          495 633 rmoveto
          hintmask 10110000
          175 callgsubr
          hintmask 10101000
          174 callgsubr
          -75 vlineto
          hintmask 10110000
          7 27 37 4 47 21 -9 0 101 hhcurveto
          47 54 -1 -1 63 hvcurveto
          27 -1 22 -3 18 -5 rrcurveto
          hintmask 10101000
          -494 vmoveto
          175 callgsubr
          174 callgsubr
          hintmask 01110000
          -75 vlineto
          27 7 37 4 47 1 rrcurveto
          hintmask 10110000
          -1 -25 37 0 101 hhcurveto
          47 54 -1 -1 63 hvcurveto
          hintmask 01110000
          27 -1 22 -3 18 -5 rrcurveto
          -361 281 rmoveto
          9 6 43 5 78 1 34 -2 88 -1 13 -8 rrcurveto
          78 vlineto
          -13 -8 -88 -2 -34 -2 -78 1 -43 4 -9 6 rrcurveto
          endchar
        </CharString>
        <CharString name="Xi2.alt">
          102 0 57 -47 -21 291 58 231 57 7 -20 hstemhm
          134 160 -64 64 -64 169 hintmask 10110100
          495 64 rmoveto
          -5 -31 -66 -2 -101 hhcurveto
          -2 30 -1 74 119 vvcurveto
          hintmask 10110001
          61 -1 35 -3 9 -5 rrcurveto
          78 vlineto
          hintmask 10110010
          -8 -5 -35 -4 -62 -2 rrcurveto
          126 1 77 3 28 vhcurveto
          50 43 -1 -1 37 hvcurveto
          26 -1 22 -3 19 -5 rrcurveto
          hintmask 10101100
          75 vlineto
          hintmask 10110100
          175 callgsubr
          hintmask 10101100
          174 callgsubr
          -75 vlineto
          20 5 23 3 25 1 rrcurveto
          hintmask 10110010
          33 1 40 0 45 1 rrcurveto
          3 -27 1 -77 -127 vvcurveto
          hintmask 10110100
          -56 1 -32 4 -8 5 rrcurveto
          -78 vlineto
          hintmask 10110010
          9 4 32 3 55 2 rrcurveto
          -119 -1 -74 -3 -29 vhcurveto
          -91 -62 2 5 -33 hvcurveto
          hintmask 01110100
          -75 vlineto
          27 7 37 4 48 1 rrcurveto
          hintmask 10110100
          -1 -27 37 0 102 hhcurveto
          116 39 0 1 -38 hvcurveto
          hintmask 01110100
          51 -1 38 -4 25 -7 rrcurveto
          endchar
        </CharString>
        <CharString name="Xsmall">
          -23 3 callsubr
        </CharString>
        <CharString name="Y">
          92 96 callgsubr
          235 66 vstem
          416 -98 callsubr
          endchar
        </CharString>
        <CharString name="Yacute">
          92 21 -21 873 -20 hstem
          235 66 vstem
          416 -98 callsubr
          -225 250 -41 callsubr
        </CharString>
        <CharString name="Yacutesmall">
          -83 21 -21 619 -20 hstem
          146 59 vstem
          -49 callsubr
          -152 228 -14 callgsubr
        </CharString>
        <CharString name="Ycircumflex">
          92 21 -21 852 -20 hstem
          235 66 vstem
          416 -98 callsubr
          -68 105 -99 callsubr
          endchar
        </CharString>
        <CharString name="Ydieresis">
          92 21 -21 626 -20 82 106 callsubr
          115 85 35 66 -9 84 hintmask 11101100
          416 626 rmoveto
          -1 -19 -11 -27 -23 -37 -109 -176 rcurveline
          -111 177 -22 35 -10 28 1 19 rlinecurve
          -116 hlineto
          17 -12 37 -48 55 -84 37 -57 38 -58 37 -57 rrcurveto
          -183 vlineto
          -1 -60 -4 -42 -7 -25 rrcurveto
          88 hlineto
          -6 25 -3 42 -1 61 -1 61 0 60 -1 61 33 51 34 51 33 51 57 85 39 54 22 24 rrcurveto
          hintmask 11101010
          -141 104 -82 callgsubr
          hmoveto
          hintmask 11011100
          -25 callsubr
          hintmask 11101100
          -39 callsubr
          endchar
        </CharString>
        <CharString name="Ydieresissmall">
          -83 21 -21 468 106 callsubr
          49 85 12 59 21 84 hintmask 11011100
          -49 callsubr
          -31 119 -82 callgsubr
          hmoveto
          hintmask 10111100
          -25 callsubr
          hintmask 11011100
          -39 callsubr
          endchar
        </CharString>
        <CharString name="Ydotbelow">
          92 -223 106 138 131 callsubr
          hstemhm
          207 106 -78 66 hintmask 11101000
          416 -98 callsubr
          hintmask 11110000
          -204 -793 -76 callsubr
          endchar
        </CharString>
        <CharString name="Ygrave">
          96 21 -21 875 -20 hstem
          235 64 vstem
          517 -54 callsubr
          -239 219 rmoveto
          60 callsubr
          endchar
        </CharString>
        <CharString name="Yhookabove">
          92 21 -21 878 -20 hstem
          235 66 4 42 vstem
          416 -98 callsubr
          -170 189 -106 callsubr
          endchar
        </CharString>
        <CharString name="Ysmall">
          -83 112 callgsubr
          146 59 vstem
          -49 callsubr
          endchar
        </CharString>
        <CharString name="Ytilde">
          92 21 -21 687 53 79 -20 hstem
          235 66 vstem
          416 -98 callsubr
          -86 167 -103 callgsubr
          endchar
        </CharString>
        <CharString name="Z">
          -13 callsubr
        </CharString>
        <CharString name="Zacute">
          152 -6 63 -46 -21 569 62 252 -20 hstemhm
          hintmask 10110000
          554 621 rmoveto
          -113 -2 -88 -1 -62 1 6 callsubr
          20 callgsubr
          hintmask 01110000
          31 callsubr
          hintmask 10110000
          -9 113 callgsubr
          -263 hlineto
          174 816 -41 callsubr
        </CharString>
        <CharString name="Zcaron">
          152 -10 67 502 65 229 -20 hstem
          554 621 rmoveto
          -398 -564 rlineto
          263 hlineto
          36 21 4 9 6 hvcurveto
          5 6 3 10 14 vvcurveto
          51 hlineto
          -3 -46 0 -37 3 -27 -94 5 -74 2 -53 -1 -60 1 -86 -1 -112 -2 rrcurveto
          37 vlineto
          372 528 rlineto
          -228 hlineto
          -39 -21 -2 -5 -4 hvcurveto
          -4 -5 -2 -8 -1 -12 rrcurveto
          -51 hlineto
          3 41 0 32 -3 24 85 -4 69 -2 53 1 62 -1 88 1 113 2 rrcurveto
          -60 191 -48 callgsubr
        </CharString>
        <CharString name="Zcaronsmall">
          -58 -4 54 291 49 205 -20 hstem
          346 392 rmoveto
          -221 -342 rlineto
          133 hlineto
          26 14 5 10 3 hvcurveto
          1 3 0 4 5 vvcurveto
          41 hlineto
          -3 -37 0 -27 2 -17 -61 3 -48 1 -33 -1 -38 1 -54 -1 -69 -1 rrcurveto
          23 vlineto
          207 320 rlineto
          -109 hlineto
          -25 -13 -1 -3 -3 hvcurveto
          -2 -3 -1 -5 -1 -8 rrcurveto
          -41 hlineto
          3 33 0 24 -2 15 rrcurveto
          -2 53 43 -1 33 hhcurveto
          39 55 1 1 71 hvcurveto
          -14 161 -57 callsubr
        </CharString>
        <CharString name="Zdotaccent">
          152 -6 63 -46 -21 569 62 66 110 hstemhm
          270 110 hintmask 10111000
          554 621 rmoveto
          -113 -2 -88 -1 -62 1 6 callsubr
          20 callgsubr
          hintmask 01111000
          31 callsubr
          hintmask 10111000
          -9 113 callgsubr
          -263 hlineto
          224 685 -5 callsubr
        </CharString>
        <CharString name="Zeta">
          -13 callsubr
        </CharString>
        <CharString name="Zsmall">
          -11 callgsubr
        </CharString>
        <CharString name="_1143">
          -100 464 48 hstem
          348 512 28 callsubr
        </CharString>
        <CharString name="_63112">
          -211 9 -21 610 -20 hstem
          125 58 vstem
          117 -3 callgsubr
          46 callsubr
          98 113 -63 callgsubr
        </CharString>
        <CharString name="_63113">
          -40 -265 -21 307 143 callsubr
          hstemhm
          40 59 61 66 vstemhm
          -44 callgsubr
          119 -497 91 callsubr
          hintmask 11111000
          -75 callgsubr
        </CharString>
        <CharString name="a">
          123 callsubr
          77 callgsubr
          hintmask 10111000
          -69 callgsubr
          hintmask 01111000
          -103 callsubr
          hintmask 10111000
          -87 callsubr
          endchar
        </CharString>
        <CharString name="aacute">
          -6 7 callgsubr
          239 -20 hstemhm
          30 144 callsubr
          hintmask 10111100
          262 -94 callgsubr
          hintmask 01111100
          -103 callsubr
          hintmask 10111100
          -87 callsubr
          -47 453 73 callsubr
          endchar
        </CharString>
        <CharString name="abreve">
          123 callsubr
          67 36 86 137 callgsubr
          hintmask 10111110
          -69 callgsubr
          hintmask 01111110
          -103 callsubr
          hintmask 10111110
          -87 callsubr
          70 75 callgsubr
          endchar
        </CharString>
        <CharString name="abreveacute">
          37 callsubr
          64 36 241 137 callgsubr
          hintmask 10111110
          -69 callgsubr
          hintmask 01111110
          -103 callsubr
          hintmask 10111110
          -87 callsubr
          65 400 -89 callgsubr
          -159 174 73 callsubr
          endchar
        </CharString>
        <CharString name="abrevedotbelow">
          -3 -226 106 110 53 -31 -21 360 49 67 36 86 -20 hstemhm
          40 58 59 106 9 61 hintmask 1101111110000000
          -69 callgsubr
          hintmask 1011111110000000
          -103 callsubr
          hintmask 1101111110000000
          -87 callsubr
          56 75 callgsubr
          -97 -743 -76 callsubr
          endchar
        </CharString>
        <CharString name="abrevegrave">
          37 callsubr
          67 36 236 137 callgsubr
          hintmask 10111110
          -69 callgsubr
          hintmask 01111110
          -103 callsubr
          hintmask 10111110
          -87 callsubr
          67 75 callgsubr
          -170 169 -23 callgsubr
        </CharString>
        <CharString name="abrevehookabove">
          37 callsubr
          63 36 230 -20 hstemhm
          40 58 131 42 1 61 hintmask 10111111
          -69 callgsubr
          hintmask 01111111
          -103 callsubr
          hintmask 10111111
          -87 callsubr
          49 399 -89 callgsubr
          -82 97 -106 callsubr
          endchar
        </CharString>
        <CharString name="abrevetilde">
          37 callsubr
          61 36 94 53 79 137 callgsubr
          hintmask 10111111
          -69 callgsubr
          hintmask 01111111
          -103 callsubr
          hintmask 10111111
          -87 callsubr
          68 397 -89 callgsubr
          -5 130 -103 callgsubr
          endchar
        </CharString>
        <CharString name="acircumflex">
          37 callsubr
          231 -20 hstemhm
          50 144 callsubr
          hintmask 10111100
          282 -94 callgsubr
          hintmask 01111100
          -103 callsubr
          hintmask 10111100
          -87 callsubr
          115 321 -99 callsubr
          endchar
        </CharString>
        <CharString name="acircumflexacute">
          37 callsubr
          259 137 callgsubr
          hintmask 10111100
          -69 callgsubr
          hintmask 01111100
          -103 callsubr
          hintmask 10111100
          -87 callsubr
          116 315 -99 callsubr
          109 199 73 callsubr
          endchar
        </CharString>
        <CharString name="acircumflexdotbelow">
          -3 -221 106 105 53 -31 -21 360 49 230 -20 hstemhm
          40 58 65 106 3 61 hintmask 11011111
          -69 callgsubr
          hintmask 10111111
          -103 callsubr
          hintmask 11011111
          -87 callsubr
          129 320 -99 callsubr
          -92 -633 -76 callsubr
          endchar
        </CharString>
        <CharString name="acircumflexgrave">
          37 callsubr
          244 137 callgsubr
          hintmask 10111100
          -69 callgsubr
          hintmask 01111100
          -103 callsubr
          hintmask 10111100
          -87 callsubr
          115 311 -99 callsubr
          107 188 -23 callgsubr
        </CharString>
        <CharString name="acircumflexhookabove">
          37 callsubr
          253 137 callgsubr
          157 42 hintmask 10111110
          -69 callgsubr
          hintmask 01111110
          -103 callsubr
          hintmask 10111110
          -87 callsubr
          118 314 -99 callsubr
          182 128 -106 callsubr
          endchar
        </CharString>
        <CharString name="acircumflextilde">
          37 callsubr
          77 callgsubr
          hintmask 10111000
          -69 callgsubr
          hintmask 01111000
          -103 callsubr
          hintmask 10111000
          -87 callsubr
          118 308 -99 callsubr
          53 295 -14 callsubr
        </CharString>
        <CharString name="acute">
          -292 464 61 callgsubr
          63 633 73 callsubr
          endchar
        </CharString>
        <CharString name="acutecomb">
          -210 464 61 callgsubr
          120 161 callgsubr
          endchar
        </CharString>
        <CharString name="adieresis">
          37 callsubr
          66 85 1 -20 hstemhm
          40 58 -39 94 92 88 -61 61 hintmask 1011010010000000
          -69 callgsubr
          hintmask 0111001100000000
          -33 8 21 -16 35 hhcurveto
          17 19 12 23 22 hvcurveto
          54 vlineto
          -20 -27 -15 -10 -5 hhcurveto
          -11 -6 8 15 hvcurveto
          206 vlineto
          43 -14 31 -27 21 vhcurveto
          -23 18 -31 9 -38 -1 -65 callgsubr
          rrcurveto
          hintmask 1011010010000000
          49 3 24 -21 1 -45 rrcurveto
          3 -198 rmoveto
          -12 -11 -18 -10 -25 -11 rrcurveto
          -87 callsubr
          54 322 rmoveto
          21 -20 22 -21 vhcurveto
          hintmask 1011001100000000
          -23 64 callsubr
          23 23 18 21 21 hvcurveto
          144 callgsubr
          hintmask 1010101100000000
          -17 callsubr
          endchar
        </CharString>
        <CharString name="adotbelow">
          -3 -226 106 110 53 -31 -21 360 49 hstemhm
          40 58 62 106 6 61 hintmask 11011110
          -69 callgsubr
          hintmask 10111110
          -103 callsubr
          hintmask 11011110
          -87 callsubr
          -9 -359 -76 callsubr
          endchar
        </CharString>
        <CharString name="ae">
          208 -8 53 152 53 98 46 hstem
          20 58 vstem
          300 72 rmoveto
          29 -53 63 -30 63 3 41 2 47 15 53 29 -29 53 rcurveline
          -31 -31 -36 -16 -40 1 -43 1 -35 14 -28 29 -28 29 -14 36 1 43 rrcurveto
          303 hlineto
          1 59 -14 47 -28 34 -31 39 -45 19 -61 -1 -58 -1 -44 -23 -30 -47 -17 51 -42 25 -67 -2 -65 callgsubr
          rrcurveto
          49 3 25 -21 -45 vvcurveto
          -18 vlineto
          -79 -28 -51 -17 -34 -16 -19 -13 rlinecurve
          -33 -24 -16 -32 -39 vvcurveto
          -29 10 -26 21 -22 vhcurveto
          21 -21 26 -11 32 -1 77 -1 56 28 37 57 rrcurveto
          22 178 rmoveto
          55 21 45 35 49 hhcurveto
          63 36 -30 -60 7 hvcurveto
          -291 -162 rmoveto
          -12 -11 -18 -11 -24 -10 rrcurveto
          -10 -24 -19 -5 -14 hhcurveto
          -37 -26 28 37 23 19 23 39 21 hvcurveto
          23 11 38 15 55 19 rrcurveto
          endchar
        </CharString>
        <CharString name="aeacute">
          208 -8 53 152 53 98 46 239 -20 hstem
          20 58 vstem
          300 72 rmoveto
          29 -53 63 -30 63 3 41 2 47 15 53 29 -29 53 rcurveline
          -31 -31 -36 -16 -40 1 -43 1 -35 14 -28 29 -28 29 -14 36 1 43 rrcurveto
          303 hlineto
          1 59 -14 47 -28 34 -31 39 -45 19 -61 -1 -58 -1 -44 -23 -30 -47 -17 51 -42 25 -67 -2 -65 callgsubr
          rrcurveto
          49 3 25 -21 -45 vvcurveto
          -18 vlineto
          -79 -28 -51 -17 -34 -16 -19 -13 rlinecurve
          -33 -24 -16 -32 -39 vvcurveto
          -29 10 -26 21 -22 vhcurveto
          21 -21 26 -11 32 -1 77 -1 56 28 37 57 rrcurveto
          22 178 rmoveto
          55 21 45 35 49 hhcurveto
          63 36 -30 -60 7 hvcurveto
          -291 -162 rmoveto
          -12 -11 -18 -11 -24 -10 rrcurveto
          -10 -24 -19 -5 -14 hhcurveto
          -37 -26 28 37 23 19 23 39 21 hvcurveto
          23 11 38 15 55 19 rrcurveto
          76 415 73 callsubr
          endchar
        </CharString>
        <CharString name="agrave">
          -6 7 callgsubr
          240 137 callgsubr
          hintmask 10111100
          -69 callgsubr
          hintmask 01111100
          -103 callsubr
          hintmask 10111100
          -87 callsubr
          -76 454 -23 callgsubr
        </CharString>
        <CharString name="ahookabove">
          37 callsubr
          249 -20 hstemhm
          40 58 134 42 -2 61 hintmask 10111010
          -69 callgsubr
          hintmask 01111010
          -103 callsubr
          hintmask 10111100
          -87 callsubr
          -1 397 -106 callsubr
          endchar
        </CharString>
        <CharString name="alpha">
          61 callsubr
          12 145 callgsubr
          269 53 hintmask 10011100
          501 51 rmoveto
          -51 29 -26 48 68 vvcurveto
          55 25 51 49 45 -37 callgsubr
          hintmask 10101100
          66 -37 -55 33 -75 hhcurveto
          -59 -48 -21 -43 -37 hvcurveto
          -33 -39 -17 -46 -51 vvcurveto
          -58 16 -48 33 -38 vhcurveto
          -41 36 48 -20 61 hhcurveto
          68 69 38 60 28 hvcurveto
          hintmask 01101100
          -66 callsubr
          hintmask 10101100
          -92 callsubr
          endchar
        </CharString>
</ttFont>
